<?xml version="1.0" standalone="no"?>
<!DOCTYPE svg PUBLIC "-//W3C//DTD SVG 1.1//EN" "http://www.w3.org/Graphics/SVG/1.1/DTD/svg11.dtd" >
<svg>
<metadata>
Created by FontForge 20110222 at Mon Feb 10 05:02:08 2014
 By deploy user
The digitally encoded machine readable outline data for producing the Typefaces licensed to you is copyrighted \(C\), 1999 by and the property of Heidelberger Druckmaschinen AG  and/or its subsidiaries. All rights reserved.
</metadata>
<defs>
<font id="LinotypeZapfino-Three" horiz-adv-x="230" >
  <font-face 
    font-family="LTZapfino Three"
    font-weight="400"
    font-stretch="normal"
    units-per-em="1000"
    panose-1="2 0 0 3 8 0 0 2 0 2"
    ascent="800"
    descent="-200"
    x-height="209"
    cap-height="551"
    bbox="-459.5 -534.574 1274 917"
    underline-thickness="50"
    underline-position="-75"
    unicode-range="U+0020-FB02"
  />
<missing-glyph horiz-adv-x="491" 
 />
    <glyph glyph-name=".notdef" horiz-adv-x="491" 
 />
    <glyph glyph-name="space" unicode=" " horiz-adv-x="201" 
 />
    <glyph glyph-name="quotedbl" unicode="&#x22;" horiz-adv-x="327" 
d="M426 460q0 6 -8 9q-6 2 -9 2q-5 0 -9.5 -1.5t-7.5 -6.5q-16 -21 -32 -46.5t-33 -51.5q-16 -26 -37 -61.5t-47 -78.5q-2 -2 -2 -4q0 -4 5 -4q4 0 6 3q15 23 33.5 48t40.5 54q20 26 46 59.5t51 71.5q3 3 3 7zM353 465q0 7 -7 11q-6 3 -11 3q-9 0 -16 -9q-19 -27 -36 -54
t-34 -56.5t-37 -61t-45 -67.5q-2 -4 -2 -5q0 -6 6 -6q3 0 5 3q24 35 47 65t44.5 58t42 55t40.5 57q3 3 3 7z" />
    <glyph glyph-name="numbersign" unicode="#" horiz-adv-x="329" 
d="M397 388q0 3 -2 3h-1q0 1 -1 1q-3 0 -6.5 -3t-5.5 -7q-3 -5 -9.5 -15.5t-15.5 -24.5t-20 -31l-22 -34q-16 -1 -31.5 -1.5t-30.5 -1.5q14 22 28.5 42.5t28.5 40.5q2 2 2 6q0 5 -5 5q-1 0 -0.5 -0.5t-0.5 -0.5q-5 -1 -8.5 -4.5t-6.5 -8.5q-11 -17 -23 -37.5t-26 -42.5
q-10 0 -19 -0.5t-17 -0.5q-10 0 -14 -6q-4 -5 -8 -13t-8 -13l-2 -4q0 -4 5 -4h2q10 1 19.5 2.5t19.5 2.5q-9 -15 -17.5 -28.5t-15.5 -24.5q-8 -14 -16 -26.5t-15 -23.5q-7 -1 -13.5 -2t-12.5 -2q-17 -3 -23 -11q-2 -2 -3 -5t-3 -6t-4.5 -5t-4.5 -4q-2 -1 -2 -4q0 -4 6 -4h1
l36 6q-20 -32 -36 -57.5t-32 -51.5q-3 -5 -3 -9q0 -5 5 -10q4 -2 5 -2q6 0 11 12q11 25 26.5 54.5t36.5 65.5q17 2 32.5 3t29.5 1q-17 -28 -32.5 -53.5t-31.5 -50.5q-4 -5 -4 -11q0 -4 4 -7q2 -2 4 -2q6 0 8 7q12 24 28.5 54.5t34.5 62.5q34 0 49 -7q4 -2 6 -2q5 0 8 5
q2 5 4.5 9.5t5.5 8.5t3 8q0 5 -5 8q-10 7 -30 7h-19q9 15 18 29.5t17 28.5q6 10 13.5 20.5t15.5 24.5q7 0 13.5 1t13.5 1q11 0 20 9q5 5 10.5 9.5t11.5 9.5q2 2 2 3q0 3 -4 3q-11 -1 -23 -1q-11 0 -22 -1q12 18 23.5 35t21 31t15.5 22.5t7 10.5q4 6 4 11zM293 245
q-8 -13 -15 -24.5t-12 -19.5q-10 -16 -19 -31t-18 -29q-16 -1 -31.5 -1.5t-30.5 -2.5l12 20t13 21q10 16 19.5 31t18.5 30q16 2 31.5 3.5t31.5 2.5z" />
    <glyph glyph-name="dollar" unicode="$" horiz-adv-x="362" 
d="M432 501q0 3 -3 3t-5 -2q-4 -3 -8 -7.5t-9 -12.5l-37 -63q-18 23 -51 23q-17 0 -35.5 -7t-35.5 -21q-26 -20 -47.5 -51.5t-32.5 -62.5q-4 -9 -4 -20q0 -24 27 -35q15 -6 31.5 -10.5t33.5 -9.5q-39 -67 -73 -126t-58 -104q-35 8 -62 30q-8 7 -14.5 18t-8.5 24q0 4 -3 4
q-4 0 -4 -5v-1q1 -8 1.5 -16.5t0.5 -15.5q0 -19 5.5 -29.5t19.5 -18.5q12 -7 24.5 -11t25.5 -6q-23 -42 -36.5 -74.5t-23.5 -62.5q-2 -4 -2 -8v-7q0 -7 1 -9q2 -5 5 -5q2 0 4 5q14 40 29.5 79.5t35.5 79.5h12q38 0 77.5 16.5t80.5 48.5q66 50 78 106q3 15 3 27q0 47 -50 70
q-11 5 -21 9t-21 7q17 29 35 59t38 62q6 -15 6 -32q0 -6 5 -6q2 0 4 3l2.5 5t3.5 5q5 8 7.5 11.5t2.5 11.5v6q-2 19 -9 33q13 21 26.5 43t27.5 45q1 2 1 5zM348 383q-20 -33 -38.5 -65.5t-37.5 -64.5l-3 1q-13 5 -25 9.5t-23 12.5q-10 7 -16 17.5t-6 24.5q0 7 1 11
q3 17 15 37t30 34q21 17 46 17q18 0 33 -9q15 -10 24 -25zM329 143q0 -5 -0.5 -10.5t-1.5 -10.5q-5 -28 -18 -52t-37 -44q-22 -18 -49.5 -26.5t-56.5 -8.5h-15q-6 0 -14 2q2 5 5 9.5t5 9.5q29 53 57.5 104.5t60.5 105.5l9 -3q29 -11 42 -30.5t13 -45.5z" />
    <glyph glyph-name="percent" unicode="%" horiz-adv-x="633" 
d="M666 200q0 3 -7 3h-26h-16q-15 2 -30 4.5t-24 10.5q-5 3 -8 3t-4 -1q-2 -2 -8.5 -6t-12.5 -6q-5 -2 -5 -5q0 -4 5 -6q6 -2 14.5 -11t9.5 -27v-8q0 -76 -52 -129q-23 -23 -42 -23q-12 0 -19.5 10t-7.5 27q0 5 0.5 9.5t1.5 9.5q6 28 18 56.5t26 44.5q9 11 18 19.5t15 11.5
q5 3 5 7v1q0 3 -3 3t-8 -3.5t-10 -6.5q-48 -26 -89.5 -51.5t-82 -52.5t-83 -57t-92.5 -64q90 93 176 186t152 182q17 23 30.5 44.5t20.5 42.5q3 9 3 18q0 19 -11 31q-11 14 -28 20t-40 6q-5 0 -9 -0.5t-9 -0.5q-23 -2 -49.5 -6t-49.5 -4q-10 0 -14.5 3t-6.5 8q-1 4 -5 4
q-3 0 -4 -4q-4 -11 -4 -22q0 -9 3 -13q-17 -6 -35.5 -18t-29.5 -23q-52 -58 -59 -116v-9q0 -27 22 -37q11 -5 27 -5q24 0 49.5 14.5t48.5 38.5q19 20 32 42.5t18 48.5q2 10 2 15q0 9 -4 19q-4 9 -10 11q-4 1 -11.5 3t-10.5 4h-1q0 1 -1 1q-3 0 -3 -4q0 -2 1 -3
q3 -3 5.5 -8.5t2.5 -13.5v-2q0 -38 -21.5 -80t-58.5 -65q-15 -9 -26 -9q-24 0 -24 32v8q3 27 16 56.5t30 54.5q7 9 18.5 21t26.5 20q5 -5 18 -5q2 0 4.5 -0.5t4.5 0.5q25 4 48 10.5t48 10.5q16 3 31 3q12 0 22.5 -2t18.5 -7q18 -11 18 -30q0 -8 -3 -15q-7 -19 -19.5 -40
t-29.5 -44q-35 -48 -81 -99.5t-98 -105t-109 -108t-114 -107.5q-7 -7 -7 -13v-3q1 -2 1 -5t-2 -7q-1 -1 -1 -4t3 -3h1q5 0 9 4q46 38 96.5 75.5t102 73.5t102 69t96.5 62q-20 -20 -36.5 -45t-26.5 -52q-6 -20 -6 -34q0 -23 12.5 -35.5t32.5 -12.5q15 0 33 7.5t37 23.5
q20 17 36 40.5t27 52.5q11 30 11 52q0 10 -1 14q-1 2 -1 6q0 7 9 9q17 2 35.5 3.5t28.5 3.5q7 1 7 3z" />
    <glyph glyph-name="ampersand" unicode="&#x26;" horiz-adv-x="928" 
d="M932 357v3q0 14 -8 27q-8 14 -24 21q-4 2 -7.5 3t-8.5 1h-1q-5 0 -11 -2q-7 -3 -15 -8t-15 -11q-2 -1 -2 -5q0 -2 2 -2h2q1 0 2 0.5t3 0.5q5 0 8 -1q18 -4 30 -21t12 -36q0 -17 -12 -35.5t-24 -29.5q-14 -12 -29.5 -21.5t-33.5 -14.5q-19 -6 -41.5 -7t-42.5 -1
q-35 0 -71.5 2t-66.5 2h-8q-10 0 -17 -0.5t-16 -5.5q-23 -12 -47 -37t-41 -55q-13 -23 -19.5 -48.5t-6.5 -51.5q0 -32 17 -57q-17 -8 -34 -13.5t-34 -9.5q-29 -6 -65 -6q-38 0 -75 10t-65 37q-14 14 -22.5 31.5t-11.5 32.5q0 2 -0.5 3t-0.5 2q0 8 6 11q6 4 26.5 15t48.5 25
q14 7 32.5 17t39 22t42 24.5t40.5 24.5q38 24 75 52.5t66 56.5q22 21 41.5 54t19.5 65v3q0 6 -2 11.5t-7 6.5q-6 2 -12 3.5t-13 1.5t-10 -4q-2 -3 -5 -9.5t-5 -11.5q0 -1 -1 -1v-1q0 -5 5 -8q14 -11 14 -33q0 -14 -4 -25q-7 -20 -21.5 -37t-32.5 -33q-24 -22 -57.5 -46.5
t-68.5 -45.5q-2 -2 -4 -2.5l-2 -0.5l-0.5 1.5t-0.5 3.5v11q0 1 -1 8.5t-3 18t-5 16.5q-8 17 -22.5 27t-36.5 10q-32 0 -59.5 -16t-50.5 -36q-17 -16 -35.5 -41t-28.5 -51q-14 -37 -14 -68v-2q0 -77 77 -119q24 -13 55 -19t65 -6h4q22 0 44 2.5t43 7.5q17 4 34.5 9.5
t35.5 13.5q1 -2 2 -2.5t3 -2.5t6.5 -3l4.5 -1q1 1 6 5t10.5 10.5t5.5 10.5v1q29 15 53 32q29 20 54 46.5t39 47.5q5 8 6.5 19l1.5 11q0 1 -2 10t-5 21.5t-6 19.5h1q13 0 25.5 -0.5t24.5 -0.5q10 0 19 0.5t17 0.5q30 2 57 10t56 25q17 11 37 28t33 33q12 14 22 29.5t14 26.5
q3 10 3 20zM621 168q0 -6 -3.5 -15t-8 -18.5t-9 -18t-7.5 -13.5q-19 -32 -44 -57.5t-48 -42.5q-7 -5 -13 -9.5t-13 -8.5h-1q-5 0 -9 5t-6 8q-6 12 -10.5 27t-4.5 32v4q0 31 15 64q9 20 18 29q13 14 27 18.5t31 7.5q15 3 35.5 4t43.5 1l1 -1q6 -6 6 -15v-1zM302 185
q0 -9 -1 -13q-1 -8 -8 -12q-14 -9 -29 -17t-33 -17q-23 -11 -48.5 -23t-43.5 -19q-6 -2 -7 -2h-1q-3 1 -3 8q0 32 9.5 67t29.5 61q14 20 33.5 35t45.5 15h1q32 0 44 -28q5 -12 8 -26.5t3 -28.5z" />
    <glyph glyph-name="quotesingle" unicode="'" horiz-adv-x="218" 
d="M328 462q0 3 -6 8q-6 4 -11 4q-9 0 -16 -9q-17 -25 -30.5 -49t-27.5 -49t-27.5 -50.5t-28.5 -53.5q-1 -2 -1 -5q0 -5 6 -5q3 0 6 4q7 12 16 26.5t19 29t19 27.5t15 22t15 21t18 25t17.5 25.5t14.5 23.5q2 4 2 5z" />
    <glyph glyph-name="parenleft" unicode="(" horiz-adv-x="366" 
d="M459 507v1q-2 2 -4 2h-2q-55 -26 -107.5 -69.5t-96.5 -94.5q-43 -50 -80.5 -112.5t-57.5 -125.5q-11 -35 -11 -60q0 -34 15 -59.5t42 -42.5q1 -1 3 -1q3 0 3 3t-2 4q-31 25 -31 68q0 25 8 54.5t22 61.5q15 37 36.5 76.5t47.5 78.5t55 76t59 67q22 22 48 40t50 29q3 1 3 4
z" />
    <glyph glyph-name="parenright" unicode=")" horiz-adv-x="406" 
d="M474 398q0 35 -9.5 61t-32.5 46q-1 1 -3 1q-1 0 -2 -1q0 -1 -1 -1v-1q0 -2 2 -4q22 -21 22 -58q0 -20 -5.5 -44.5t-15.5 -51.5q-12 -35 -32 -74.5t-44 -80t-51.5 -79t-55.5 -70.5q-26 -30 -56 -53t-65 -34q-4 -1 -4 -4t4 -3h3q32 9 68 31q30 18 62.5 46t64 65.5t61.5 84
t55 100.5q14 29 24.5 62t10.5 62z" />
    <glyph glyph-name="asterisk" unicode="*" horiz-adv-x="254" 
d="M371 365q0 1 -0.5 1.5t-0.5 1.5q-3 9 -13 9q-3 0 -7 -2q-19 -10 -39 -18.5t-49 -18.5q8 32 15 52.5t14 41.5q2 6 2 8q0 8 -8 8h-2q-6 0 -11 -2t-6 -7q-3 -17 -6 -42.5t-7 -57.5q-23 22 -37.5 38t-31.5 34q-3 3 -7 3q-7 0 -12 -5q-3 -3 -3 -8q0 -7 6 -11q23 -17 43 -31
t36 -27q-26 -8 -49 -12t-40 -7q-6 -1 -9 -5t-3 -9v-2q1 -4 4.5 -7.5t7.5 -3.5h1q0 1 1 1q18 8 40 18t50 20q-8 -32 -15.5 -58.5t-11.5 -40.5v-3q0 -7 9 -7h3q6 1 11.5 3t5.5 6q1 19 2 43t4 53q21 -20 38.5 -36t29.5 -27q4 -4 8 -4q3 0 7 2q7 4 7 10q0 5 -4 8q-12 10 -34 23
t-45 33q30 8 52 12.5t40 9.5q14 3 14 13z" />
    <glyph glyph-name="plus" unicode="+" horiz-adv-x="400" 
d="M198 154h-124v-30h124v-124h30v124h124v30h-124v124h-30v-124z" />
    <glyph glyph-name="comma" unicode="," horiz-adv-x="210" 
d="M159 69q0 4 -0.5 10.5t-1.5 11.5q-2 9 -8 9q-7 0 -11 -7q-40 -54 -81 -106.5t-85 -102.5q-3 -5 -3 -8q0 -6 5 -6q4 0 8 4q22 25 41 46t38.5 41t41 41.5l48.5 48.5q8 8 8 18z" />
    <glyph glyph-name="hyphen" unicode="-" horiz-adv-x="231" 
d="M282 136q0 7 -11 7q-23 0 -37.5 -0.5t-26.5 -0.5q-11 0 -20.5 -0.5t-22.5 -0.5q-9 0 -20 0.5t-25 0.5h-1q-6 0 -9 -3t-3 -6q0 -6 10 -6h38q15 0 25 0.5t19 0.5h24h46h1q13 0 13 8z" />
    <glyph glyph-name="hyphen" unicode="&#xad;" horiz-adv-x="231" 
d="M282 136q0 7 -11 7q-23 0 -37.5 -0.5t-26.5 -0.5q-11 0 -20.5 -0.5t-22.5 -0.5q-9 0 -20 0.5t-25 0.5h-1q-6 0 -9 -3t-3 -6q0 -6 10 -6h38q15 0 25 0.5t19 0.5h24h46h1q13 0 13 8z" />
    <glyph glyph-name="period" unicode="." horiz-adv-x="220" 
d="M145 44q0 12 -13 16q-2 1 -6 1q-8 0 -16 -4.5t-14.5 -11t-10 -15t-3.5 -17.5v-3q0 -8 5.5 -11.5t12.5 -3.5q5 0 7 1q11 5 21 16t15 24q2 6 2 8z" />
    <glyph glyph-name="slash" unicode="/" horiz-adv-x="368" 
d="M410 548q0 7 -8 7q-5 0 -12 -10l-14 -30t-37 -78.5t-52 -110.5t-59.5 -127t-59.5 -127.5t-51.5 -112.5t-36.5 -81.5t-14 -34.5q0 -7 8 -7q7 0 12 8q1 2 18 39t46.5 100t63.5 137t68.5 149.5t63 137.5t46.5 101t18 40z" />
    <glyph glyph-name="zero" unicode="0" horiz-adv-x="397" 
d="M316 382q8 4 12 5q15 5 25 5q25 0 35 -23q2 -6 4 -12.5t3 -13.5q-5 -1 -9 -1h-9q-16 2 -24.5 4t-19.5 10q-7 5 -11 13t-6 13zM281 376q-5 -2 -9 -4t-9 -4q-25 -11 -46.5 -28t-33.5 -31q-41 -46 -71.5 -97.5t-41.5 -97.5q-6 -24 -6 -43q0 -35 19 -56t61 -25q3 0 6.5 -0.5
t6.5 -0.5q47 0 89 25t74 63q32 37 57 80.5t40 85.5q8 23 13.5 47.5t5.5 47.5v7q22 8 43 19.5t41 23.5q8 5 16 10.5t14 9.5q5 3 1 5q0 3 -4 -1q-15 -10 -30 -19q-21 -12 -41 -22t-41 -18q0 6 -1 9q-3 17 -10.5 31.5t-21.5 23.5q-5 4 -12 4q-6 0 -12 -3q-15 -8 -32.5 -15
t-35.5 -15l-31 -3l0.5 -2.5t1.5 -6.5zM314 340q9 -5 26.5 -6.5t28.5 -1.5q7 0 13.5 0.5t13.5 1.5q1 -5 1 -10v-9q0 -12 -1 -25t-4 -27q-7 -33 -19 -66t-29.5 -63.5t-40.5 -56.5t-51 -45q-41 -28 -76 -28q-29 0 -46 20t-17 57q0 11 1 23t5 26q16 61 42.5 105.5t61.5 82.5
q27 28 62 49q2 -7 5 -10q4 -4 8.5 -8t15.5 -9z" />
    <glyph glyph-name="one" unicode="1" horiz-adv-x="254" 
d="M359 420q0 2 -3 2q-2 0 -3 -0.5l-3 -1.5q-4 -2 -14 -6.5t-18 -7.5q-5 -2 -10 -6l-10 -8q-38 -32 -73 -60.5t-74 -59.5q-7 -5 -12.5 -9t-10.5 -9t-9 -9.5t-9 -10.5q-3 -4 -3 -9v-2h2q2 0 7 3q49 45 89 79t81 67q2 2 3 2t1 -1v0v-1l-2 -4q-24 -34 -51.5 -75t-53.5 -81.5
t-47.5 -77t-34.5 -63.5q-10 -21 -10 -38q0 -18 12 -33q5 -5 11.5 -14.5t13.5 -17.5q2 -2 4 -2q3 0 3 4q0 3 -1 4q-11 14 -11 31q0 21 17 53q39 79 93 168.5t123 186.5q3 4 3 7z" />
    <glyph glyph-name="two" unicode="2" horiz-adv-x="408" 
d="M434 39q0 8 -12 15q-32 17 -87 28t-118 14q17 14 31 27t25 23q13 12 32.5 32.5t39.5 44t38 48t27 44.5q11 22 11 44q0 46 -54 57q-6 2 -12 2h-11q-25 0 -49 -9t-44 -26q-11 -9 -22 -20t-19 -21l-7.5 -10t-9.5 -12q-1 -2 -5.5 -8t-7.5 -9q-1 -1 -1 -3q0 -4 4 -4q3 0 4 2
q3 4 4.5 6.5t3.5 5.5t4.5 6.5t7.5 9.5q19 23 44 36.5t59 15.5h7q29 0 46 -15t17 -39q0 -18 -9 -37q-17 -35 -44 -68t-59 -65q-15 -15 -31.5 -29.5t-33.5 -28.5q-10 0 -19.5 0.5t-19.5 0.5h-18q-81 -2 -125 -39q-15 -14 -15 -27q0 -20 27 -32q12 -5 24 -5q24 0 50 17
q17 11 35.5 24.5t36.5 28.5q9 -1 18.5 -1.5t19.5 -2.5q26 -3 54.5 -7.5t55.5 -11.5t50.5 -17.5t39.5 -26.5q4 -2 5 -2q3 0 4 4q1 5 3 16t4 18q1 2 1 6zM161 65q-11 -8 -21.5 -14.5t-20.5 -11.5q-19 -10 -37 -15.5t-35 -5.5q-3 0 -6 0.5t-6 0.5q-18 3 -18 16q0 6 4.5 12
t13.5 8q42 11 96 11h15t15 -1z" />
    <glyph glyph-name="three" unicode="3" horiz-adv-x="318" 
d="M376 385q0 14 -10.5 23t-28.5 11h-7q-16 0 -31 -4t-26 -9q-25 -12 -46 -32q-2 -2 -2 -5q0 -2 3 -2t4 1q11 9 21.5 16t27.5 9q2 0 5 0.5t5 0.5q20 0 31 -10.5t11 -27.5q0 -16 -8 -29q-10 -17 -32 -33.5t-42 -27.5q-23 -12 -49 -25l-44 -22q-2 -1 -2 -4q0 -4 5 -4h2
q22 9 41 9q26 0 40.5 -17t14.5 -48q0 -22 -7 -46q-15 -54 -46.5 -90.5t-73.5 -58.5q-20 -11 -44.5 -17.5t-47.5 -6.5q-20 0 -37 6.5t-27 21.5q-3 3 -5 3t-2 -2t1 -4q11 -23 27.5 -32t36.5 -9q23 0 50 9.5t54 22.5q21 10 43.5 25.5t43 35.5t38.5 43.5t30 49.5q8 17 12.5 33
t4.5 32q0 32 -19 54q-11 12 -24 16t-26 5q-2 0 -2 1q0 2 1 2q44 23 81 52t51 66q4 9 4 18z" />
    <glyph glyph-name="four" unicode="4" horiz-adv-x="450" 
d="M512 162q0 11 -11 13q-9 2 -22.5 2.5t-29.5 1.5q-24 2 -49 2t-51 1q18 33 36 63.5t35 55.5q20 31 38.5 49.5t48.5 36.5q2 1 2 5q0 1 -1 1v1q-1 1 -1 2t-2 1t-3 -1q-38 -23 -63 -45q-9 -8 -19.5 -19.5t-21 -24.5t-20.5 -26t-17 -25q-10 -15 -21 -34t-24 -40h-10
q-34 0 -70 -1t-75 -2h-1q-4 0 -4 3q0 1 3 3q56 34 105 68.5t88 66.5q20 17 34 33.5t21 33.5q2 5 3 10.5t1 11.5q0 13 -5 23q-3 5 -7 5q-2 0 -4 -1q-6 -2 -14.5 -6.5t-15.5 -9.5q-3 -3 -3 -7q0 -3 1 -5q6 -11 6 -25q0 -15 -7 -30.5t-21 -27.5q-37 -32 -90 -68t-110 -68
q-8 -4 -14.5 -6.5t-11.5 -3.5q-11 -2 -23 -2t-27 -2q-5 -1 -9.5 -3t-4.5 -9q0 -4 -0.5 -8.5t-1.5 -10.5v-1q0 -5 5 -5q4 0 7 1q11 4 24 6.5t31 4.5q36 4 85.5 7t101.5 4q-16 -26 -31 -54t-29 -54q-5 -10 -5 -18q0 -12 7 -20q5 -6 8.5 -13t8.5 -14q3 -4 6 -4t3 4v2
q-1 4 -1 11q0 16 8 35q12 29 27.5 61t32.5 64q42 -1 79.5 -5t63.5 -13q9 -3 9 -10q0 -4 -5 -11q-1 -1 -1 -3q0 -3 4 -3q3 0 4 1q13 17 18 35q2 8 2 10z" />
    <glyph glyph-name="five" unicode="5" horiz-adv-x="297" 
d="M471 484q0 14 -6 25q-2 2 -5 2t-3 -2q0 -3 1 -4q5 -10 5 -18q0 -11 -6 -23q-11 -21 -33.5 -34t-52.5 -18q-20 -4 -45 -4q-15 0 -29.5 1.5t-27.5 5.5q-1 0 -2 0.5t-2 0.5q-5 0 -7.5 -2t-3.5 -4q-32 -40 -56.5 -76.5t-32.5 -71.5q0 -2 -0.5 -2.5t-0.5 -2.5q0 -10 11 -19
q3 -3 6.5 -5t6.5 -4q11 -8 21 -14.5t19 -15.5q23 -22 23 -51q0 -19 -11 -43q-13 -26 -33 -51t-43 -44q-26 -22 -58 -35.5t-67 -12.5h-4q-23 0 -35.5 9.5t-12.5 28.5q0 2 0.5 4t0.5 4v2q0 4 -3 4t-3 -5q-1 -3 -1 -9q0 -23 17 -36.5t38 -12.5h4q38 2 68.5 16t60.5 34
q27 18 56.5 45t53.5 69q17 31 17 57q0 31 -24 51q-7 5 -14 9.5t-15 9.5t-16 9.5t-16 12.5q-16 13 -16 30q0 11 10 31q6 11 15 23t16 20q5 5 8 5h2q29 -7 58 -7q42 0 81 16q26 11 47.5 30t33.5 48q5 13 5 24z" />
    <glyph glyph-name="six" unicode="6" horiz-adv-x="334" 
d="M558 406q0 23 -18 35q-16 10 -40 10q-5 0 -11 -0.5t-12 -1.5q-38 -7 -74 -23.5t-76 -43.5q-39 -26 -80 -61t-78 -76q-63 -70 -87 -146q-5 -13 -6.5 -24.5t-1.5 -22.5q0 -28 16 -46q16 -17 48 -17q16 0 33.5 4t34.5 13q35 17 63.5 47.5t45.5 65.5q11 24 11 43q0 23 -15 38
q-9 8 -20.5 11.5t-24.5 3.5q-24 0 -45 -9q-17 -7 -36 -20t-37 -30q12 28 27 51.5t33 47.5q20 27 53 60.5t69 58.5q77 54 147 57h9q30 0 49 -11q15 -10 15 -25q0 -2 -0.5 -2.5t-0.5 -2.5v-1q0 -3 2 -3t4 4q3 7 3 16zM302 173q0 -4 -0.5 -8.5t-1.5 -9.5q-6 -29 -21 -56.5
t-38 -50.5q-26 -25 -48 -37t-39 -12q-37 0 -37 50q0 11 2 24.5t7 29.5q2 8 7 17.5t10 15.5q22 28 49 45t56 23q5 2 9 2h10q35 0 35 -33z" />
    <glyph glyph-name="seven" unicode="7" horiz-adv-x="322" 
d="M474 410q0 5 -7 7h-3q-15 0 -36 -22q-8 -9 -18 -11q-2 0 -3 -0.5t-3 -0.5q-5 0 -10.5 0.5t-10.5 1.5q-33 4 -63 12t-63 12q-3 0 -5.5 0.5t-5.5 0.5q-20 0 -38.5 -9t-32.5 -25q-20 -24 -35.5 -54t-24.5 -62v-1q0 -4 3 -4q4 0 5 4q8 26 17.5 46t20.5 36q19 29 61 29h10
q18 -2 35.5 -4t35.5 -4q10 -2 19 -2h19q28 0 51 6q1 0 1.5 0.5t1.5 0.5t2 -0.5l1 -0.5v-1q0 -1 -1 -2q-35 -37 -76 -79.5t-83 -83.5q-33 -32 -61.5 -63t-51.5 -60q-11 -13 -16.5 -26t-7.5 -25q-1 -4 -1 -11q0 -19 10 -33q3 -4 8 -4q3 0 7 2q5 3 13.5 6t16.5 5q4 1 4 4t-4 5
q-3 1 -5 3.5t-4 5.5q-6 9 -6 22q0 19 12 43q11 22 32 50t50 57q39 39 87 88.5t98 102.5q16 6 29 14.5t24 18.5q2 1 2 5z" />
    <glyph glyph-name="eight" unicode="8" horiz-adv-x="319" 
d="M402 383q0 14 -9 23.5t-29 11.5h-5q-35 0 -68 -23.5t-56 -56.5q-19 -28 -19 -57q0 -14 4 -25t11 -23l-21 -12q-20 -12 -45 -27.5t-47.5 -35t-39 -42.5t-20.5 -48q-1 -4 -1 -8v-6q0 -32 20.5 -49.5t50.5 -17.5q19 0 41 8q44 16 80.5 50.5t56.5 73.5q11 24 11 43
q0 23 -12 44q-2 4 -5 8.5t-6 9.5t-7 9t-8 9l-4 7l26 16t26 17q24 17 43.5 38t27.5 41q4 11 4 22zM369 373q0 -6 -2 -12t-5 -14q-18 -40 -59 -69q-8 -5 -16.5 -11t-17.5 -11q-10 14 -15 22q-9 16 -9 33q0 18 11 35q23 37 62 52q11 4 21 4q14 0 22 -7.5t8 -21.5zM283 127
q0 -26 -16 -48q-20 -29 -51 -49t-57 -20q-29 0 -48 18t-19 47q0 2 0.5 4.5t0.5 5.5q4 32 24 55.5t49 42.5q17 11 34 21.5t35 21.5q2 -3 4.5 -6.5t4.5 -6.5q7 -11 13.5 -20t11.5 -17q14 -24 14 -49z" />
    <glyph glyph-name="nine" unicode="9" horiz-adv-x="315" 
d="M396 362q0 37 -27 50q-14 7 -33 7q-29 0 -69 -19q-37 -17 -65.5 -46.5t-44.5 -60.5q-13 -26 -13 -45q0 -17 9 -29q10 -12 23 -17t28 -5q21 0 45 9q39 14 76 54q-14 -32 -29 -59.5t-32 -51.5q-19 -28 -42 -55t-50 -48t-58.5 -34t-67.5 -13h-5q-17 0 -32.5 5t-27.5 17
q-1 1 -2 1q-3 0 -3 -3q0 -2 1 -3q12 -16 29.5 -23.5t37.5 -7.5h6q4 0 7 1q30 4 55.5 13.5t55.5 29.5q35 23 69 53.5t67 72.5q56 69 82 151q10 30 10 56zM359 370q0 -28 -24 -74q-5 -9 -10.5 -17t-11.5 -15q-40 -46 -91 -55q-5 -1 -15 -1q-19 0 -30 9t-11 26q0 8 3 17
q10 36 33.5 68t51.5 51q21 14 39 21t32 7q34 0 34 -37z" />
    <glyph glyph-name="colon" unicode=":" horiz-adv-x="239" 
d="M209 209q0 12 -13 16q-2 1 -6 1q-8 0 -16 -4.5t-14.5 -11t-10 -15t-3.5 -17.5v-3q0 -8 5.5 -11.5t12.5 -3.5q5 0 7 1q11 5 21 16t15 24q2 6 2 8zM121 44q0 12 -13 16q-2 1 -6 1q-8 0 -16 -4.5t-14.5 -11t-10 -15t-3.5 -17.5v-3q0 -8 5.5 -11.5t12.5 -3.5q5 0 7 1
q11 5 21 16t15 24q2 6 2 8z" />
    <glyph glyph-name="semicolon" unicode=";" horiz-adv-x="231" 
d="M207 210q0 13 -12 16q-2 1 -7 1q-8 0 -16 -4.5t-14 -11t-9.5 -15t-3.5 -17.5v-3q0 -8 5.5 -11.5t12.5 -3.5q5 0 7 1q11 5 21 16t15 24q1 3 1 8zM136 68q0 6 -0.5 12t-1.5 11q-2 9 -7 9q-7 0 -11 -7q-40 -54 -81 -106.5t-85 -102.5q-3 -5 -3 -8q0 -6 5 -6q4 0 8 4
q22 25 41 46t38.5 41t41 41.5l48.5 48.5q7 7 7 17z" />
    <glyph glyph-name="semicolon" unicode="&#x37e;" horiz-adv-x="231" 
d="M207 210q0 13 -12 16q-2 1 -7 1q-8 0 -16 -4.5t-14 -11t-9.5 -15t-3.5 -17.5v-3q0 -8 5.5 -11.5t12.5 -3.5q5 0 7 1q11 5 21 16t15 24q1 3 1 8zM136 68q0 6 -0.5 12t-1.5 11q-2 9 -7 9q-7 0 -11 -7q-40 -54 -81 -106.5t-85 -102.5q-3 -5 -3 -8q0 -6 5 -6q4 0 8 4
q22 25 41 46t38.5 41t41 41.5l48.5 48.5q7 7 7 17z" />
    <glyph glyph-name="less" unicode="&#x3c;" horiz-adv-x="251" 
d="M277 228v2q0 5 -4 5q-2 0 -3 -1q-28 -20 -60.5 -46.5t-62.5 -50.5q-10 -8 -20 -16.5t-18 -13.5q-7 -4 -7 -9v-2q10 -30 18.5 -60.5t14.5 -52.5q2 -8 7 -8q2 0 4 1q4 2 9.5 3t9.5 2q5 0 6 1l0.5 0.5t0.5 1.5l-2 6q-5 12 -10.5 26.5t-10.5 29t-9 28t-7 23.5q-2 8 -2 10
q0 6 9 14q14 11 30 23.5t32.5 25t31.5 24t27 20.5q2 2 5 3.5t5 3.5q4 2 6 7z" />
    <glyph glyph-name="equal" unicode="=" horiz-adv-x="1133" 
d="M1113 314q0 3 -5 3h-32q0 41 -17.5 76t-45 63.5t-62.5 50t-70 35.5q8 6 15.5 8t16.5 2q7 0 13.5 -3t11.5 -6l2 -10l3 1l-1 25q-10 7 -18 7q-19 0 -49 -22q-27 13 -67.5 25.5t-80.5 20.5q-32 6 -69.5 9.5t-85.5 4.5q-61 1 -125.5 -4.5t-125 -20.5t-115 -41t-95.5 -66.5
t-66 -96.5t-26 -131q-2 -66 26.5 -124t81 -104.5t126.5 -80t164 -48.5q-10 -12 -23.5 -25.5t-27.5 -24.5q-38 -33 -77.5 -50t-84.5 -17q-73 0 -95 46q-2 4 -3 8l-3 12q2 -16 4.5 -24t10.5 -17q16 -18 39.5 -27.5t52.5 -9.5q43 0 83.5 21.5t76.5 51.5q13 11 29 27t25 27
q33 -5 66 -7.5t67 -2.5q47 0 96.5 4.5t86.5 12.5q52 11 103.5 31.5t86.5 45.5q27 19 51 46t42 58t28 64.5t10 66.5v11q0 7 -1 16q15 36 16 81h32q5 0 5 2zM1072 312q-1 -7 -1.5 -16.5t-2.5 -16.5q-2 -8 -3 -15t-5 -19q-2 14 -4 21.5t-5 16.5q-3 8 -6 13.5t-8 14.5
q9 0 17.5 0.5t17.5 0.5zM1072 317q-10 0 -19 -0.5t-19 -0.5q-5 5 -7.5 8t-8.5 8l-2 -3l6 -6t6 -7q-15 0 -30 -0.5t-30 -0.5h-19q-16 0 -24 2t-16 7l-7 -5q0 -7 -1 -12q-6 2 -7 2q-11 0 -27.5 -18.5t-27.5 -41.5q-14 -11 -21.5 -15.5t-12.5 -4.5q-9 0 -9 9t13 35q3 5 10 16.5
t15 25.5l-5 4q-2 0 -7.5 -3.5t-7.5 -4.5q-8 -5 -11.5 -8t-9.5 -8l-17 -16q5 8 7 12t8 12q7 10 7 15q0 4 -4 4t-7 -3.5t-8 -14.5q-4 -8 -10.5 -18t-12.5 -17q-5 -5 -9.5 -10t-10.5 -10q-16 -14 -22 -14t-6 7q0 6 9.5 22.5t26.5 39.5q7 10 8.5 11t6.5 9q-8 -2 -12 -2t-12 -1
q-4 0 -7.5 -0.5t-5.5 -0.5h-16q4 8 7 12q14 23 25.5 40.5t22.5 32.5q18 26 33.5 46t32.5 40q7 8 12.5 14t11 11l11 10t14.5 12q30 -12 63.5 -32.5t62 -48.5t48 -63t22.5 -77zM899 301q0 -5 -3 -15.5t-9 -21.5q-8 -15 -17 -25t-14 -10q-7 0 -7 9q0 14 20 42q8 11 15.5 18.5
t11.5 7.5q3 0 3 -5zM1055 239q-5 -13 -8.5 -20t-13.5 -21q-20 -26 -42.5 -43.5t-61.5 -36.5q-47 -22 -94.5 -32t-110.5 -10q-22 0 -39.5 1t-35 4t-35 8t-39.5 13q13 20 25 41t25 42q17 29 35 58.5t35 58.5q2 4 4 7t4 7h19h4q6 0 6 -3t-8 -14l-14 -21q-21 -31 -21 -39
q0 -5 4.5 -9t9.5 -4q13 0 26 10q5 4 9 8t20 19l-7 -14l-9 -17l4 -7l8 12l11 19q8 14 15 21t17 15q2 2 8.5 7t9.5 5q-5 -8 -10.5 -17t-10.5 -17q-8 -14 -11.5 -22.5t-3.5 -16.5q0 -11 16 -11q8 0 14 2.5t16 10.5q2 2 5 4t7 4l-1 -4q-2 -8 -2 -12q0 -8 8 -8q20 0 38 24.5
t30 66.5h15h20q10 0 21 1q17 1 32.5 1.5t32.5 0.5q6 -9 8.5 -15t6.5 -16q4 -11 5.5 -18.5t3.5 -22.5zM1055 223q0 -17 -3 -28t-10 -31q-5 -14 -11.5 -28t-14.5 -27q-18 -32 -46.5 -63.5t-58.5 -54.5q-35 -27 -80 -49t-91 -35q-20 -6 -45 -10.5t-52 -7.5t-54.5 -5t-51.5 -2
q-28 0 -55 2t-54 6q6 7 16 19.5t21 27.5q9 13 18.5 26.5t19.5 28.5q13 20 26 39.5t25 38.5q5 7 8.5 13t7.5 12q14 -5 24 -8.5t18 -6t16 -4.5t18 -5q28 -8 66 -12t67 -4q86 0 161 42q42 25 73 60q14 17 22.5 29.5t19.5 36.5zM544 323q0 -4 -8 -12q-4 -5 -14 -14.5
t-20.5 -19.5t-20 -17.5t-12.5 -7.5t-3 5q0 4 3 8.5t11 13.5l12.5 12.5t12.5 10.5q6 5 11 8l10 6q2 1 10 5.5t8 1.5zM657 274l-26 -46l-26 -46q-20 -37 -43 -77q-17 6 -37.5 14.5t-38.5 16.5q13 25 31 56.5t33 54.5q8 12 18 25t16 21q10 11 20.5 19t15.5 8q2 0 2 -3t-4 -8
q-2 -3 -4.5 -6.5t-5.5 -8.5q-14 -20 -20 -30.5t-6 -18.5q0 -11 11 -11q8 0 27.5 12t36.5 28zM871 540q-17 -14 -25.5 -22t-20.5 -20q-9 -9 -17.5 -18.5t-17.5 -20.5q-11 -14 -30 -38.5t-34 -45.5q-3 -5 -11 -16t-22 -30l-7 -10q-11 -2 -18 -1.5t-18 -4.5l2 -2q6 2 15 2t16 1
q-23 -33 -46 -52q-10 -7 -18 -11.5t-12 -4.5q-6 0 -6 6q0 5 4.5 15t12.5 21l14 20l8 14l-1 9q-6 -3 -13 -5t-13 -5q-4 -2 -7 -3q7 10 12 15q11 15 13.5 20t4.5 13l-1 9q-5 -10 -8.5 -15t-11.5 -16q-12 -16 -20.5 -27t-15.5 -20q-10 -11 -20 -19.5t-26 -18.5q-5 -4 -11 -4
t-6 5q0 2 6 12t14 23q3 4 7 9.5t9 12.5q4 5 7 9.5l5 7.5q5 5 8 9l2 2h-3q-7 0 -12 -7q-3 -4 -8 -9q-6 3 -7 5q-3 3 -3 4h-3h-4q-3 0 -11.5 -0.5t-27.5 -0.5l-44 -1l-56 -2h-15q15 10 23.5 15.5t25.5 19.5q12 9 22 17t18 15q4 3 12 10.5t17 16t16 16.5t9 13l-1 8
q-8 -1 -12 -1q-3 0 -7 -0.5t-11 -1.5t-22 -2q-35 -3 -61.5 -6.5t-43.5 -16.5q-7 -5 -7.5 -12t-0.5 -12q0 -7 2.5 -11t8.5 -10l2 1q-7 7 -7 12q0 15 27 23q23 8 47.5 11.5t45.5 4.5q2 0 10.5 0.5t8.5 -1.5q0 -5 -22.5 -26t-53.5 -45q-15 -12 -25 -19t-28 -20h-15l-52 -2
q-28 -1 -45 -2.5t-35 -5.5l2 -9q17 5 38.5 7t39.5 4q12 1 20 1.5t13 0.5q6 0 11 0.5t13 0.5q-17 -10 -34 -19.5t-35 -17.5l-55 -25q-12 -5 -19.5 -8t-11.5 -5q-1 0 -3 -1t-5 -2q-16 4 -33 4q-23 -1 -39 -5t-16 -10q0 -7 15 -7q38 0 72 14q20 -2 32 -6.5t32 -11.5
q17 -6 40 -16.5t38 -17.5t21.5 -10.5t12.5 -6t14 -6t26 -11.5q20 -9 29.5 -13t13.5 -6t5.5 -3t6.5 -3l-7 -10.5t-11 -18.5l-15 -26q-9 -15 -9 -23q0 -12 25 -18q3 -2 9 -3l1 3q-16 6 -16 15q0 4 3.5 12t16.5 34q4 8 8 15.5t8 15.5q19 -8 37.5 -16t37.5 -16q-4 -6 -7 -12
t-7 -12q-13 -21 -25 -40.5t-25 -38.5q-10 -15 -19.5 -30t-20.5 -30q-8 -11 -16.5 -22t-16.5 -22q-51 8 -104 25.5t-100 43.5q-89 48 -136 114.5t-43 150.5q3 69 27.5 122.5t64 94t90.5 68.5t106.5 45.5t113 26t110.5 8.5h55q25 0 45.5 -1.5t39.5 -4t39 -5.5q38 -6 76 -17
t66 -23zM561 273l-15 -22q-17 -25 -33 -49.5t-32 -49.5l-7 -11q-5 2 -7 3t-6.5 3l-13.5 6t-28 13t-27.5 13t-14.5 7t-12.5 6t-21.5 10q-45 20 -74.5 31t-58.5 16l14 6q8 3 12 5t9.5 4.5t16.5 7t33 14.5q20 9 38.5 20t37.5 22q9 0 15.5 0.5t11.5 0.5q6 0 18.5 0.5t32.5 0.5
q15 0 30.5 0.5t30.5 0.5h14q7 0 18 -1q-14 -8 -21 -11.5t-18 -10.5q-10 -6 -16.5 -10.5t-15.5 -11.5q-26 -19 -26 -35q0 -10 11 -10q10 0 22 11q7 5 13.5 10.5t13.5 11.5l7 5q-8 -13 -10.5 -18t-2.5 -10q0 -9 9 -9q7 0 21 8.5t32 22.5zM192 248q-14 -5 -31.5 -8.5
t-31.5 -3.5q-12 0 -12 4q0 3 7 5t16.5 3t18.5 1.5t13 0.5q8 0 12.5 -0.5t7.5 -1.5zM787 385q-3 3 -7 3q-6 0 -12 -9q-1 -2 -2 -3t-1 -2q0 -7 10 -7q11 0 11 9q0 3 -0.5 2.5t-0.5 1.5t2 5z" />
    <glyph glyph-name="greater" unicode="&#x3e;" horiz-adv-x="225" 
d="M231 114q0 2 -2 6q-8 11 -16 24t-16 27t-15.5 27t-13.5 23q-4 7 -11 7q-4 0 -6 -1t-6.5 -2t-8.5 -2q-5 -2 -5 -4t2 -6q17 -26 32.5 -54t30.5 -49q4 -5 4 -9q0 -5 -7 -11q-29 -27 -63.5 -56t-63.5 -51q-6 -5 -6 -8t3 -4q2 -1 5 -1q5 0 9.5 3t6.5 5q30 32 69.5 66.5
t73.5 60.5q4 3 4 9z" />
    <glyph glyph-name="question" unicode="?" horiz-adv-x="270" 
d="M397 374q0 21 -11 37t-32 24q-17 6 -33 6q-34 0 -68 -21q-13 -8 -25 -18t-21.5 -20t-16 -18t-8.5 -12q-1 -1 -1 -3q0 -3 4 -3q5 0 6 2q10 16 24 31.5t34 26.5q13 8 25 11t23 3q26 0 42 -16.5t16 -43.5q0 -20 -11 -45q-17 -37 -48.5 -63t-68.5 -49q-15 -10 -31.5 -17.5
l-27.5 -12.5q-6 -2 -9.5 -6.5t-4.5 -8.5q0 -2 -0.5 -4.5t-0.5 -4.5q0 -13 4.5 -24t12.5 -19q11 -11 22 -11h2q5 0 9 0.5t9 0.5t9 -0.5t9 -0.5h1q5 0 5 5q0 3 -4 4q-17 4 -26 14.5t-9 24.5q0 17 17 34q9 8 19.5 16t21.5 16t24 16.5t25 17.5q29 21 53.5 47t34.5 54q3 8 4 15
t1 15zM147 24q0 4 -3 7q-8 8 -10 25q-2 7 -7 7q-2 0 -3 -1q-5 -2 -10.5 -5.5t-8.5 -5.5q-13 -10 -16 -26q0 -2 -0.5 -2.5t-0.5 -2.5q0 -5 1.5 -9.5t4.5 -6.5q7 -5 15 -5q3 0 9 2q7 2 14 6.5t12 9.5q3 3 3 7z" />
    <glyph glyph-name="at" unicode="@" horiz-adv-x="582" 
d="M658 335q0 51 -34.5 85t-98.5 40q-7 1 -14 1h-14q-59 0 -113 -20t-107 -55q-48 -31 -93.5 -84t-76.5 -119q-11 -22 -15.5 -43.5t-4.5 -42.5q0 -49 27 -87t79 -55q18 -6 35.5 -8.5t34.5 -2.5q34 0 66.5 9t65.5 25q32 16 54 32t39 33q13 12 20.5 25t9.5 24v2q0 2 -2 4h-1
q-3 0 -3 -4q-2 -8 -7 -14.5t-16 -20.5q-18 -22 -44 -41.5t-57 -32.5q-60 -24 -110 -24q-69 0 -110 40t-41 108q0 34 10 68q19 65 60.5 116.5t86.5 84.5q41 30 85.5 49.5t101.5 23.5q5 0 9 0.5t8 0.5q63 0 101 -31.5t38 -87.5q0 -13 -3 -28q-21 -124 -105 -171
q-16 -9 -30.5 -13t-25.5 -4q-21 0 -33 12t-12 33q0 15 6 32q10 26 22 52.5t24 48.5q10 20 22 28q4 3 4 8q0 4 -3 4q-17 5 -35 5q-23 0 -44 -6q-22 -6 -44 -21t-42 -35.5t-37 -45.5t-29 -51q-13 -29 -13 -47q0 -22 17 -22q11 0 27.5 9t36.5 29q24 23 43.5 44.5t39.5 46.5
q-5 -11 -10 -22.5t-9 -22.5q-10 -26 -10 -48q0 -21 12.5 -32.5t41.5 -11.5q56 0 104.5 34t82.5 91q33 57 33 106zM460 330q-6 -14 -14 -26t-16 -23q-31 -42 -60 -75t-61 -63q-11 -9 -17 -9q-7 0 -7 9q0 8 4 16q19 45 49 86t65 70q10 8 22 12t23 4q8 0 12 -1z" />
    <glyph glyph-name="A" unicode="A" horiz-adv-x="769" 
d="M955 578q0 5 -2.5 11.5t-8.5 12.5q-10 10 -30 10q-12 0 -26 -7.5t-26.5 -18.5t-23.5 -23t-18 -21q-20 3 -37.5 6t-37.5 2q-17 -1 -33.5 -4.5t-27.5 -12.5q-9 -8 -14 -23.5t-7 -30.5q-2 -14 -4 -31t-3.5 -35.5t-3.5 -36.5t-3 -33l-22 -24l-22 -24q-51 -54 -106 -106
t-115 -100q-40 -32 -82 -51t-93 -19q-31 0 -58 8t-47.5 24t-32 39.5t-10.5 53.5q1 29 8.5 49.5t20.5 44.5q2 4 2 5t-2 3h-1q-2 0 -5 -3q-20 -26 -34.5 -65t-14.5 -73q0 -25 8.5 -50t28.5 -43q18 -17 44.5 -24.5t56.5 -7.5q66 0 117.5 28.5t100.5 70.5q15 12 34.5 29.5t37 33
t29.5 27l12 11.5q18 -5 40 -5q23 0 47 2.5t47 4.5q-3 -66 -3 -129q0 -29 3.5 -45t13.5 -22q2 -2 7 -2q7 0 13 6q9 8 26 11.5t27 4.5q6 0 6 6q0 5 -5 5h-2q-4 0 -8 -1t-9 -1q-10 0 -17 8.5t-9 28.5q-2 21 -3 45.5t-1 50.5q0 10 0.5 19t0.5 19q23 3 48 6t52 7q6 1 6 4
q0 4 -7 4h-2q-22 -3 -46.5 -6t-50.5 -6q1 44 4 88.5t8 88.5q34 37 68 78.5t62 77.5q12 -2 23.5 -3t23.5 -1q14 0 29.5 4t28 11t21.5 17t9 22zM921 557q-2 -11 -15 -16.5t-25 -5.5q-13 0 -26 2l-26 4q6 6 13 14t15 15.5t16.5 12.5t17.5 5q14 0 23.5 -9t6.5 -22zM810 530
q-18 -23 -31 -39.5t-25 -31.5t-26.5 -31t-35.5 -39q1 7 2.5 18.5l3 23t3 22.5t2.5 18q2 15 5 27t8.5 20.5t16 13t27.5 4.5q12 0 26 -2t24 -4zM648 327q-3 -34 -5.5 -68t-4.5 -68q-14 -1 -27 -2t-26 0q-26 1 -43 6.5l-17 5.5q45 43 87 87z" />
    <glyph glyph-name="B" unicode="B" horiz-adv-x="906" 
d="M981 40q0 2 -3 2q-2 0 -4 -1q-43 -18 -100 -24q-32 -3 -64 -3t-64.5 2t-61.5 6q-6 0 -6 3q0 2 6 4q40 10 76 29.5t64 45.5t45.5 57t20.5 64q0 2 0.5 5t0.5 5q0 24 -11.5 40t-33.5 27q-14 7 -36.5 9.5t-41.5 2.5h-14t-11 -1h-3q-3 0 -3 1q0 2 4 3q15 5 34.5 15t35.5 23
q34 27 49.5 55t15.5 53q0 38 -34 63.5t-96 25.5h-11q-5 0 -10 -1l-20 -2t-21 -3q18 31 37 61.5t36 56.5q3 4 3 8q0 2 -2 2q-3 0 -5 -1q-3 -2 -7.5 -3t-6.5 -3q-7 -7 -14 -20q-11 -18 -25.5 -44t-29.5 -52l-4 -9q-32 -6 -64.5 -16t-64 -21t-60 -23t-50.5 -24
q-63 -32 -128 -79.5t-119 -95.5q-44 -39 -78.5 -84t-53.5 -87t-19 -75q0 -41 28 -61.5t78 -20.5q18 0 39 3q46 6 85.5 25t75.5 49t69 70t67 89q22 33 47 73t50.5 82t49 83.5t43.5 76.5q4 6 7.5 12t7.5 13q8 2 12 2q5 1 11 1h12q18 0 36 -3t32 -10t24 -17t15 -23q6 -15 6 -32
q0 -23 -9 -44q-11 -26 -32.5 -47.5t-47.5 -34.5q-17 -8 -30 -11q-8 -2 -18.5 -3t-18.5 -2q-5 -1 -9 -3t-4 -6v-1q2 -8 15 -8q2 0 2.5 0.5t2.5 0.5q15 3 26 7q13 4 24 6q8 1 14.5 1.5t12.5 0.5q42 0 61 -18.5t19 -49.5q0 -30 -17 -70q-34 -78 -111 -117q-27 -14 -46.5 -19
t-47.5 -5h-18q-15 1 -33 1h-34h-27q-7 0 -11.5 -0.5t-7.5 -5.5q-8 -12 -11 -21v-3q0 -3 3 -3q1 0 1 1h2q6 2 16 2.5t21 0.5h12q24 0 53 -1t58.5 -2t57.5 -2t52 -1h16q65 1 122 11t96 32q3 1 3 5zM657 529q-18 -30 -43 -71.5t-52 -85t-53.5 -84.5t-45.5 -69q-29 -42 -58 -80
t-58.5 -69t-59 -54t-58.5 -35q-38 -16 -71 -16q-35 0 -56 19.5t-21 55.5q0 15 4 33.5t13 39.5q21 50 52.5 95.5t69.5 85.5q25 27 56.5 54t63.5 49q43 29 92 55t94 42q30 11 64 20.5t67 14.5z" />
    <glyph glyph-name="C" unicode="C" horiz-adv-x="606" 
d="M669 167v2q-1 7 -4 7q-1 0 -6 -8q-12 -25 -25.5 -46t-28.5 -39.5t-33.5 -35t-41.5 -33.5q-45 -33 -104 -62.5t-119 -45.5q-44 -12 -84 -12q-31 0 -57.5 7.5t-45.5 23.5t-29.5 40.5t-10.5 58.5q0 42 15 88.5t37.5 91.5t50.5 86t55 71q21 23 44 46t47.5 44t49.5 38t48 28
l10 4l10 4q-13 -16 -25.5 -31.5t-23.5 -31.5q-32 -43 -59.5 -91.5t-40.5 -92.5q-6 -21 -6 -41q0 -13 2.5 -25t8.5 -21q12 -19 30.5 -27.5t41.5 -8.5q28 0 58 12t58 32q23 17 44.5 41t38.5 51t29.5 57t18.5 59q4 19 4 39q0 96 -109 96h-11q-5 0 -11 -1q-7 -1 -14 -1.5
t-14 -2.5l6 6q28 28 58.5 55.5t62.5 38.5q5 2 10 3t10 1t9 -2q1 -1 4 -1t3 2q0 3 -5 6q-4 2 -9 3.5t-10 2.5h-7q-22 0 -41 -14q-23 -17 -50 -44t-53 -59q-47 -11 -93 -35.5t-84 -53.5q-54 -41 -92.5 -84.5t-70.5 -90.5q-27 -40 -43 -77.5t-25 -78.5q-3 -15 -5 -30t-2 -31
q0 -47 16 -80.5t43.5 -54t65 -29.5t80.5 -8q28 1 56 5t58 14q46 15 92.5 40.5t86.5 58.5q39 32 72.5 72t54.5 83q4 8 4 12zM577 440q0 -4 -0.5 -7.5t-0.5 -7.5q-4 -47 -22 -95t-45 -88q-16 -23 -39.5 -42t-50.5 -29q-18 -7 -37 -7q-27 0 -43 15q-22 21 -22 56q0 23 8 50.5
t20 56.5q20 48 50 97t65 90q10 2 18.5 3.5t16.5 1.5q37 0 59.5 -24t22.5 -70z" />
    <glyph glyph-name="D" unicode="D" horiz-adv-x="752" 
d="M758 621q0 16 -9.5 25t-23.5 9t-27 -10q-15 -12 -28.5 -26.5t-27.5 -30.5t-27.5 -32t-26.5 -30q-11 -13 -24.5 -30t-26.5 -35q-3 2 -5.5 3.5t-5.5 3.5q-18 11 -39.5 22.5t-44.5 22t-47.5 18.5t-47.5 13q-19 4 -37 6t-38 2q-12 0 -24.5 -1t-25.5 -3q-23 -4 -45 -13.5
t-38 -23.5q-19 -16 -32.5 -37.5t-17.5 -41.5q0 -2 -0.5 -2.5t-0.5 -2.5q0 -6 4 -10q3 -3 8.5 -9t11.5 -12q3 -3 5 -3q3 0 3 5q0 8 3 15t7 14q29 53 76 77.5t105 24.5q16 0 32.5 -2t33.5 -5q37 -8 72 -24.5t70 -39.5q5 -3 11 -7q-5 -8 -9.5 -14.5t-9.5 -13.5
q-20 -32 -48 -73.5t-57 -84.5t-57 -82t-50 -65q-34 -40 -65 -57q-24 -13 -53 -16l-3 2q-8 5 -16 5q-6 0 -9 -2l-9 -6h-6q-19 0 -41.5 2.5t-38.5 7.5h-3q-4 0 -4 -2q0 -3 4 -4q18 -6 46 -11q8 -2 15.5 -2.5t15.5 -1.5q-2 -2 -4 -3.5t-4 -3.5q-8 -8 -8 -11t9 -7q22 -10 48 -23
t55 -25q38 -16 80.5 -27.5t85.5 -15.5q11 -1 22 -1.5t22 -0.5q51 0 98 11t95 34q52 24 81.5 65t32.5 96v18q0 93 -62 182q-25 36 -58.5 69.5t-73.5 61.5q12 20 24 38t24 35q13 17 33.5 38t40.5 35q9 7 19.5 10t21.5 3q22 0 35 -14q1 -2 3 -2h2l1.5 0.5t1.5 2.5v1q0 1 -0.5 2
t-0.5 2v5l1 5q0 2 0.5 4t0.5 4zM690 134q0 -31 -5.5 -60t-19.5 -54q-25 -45 -68.5 -64.5t-96.5 -19.5q-8 0 -16.5 0.5t-17.5 1.5q-44 5 -90 18t-84 30q-24 11 -48.5 24t-48.5 27q5 2 9.5 3t9.5 3q29 12 60.5 32.5t59.5 54.5q45 54 87 117.5t84 130.5q9 14 19 30l20 32
q28 -23 53 -52.5t43.5 -63t31 -71t16.5 -76.5q1 -11 1.5 -21.5t0.5 -21.5z" />
    <glyph glyph-name="E" unicode="E" horiz-adv-x="619" 
d="M684 248q0 12 -2.5 22.5t-8.5 15.5l-4 2q-3 0 -3 -2q0 -1 2 -5q9 -14 9 -30q0 -7 -1 -10q-5 -28 -13 -50t-19.5 -42t-27.5 -40t-37 -42q-42 -45 -90 -81t-107 -57q-22 -8 -47.5 -12t-51.5 -4q-30 0 -59 5.5t-52 18.5q-35 19 -56.5 54.5t-22.5 85.5v7q-1 42 15 80.5
t46 69.5q24 24 51 39.5t62 25.5q22 7 46 7q23 0 40 -7q2 -1 6 -1t6 2q3 4 8 7t10 5q4 2 4 4q0 4 -6 4q-7 0 -14 5q-21 16 -29.5 37t-8.5 43q0 14 3 28q3 16 12.5 30t22.5 25.5t28 18.5t29 10q10 2 17 2q25 0 39 -13q6 -5 10.5 -14t5.5 -19v-8q0 -9 -1 -19.5t-3 -19.5v-2
q0 -4 3 -4q2 0 4 5q2 9 9.5 19.5t18.5 18.5q15 10 15 26q0 14 -9 26q-17 23 -55 23h-4q-26 -1 -53.5 -11.5t-50.5 -25.5q-12 -8 -23 -19.5t-21 -25t-17 -28.5t-11 -28q-2 -7 -3 -13.5t-1 -14.5q0 -14 3.5 -26t10.5 -19q4 -4 4 -6q0 -3 -4 -3q-16 -2 -35.5 -7t-36.5 -13
q-18 -8 -38 -19t-35 -22q-35 -25 -63 -60t-42 -72t-14 -74q0 -32 10 -58q14 -38 44 -61.5t70 -32.5q31 -7 69 -7q23 0 46 2.5t45 8.5q47 12 93.5 32t87.5 45q75 47 121 106.5t53 145.5q0 4 0.5 8t0.5 8z" />
    <glyph glyph-name="F" unicode="F" horiz-adv-x="656" 
d="M819 467l1 1.5t-1 3.5t-4 1.5l-2 -0.5q-10 -10 -16.5 -17t-12 -11.5t-11.5 -7t-13 -2.5q-31 0 -65.5 18.5t-71.5 40t-77.5 40t-83.5 18.5q-36 0 -70.5 -17.5t-61 -46t-42.5 -65.5t-16 -76v-9t0.5 -12t2 -10t3.5 -4t4 3.5t2 7.5q-1 10 -1 13v11q0 34 13 64.5t34.5 53.5
t49.5 36.5t59 13.5q18 0 37.5 -5t38 -11.5t35 -14t27.5 -11.5q-28 -66 -56 -128t-60 -126q-18 -1 -30.5 -2t-23.5 -1q-5 -3 -8.5 -6t-5.5 -5l0.5 -2t-0.5 -2l1 1l59 4q-22 -36 -52 -79.5t-66 -81t-77 -63t-85 -25.5q-31 0 -60 8.5t-51.5 23t-36 34.5t-13.5 43q0 21 7 41
t16 38v5q-2 7 -6 1q-16 -28 -24 -53t-8 -58q0 -55 35.5 -87t99.5 -30q54 1 102.5 26.5t91 65.5t79 90.5t65.5 101.5q12 1 19.5 1.5t13 1t9.5 0.5h12q35 0 57 -2.5t22 -16.5q0 -4 -2.5 -10t-0.5 -6q6 -1 10.5 12.5t4.5 22.5q0 8 -5 13t-19 5h-17q-10 0 -24 -2
q-20 -2 -36 -2.5t-36 -2.5q31 61 58.5 121.5t53.5 124.5q15 -9 32.5 -20t35.5 -21t37 -16.5t39 -6.5q24 -1 43.5 16t41.5 48z" />
    <glyph glyph-name="G" unicode="G" horiz-adv-x="656" 
d="M672 42q0 19 -6 33.5t-16 26.5q-3 3 -6 3q-2 0 -2 -2q0 -3 2 -5q9 -8 13.5 -21.5t4.5 -27.5v-8q-2 -20 -11.5 -40t-25.5 -39.5t-35.5 -36.5t-40.5 -30q-29 -18 -68.5 -33t-84.5 -26t-92 -17t-90 -6q-4 0 -4 2q0 3 4 4q26 9 53 27t53.5 40.5t50 48.5t43.5 53
q30 42 59 87.5t50 83.5q10 17 22.5 41t20.5 44q5 11 16 14q4 1 4 4t-5 3h-1q-10 -1 -25 -6.5t-25 -9.5q-5 -2 -12 -7.5t-10 -9.5q-6 -8 -15.5 -15t-20.5 -14q-37 -24 -84 -45t-89 -34q-53 -15 -95 -15h-15t-15 2q-24 4 -38 20t-14 41q0 6 0.5 12.5t1.5 11.5q3 18 11 38
t18.5 40.5t23 39t24.5 33.5q25 31 58 59t68 46q42 22 87.5 35t84.5 13q27 0 55 -4t48 -14q11 -5 18.5 -12.5t9.5 -17.5q2 -8 2.5 -16.5t2.5 -16.5q1 -4 4 -4t3 5v2q-2 15 -3 32t-1 31q0 11 -3 16.5t-11 10.5q-12 9 -33.5 12t-41.5 3q-26 0 -58.5 -6.5t-61.5 -16.5
q-35 -11 -75 -28.5t-72 -37.5q-21 -13 -43.5 -29t-44 -34t-40.5 -37.5t-34 -39.5q-19 -26 -30.5 -55t-11.5 -53q0 -35 22.5 -59.5t70.5 -30.5q5 -1 11 -1h12q27 0 54.5 4.5t51.5 12.5q42 13 91.5 34t91.5 47q2 2 3 2q2 0 2 -2t-1 -3q-12 -29 -26.5 -62.5t-31.5 -67
t-36 -65.5t-39 -58q-31 -39 -65 -69t-75 -43q-26 -8 -48 -8q-20 0 -43.5 -1t-47.5 -2t-47.5 -2.5t-42.5 -2.5q-11 -1 -17 -11t-6 -20q0 -8 9 -8h18q29 0 62.5 2t67 5t66 7t59.5 8q40 6 83 15t84 19.5t78 24t67 28.5q44 23 74.5 57.5t38.5 75.5q3 13 3 26z" />
    <glyph glyph-name="H" unicode="H" horiz-adv-x="732" 
d="M874 503q-7 20 -16.5 27.5t-24.5 7.5q-26 0 -61.5 -23t-72.5 -58q-43 -42 -78 -96.5t-61 -103.5l-179 -17q6 12 18 38t26.5 57t30 64t27 61t18.5 46t4 19q-2 1 -4 0l-2 -1l-2.5 -5l-3.5 -7q-7 -12 -16.5 -25t-21.5 -23.5t-26 -17.5t-30 -7q-22 0 -37 14.5t-15 34.5v5
q0 4 2 9h-4q-14 -14 -19 -24t-5 -22q0 -35 53 -35q24 0 45.5 7.5t44.5 24.5q-44 -107 -97 -213q-1 0 -9.5 -1t-20.5 -2.5t-19 -2.5q-17 -2 -24.5 -7t-16.5 -25q13 5 21 7t23 4q11 2 22.5 4l11.5 2q-22 -38 -45.5 -76t-45.5 -67q-74 -99 -195 -100q-21 0 -41.5 4.5
t-37.5 15.5t-31 30.5t-21 49.5q-2 6 -6 6q-2 0 -2.5 -3.5t-0.5 -5.5q0 -27 11 -52t29 -44t42 -30t50 -11q57 0 109.5 29t106.5 102q26 35 50 77t46 77q46 6 92 12.5t91 15.5q-15 -36 -26 -64t-18 -49.5t-10 -39t-3 -32.5q0 -33 21 -51.5t61 -18.5q12 0 32 4.5t39.5 10.5
t34 12.5t14.5 10.5v3l-3 2q-3 -1 -5.5 -2.5t-5.5 -2.5q-11 -3 -18 -5.5t-14.5 -4.5t-17.5 -3t-27 -2q-29 -2 -45 18.5t-16 53.5q0 40 13.5 90t35.5 99.5t50.5 94.5t57.5 75q26 27 54 47t49 20q17 0 28 -10.5t10 -36.5l3 -2z" />
    <glyph glyph-name="I" unicode="I" horiz-adv-x="385" 
d="M544 525q0 5 -4 5q-2 0 -3 -1q-17 -10 -33 -22.5t-34 -20.5q-39 -17 -82 -17q-18 0 -34 3q-39 8 -39 32q0 16 20 39q2 2 2 6q0 2 -2 2q-4 0 -6 -2q-17 -17 -32 -38q-19 -26 -19 -44q0 -24 41 -25h10q37 0 77 9.5t66 25.5q1 1 2 1q2 0 2 -1t-2 -3q-21 -25 -39.5 -50.5
t-36.5 -53.5q-11 -17 -25.5 -40.5t-30 -49.5t-31.5 -52.5t-29 -50.5q-26 -46 -48 -77.5t-50 -58.5q-38 -36 -80 -36q-22 0 -40.5 11t-29.5 35q-3 6 -6 6q-4 0 -4 -5q0 -2 1 -4q14 -28 37.5 -41.5t52.5 -13.5q41 0 82 23q31 17 56.5 45t45.5 63q14 24 28 51t27 53t24 49
t19 38q15 31 35.5 69.5t42.5 73.5q13 20 30.5 36.5t35.5 24.5q3 1 3 6z" />
    <glyph glyph-name="J" unicode="J" horiz-adv-x="523" 
d="M605 507q0 7 -7 13q-5 4 -12 4t-13 -7q-8 -11 -19 -30t-17 -32q-6 -14 -14 -21q-7 -6 -18 -12t-23.5 -11t-25 -8.5t-22.5 -3.5q-13 0 -21 5q-16 9 -22.5 28t-6.5 42q0 7 0.5 13.5t1.5 13.5q2 10 5.5 20t8.5 16q2 4 2 5q0 2 -2 2q-1 0 -5 -2q-6 -5 -13 -9.5t-13 -9.5
q-4 -3 -7.5 -7.5t-5.5 -11.5q-5 -14 -6.5 -33t-1.5 -31q0 -16 6 -29.5t17 -18.5q15 -5 31 -5q8 0 17.5 1t19.5 3q10 1 24.5 7t28 12t23.5 11.5t12 6.5q1 -1 -9 -21t-25 -49.5t-33.5 -65.5t-35.5 -67.5t-29.5 -55.5t-16.5 -31q-25 -45 -55 -90.5t-56 -75.5
q-33 -39 -68.5 -68.5t-80.5 -46.5q-23 -9 -49 -14t-51 -5q-32 0 -67 9t-62 28q-12 9 -26.5 23.5t-20.5 28.5q-2 5 -4 5q-3 0 -3 -4q0 -3 1 -5q8 -17 26 -35t37 -29q32 -19 74 -28.5t81 -9.5q51 0 100.5 16t90.5 50q45 38 81.5 95.5t64.5 118.5q21 46 42.5 98.5t40.5 94.5
q11 23 27 58.5t32 67.5q3 7 9 12.5t12 9.5q5 3 11.5 9.5t13 14t13 16t10.5 15.5q3 6 3 10z" />
    <glyph glyph-name="K" unicode="K" horiz-adv-x="933" 
d="M1084 496q0 21 -13 41q-10 14 -27.5 20.5t-39.5 6.5q-17 0 -33 -3q-56 -11 -113.5 -39t-114.5 -64q-59 -38 -118 -82.5t-118 -92.5q-7 -6 -13 -11.5t-12 -10.5q13 23 28.5 54t32.5 66.5t35.5 73t38.5 73.5q1 2 1 4q0 6 -5 6t-8 -6q-3 -7 -5.5 -12t-4.5 -10q-11 2 -38 6
t-69 12l-27.5 5.5t-38 7.5t-41 6.5t-37.5 2.5q-37 0 -64.5 -9t-51.5 -33q-17 -17 -25.5 -38t-11.5 -41q-2 -14 -3 -29t-1 -30t1 -33t3 -36t5.5 -35.5t8.5 -30.5q1 -2 2 -7t4 -5q2 0 1.5 2l-2.5 10q-5 23 -6.5 48.5t-1.5 49.5q0 14 2.5 34.5t7.5 41.5t13.5 40t19.5 30
q15 15 37 21.5t45 6.5q40 0 79 -8.5t79 -14.5q21 -3 42 -5t43 -2q-32 -63 -59 -123t-63 -120q-8 -6 -20.5 -17t-22.5 -18q-4 -3 -4 -6q0 -4 4 -4q3 0 4 1q5 3 9.5 7t8.5 6q-23 -33 -44 -61t-42 -52t-43.5 -45t-46.5 -41q-32 -27 -73.5 -45t-80.5 -18q-38 0 -69 14.5
t-42 30.5q-10 14 -22 41t-15 50q-2 6 -4 6q-3 0 -3 -5q1 -10 4.5 -24t9 -27.5t11.5 -26t12 -19.5q23 -29 54 -40t66 -12q28 0 69.5 13t91.5 51q28 21 59 54t59 67t49 63t28 42q7 3 8 -4q3 -19 9.5 -43t15 -50t19.5 -52.5t24 -48.5q26 -45 69 -65t93 -20q38 0 77 11t74 33
q3 2 3 5t-4 3q-2 0 -3 -1q-60 -36 -120 -36q-49 0 -92 27t-69 87q-20 47 -36.5 91.5t-26.5 90.5q0 2 -0.5 3t-0.5 3q0 5 2 7.5t5 4.5q66 52 130 100t118 80q59 35 116.5 55t111.5 25q8 1 15.5 1.5t14.5 0.5q25 0 45 -8q22 -9 22 -31q0 -11 -6 -24q-1 -1 -1 -4q0 -4 3 -4
q2 0 6 7q3 9 5 17t2 16z" />
    <glyph glyph-name="L" unicode="L" horiz-adv-x="937" 
d="M1001 147q0 4 -3 4t-5 -5q-20 -45 -46 -89.5t-51 -74.5q-16 -19 -33.5 -25t-40.5 -4q-27 2 -59 9.5t-65 18.5t-68 24t-71 27q-45 17 -94 33t-97 29q38 37 80 95q10 13 19 26t17 25q13 7 26.5 14t27.5 15q45 25 86 52t72 53q33 29 62 62t39 59q3 9 5 16t2 14q0 20 -13 30
t-33 10q-24 0 -48.5 -12.5t-44.5 -31.5q-25 -23 -51.5 -55.5t-50.5 -69.5q-22 -34 -49 -76.5t-53 -83.5q-36 -19 -73 -38t-63 -35q-33 -20 -61 -47q-23 4 -47.5 6t-47.5 2q-29 0 -62.5 -7t-54.5 -27q-13 -12 -19 -26t-6 -28t6 -26.5t17 -21.5q14 -11 32 -16t38 -5
q16 0 31.5 2.5t30.5 7.5q-4 -17 -6 -33.5t0 -33.5q3 -39 25 -65q1 -1 4.5 0.5t2.5 2.5q0 3 -2 4q-13 11 -18 31.5t-5 42.5q0 21 3 38l2 8l2 8q4 2 7.5 2.5t6.5 2.5q35 15 70.5 36.5t69.5 50.5q37 -13 78.5 -28.5t82 -31.5t77 -31.5t64.5 -28.5q37 -17 83 -31.5t87 -14.5
q17 0 31 5t25 21q43 59 73.5 110.5t54.5 101.5q1 1 1 3zM752 515q0 -23 -16.5 -57.5t-51.5 -70.5q-27 -28 -66.5 -58t-83.5 -54q-10 -5 -20.5 -11t-21.5 -12q18 28 34 53.5t30 49.5q28 47 52 83t41 56q6 7 15 16t19.5 16.5t22 13t21.5 5.5q21 0 24 -24q0 -2 0.5 -3t0.5 -3z
M453 224q-7 -11 -13.5 -20.5t-12.5 -18.5q-35 -52 -70 -89q-15 4 -30 7.5t-29 6.5l-15 3q20 17 43 33.5t45 30.5q18 12 38.5 23.5t43.5 23.5zM335 75l-6 -5q-24 -20 -48.5 -35t-45.5 -23q-17 -7 -38 -12q8 23 21 42t27 35q4 5 9.5 10t10.5 10q15 -5 30.5 -9.5t30.5 -9.5z
M249 101q-14 -14 -24.5 -31t-19.5 -34q-5 -10 -9.5 -18.5t-7.5 -18.5q-9 -2 -17.5 -3t-17.5 -1q-22 0 -41.5 6t-31.5 20q-16 17 -16 38q0 16 8 26.5t20.5 17t27 9t27.5 2.5q43 0 80 -8q5 -2 10.5 -2.5t11.5 -2.5z" />
    <glyph glyph-name="M" unicode="M" horiz-adv-x="989" 
d="M1070 541q0 14 -8 25q-7 11 -22 11q-8 0 -16 -3t-16 -10q-27 -24 -51 -48.5t-53 -56.5q-27 -29 -53.5 -57t-49.5 -54q-25 -28 -58.5 -69t-68.5 -85t-67.5 -87t-54.5 -74q-5 -7 -9 -7q-5 0 -5 9q-2 21 -1.5 43.5t0.5 45.5v61q0 11 -0.5 21t-0.5 20v23q0 8 0.5 15t0.5 15
q15 24 26.5 48t22.5 47q12 28 24.5 65.5t18.5 77.5q1 4 1 11q0 18 -12 31q-4 5 -10 5q-5 0 -9 -5q-8 -11 -19.5 -27t-20.5 -30q-35 -56 -47 -115q-6 -31 -9.5 -71t-5.5 -82l-8 -12q-18 -27 -42.5 -53t-51.5 -51q-19 -17 -43.5 -35t-50.5 -31q-58 -28 -111 -28
q-32 0 -62 11.5t-54 37.5q-14 14 -20.5 35t-6.5 45v6q0 20 9.5 43t20.5 35q2 2 2 5t-2 3q-3 0 -5 -3q-11 -17 -23 -37.5t-20 -38.5q-7 -14 -10 -30t-3 -31v-9t1 -9q3 -19 12 -38.5t23 -32.5q18 -17 42.5 -24.5t52.5 -7.5q36 0 71 12q45 15 82.5 38.5t68.5 49.5q35 29 69 64
t54 64l5 7q-1 -13 -1.5 -25.5t-0.5 -24.5q-1 -38 -1 -85q0 -46 -3 -89q-1 -6 -1.5 -12.5t-2.5 -10.5l-7 -21v-3q0 -4 4 -4q3 0 5 2q11 7 22.5 12t19.5 10q9 5 11 15q2 9 8 19.5t12 20.5q19 31 51 75t67 89t69 86.5t58 68.5q17 20 37.5 42t37.5 39q2 2 4 2q1 0 1 -1v-2
q-24 -39 -47.5 -84t-43 -92.5t-33.5 -94.5t-19 -89q-1 -10 -1.5 -19t-0.5 -18q0 -36 12 -64t42 -40q20 -8 45 -8q26 0 50.5 9t46.5 25q12 8 25 23t21 27q2 4 2 6q0 3 -2 3q-3 0 -5 -4q-16 -28 -46 -48q-14 -9 -29 -14.5t-30 -5.5q-17 0 -35 9q-24 12 -34.5 42t-10.5 69
q0 10 0.5 19.5t1.5 20.5q3 33 10.5 68t17.5 70.5t22.5 69t25.5 62.5q14 32 30.5 61t42.5 61q19 23 42.5 36t52.5 13h8q9 0 12 -6q1 -3 3 -3t5 5q2 8 2 10zM607 490q0 -10 -2 -21.5t-4 -22.5q-4 -19 -14.5 -44.5t-21.5 -49t-19.5 -40l-8.5 -16.5q1 29 3 56t5 51q5 34 12 62
t21 50q4 7 11 7t13 -8q5 -6 5 -24z" />
    <glyph glyph-name="N" unicode="N" horiz-adv-x="759" 
d="M922 546q0 2 -3 5q-8 7 -18.5 14.5t-19.5 12.5q-7 4 -18 6.5t-19 2.5q-38 0 -71.5 -15.5t-59.5 -41.5q-20 -20 -35.5 -44t-27.5 -49q-19 -39 -32.5 -67t-24 -52t-20 -46t-20.5 -49q-6 27 -19.5 62.5t-31.5 71t-40 66t-44 47.5q5 11 9 21t9 20q2 4 -3 7q-7 3 -9 -4
q-4 -10 -8.5 -19.5t-9.5 -19.5q-8 5 -14 9t-15 7q-17 6 -36.5 9t-36.5 3q-35 0 -70.5 -11.5t-58.5 -38.5q-11 -13 -22 -32.5t-16 -34.5q0 -1 -1 -1v-1q0 -6 4 -6q2 0 4 5t5 13.5t6 14.5q7 14 21 26t31 19q14 5 32 8.5t36 3.5q23 0 47 -6q19 -5 35 -10t31 -16
q-14 -36 -32.5 -77.5t-38.5 -80.5q-18 -36 -33.5 -66t-26.5 -50q-21 -40 -46.5 -73t-54.5 -50q-21 -12 -44 -17.5t-47 -5.5q-28 0 -52 8q-28 9 -49 28t-29 41q-4 12 -4 29q0 13 3 21v3q0 6 -4 6q-2 0 -4 -8q-1 -6 -1.5 -11.5t-0.5 -10.5q0 -37 16 -69.5t48 -54.5
q15 -11 35 -17.5t40 -6.5q32 0 60 12.5t51 34.5q24 24 48 58.5t45 72.5q19 34 35 64.5t27 56.5q13 27 32.5 70.5t39.5 86.5q29 -18 52 -44t41 -56t30.5 -62.5t21.5 -64.5q-7 -14 -14 -32t-13 -35q-11 -30 -20 -64t-9 -54q0 -12 6.5 -24t19.5 -12q7 0 15 4.5t13 13.5
q13 22 20 52.5t7 64.5q0 19 -4 45t-9 40q9 21 22.5 51.5t28.5 62t29.5 61.5t26.5 50q17 29 31.5 48t27.5 31q17 16 37.5 27t40.5 17q17 5 33 8.5t33 2.5q13 -1 23.5 -5t20.5 -10q2 -1 3 -2t3 -1q4 0 4 3zM557 120q0 -29 -6 -64.5t-23 -55.5q-5 -6 -12 -6t-9 7.5t-2 15.5
q0 19 7.5 47.5t16.5 57.5q5 15 10.5 32.5t11.5 32.5q4 -18 5 -35.5t1 -31.5z" />
    <glyph glyph-name="O" unicode="O" horiz-adv-x="706" 
d="M924 440q0 8 -8 13q-6 4 -16 4.5t-21 -0.5q-8 0 -12 -1q-23 -2 -50 -7.5t-59 -10.5v1q-1 31 -13 52q-21 42 -55.5 58t-80.5 16h-18q-47 -3 -85.5 -24t-71.5 -57q-11 -11 -16 -23.5t-4 -23.5q2 -29 33 -38q15 -5 34 -6t43 1q26 2 52 6t64 10t74 12q2 -29 -3 -48.5
t-10 -38.5q-4 -14 -13.5 -37.5t-26 -52t-40 -60t-54.5 -60.5q-27 -25 -60.5 -48t-69.5 -41t-74 -30t-75 -15q-32 -3 -61.5 4.5t-52.5 23t-38 38t-18 51.5q-3 28 3 57t17 56.5t26 53.5t29 49q18 29 44.5 58t58 55.5t67 48t71.5 36.5q3 1 3 4v1q-1 2 -3 2h-2q-36 -15 -72 -37
t-69.5 -47.5t-62.5 -52.5t-51 -52q-17 -19 -37.5 -45.5t-38.5 -58t-28.5 -66.5t-7.5 -71q3 -31 19.5 -55.5t43 -41.5t61.5 -25.5t74 -5.5q42 3 85 15.5t83.5 31.5t77.5 44t68 54q72 66 114 124.5t59 115.5q6 20 7 39.5t1 33.5q11 2 21 3.5t21 2.5q20 2 39.5 0t34.5 -4
q8 -2 16 -6t10 -9q1 -4 4 -4q4 0 4 4q1 5 2.5 9.5t8.5 6.5q5 2 5 8zM714 430q-14 -2 -29 -5t-29 -5q-24 -3 -44 -5t-38 -4q-21 -2 -39.5 -0.5t-38.5 8.5q-34 13 -36 41q-1 15 7 30t22 29q15 14 38.5 22t48.5 10q21 2 40 -1.5t35 -12.5q29 -18 44.5 -43.5t18.5 -63.5z" />
    <glyph glyph-name="P" unicode="P" horiz-adv-x="767" 
d="M944 422q0 32 -19.5 54.5t-59.5 25.5q-7 1 -14 1h-13q-34 0 -70.5 -5.5t-75.5 -15.5q14 23 28 44.5t27 38.5q20 27 49 33q18 3 40 3h13h3q4 0 7.5 0.5t6.5 4.5t5.5 8t5.5 9q1 2 1 6q0 5 -7 7q-6 2 -12 3t-12 1q-28 0 -54 -16.5t-46 -42.5q-17 -23 -35.5 -50t-35.5 -53
l-7 -2q-98 -28 -191 -74.5t-167 -106.5q-59 -48 -109 -109t-77 -133q-7 -18 -11 -39t-4 -43q0 -32 10.5 -62.5t33.5 -52.5q23 -21 51.5 -30.5t59.5 -9.5q32 0 65.5 9.5t63.5 28.5q3 1 3 4v2q-2 2 -4 2h-2q-61 -34 -108 -34q-53 0 -84.5 38t-39.5 105q-1 9 -1.5 18t-0.5 17
q0 46 14.5 87t37.5 76t51.5 64.5t56.5 53.5q64 55 134.5 93t147.5 63q31 10 66 18l-10 -15q-26 -38 -49 -78.5t-45 -79.5q-1 0 -1.5 -0.5t-1.5 -0.5q-6 -3 -15 -6.5t-15 -5.5t-6 -7q0 -1 0.5 -1.5t0.5 -1.5q3 -18 10 -29l-4 -8q-12 -25 -25 -48.5t-26 -45.5t-25.5 -41
t-26.5 -34t-31 -21.5t-35 -6.5q-8 0 -13 1h-3q-6 0 -10 -5q-2 -3 -10 -10t-14 -12q-4 -4 -4 -7q0 -5 7 -5h1q27 2 57.5 3.5t60.5 3t57 2t46 0.5q12 0 23 2.5t19 5.5q6 2 13.5 6t12.5 8q3 1 3 4t-3 3h-2q-7 -2 -17 -3t-19 -1q-38 0 -78 1.5t-85 1.5h-1h-1q0 1 3 3
q26 14 49.5 38.5t40.5 53.5q13 21 26.5 44.5t27.5 48.5q20 -20 48 -26q23 -5 45 -5q18 0 37 2.5t37 6.5q33 7 64.5 22.5t59.5 36.5t50.5 47t37.5 54q18 34 18 66zM891 385q0 -22 -7 -42q-13 -41 -49.5 -75t-80.5 -51q-18 -7 -37 -11t-39 -4q-14 0 -28 2.5t-26 8.5
q-20 10 -31.5 24.5t-17.5 31.5q12 22 23.5 43.5t22.5 41.5q14 26 29 54.5t32 56.5q23 5 46.5 7.5t44.5 2.5q14 0 25.5 -1.5t22.5 -3.5q35 -8 52.5 -31t17.5 -54z" />
    <glyph glyph-name="Q" unicode="Q" horiz-adv-x="794" 
d="M1026 -76q0 4 -5 4q-3 0 -4 -3q-7 -15 -24 -32q-32 -30 -89 -30q-35 0 -75 9q-25 5 -60 15t-72.5 21.5t-73.5 23.5t-62 21q-53 18 -111 33q28 16 54 33.5t52 36.5q34 7 70.5 17.5t71.5 23t65.5 27t53.5 29.5q20 13 39.5 29t27.5 27q3 4 3 8q0 2 -1 3h-2q-3 0 -6 -3
q-8 -12 -28 -29t-38 -28q-38 -24 -90 -44t-109 -37q-10 -3 -20 -5.5t-21 -4.5q58 46 115.5 103.5t94.5 124.5q19 35 28 66.5t9 58.5q0 60 -41.5 96t-117.5 36q-20 0 -42 -3q-55 -7 -110.5 -28.5t-102.5 -50.5q-67 -42 -110 -97t-60 -109q-9 -30 -9 -60q0 -35 13 -65.5
t39 -49.5q35 -26 76 -37t88 -11q20 0 40 2t41 5q3 1 6 1t6 1q-10 -8 -19.5 -14t-19.5 -13q-15 -10 -29.5 -19t-29.5 -17q-79 20 -157 32q-36 6 -68 6q-54 0 -92 -16q-13 -5 -21 -16.5t-8 -24.5q0 -14 8 -23q17 -20 45 -27.5t73 -7.5q35 0 80.5 10.5t94.5 33.5q6 3 11.5 6
t11.5 6l18 -6q25 -8 62.5 -21.5t77 -28t76 -28t60.5 -20.5q75 -24 148 -24q10 0 19.5 0.5t18.5 1.5q34 4 61.5 16t42.5 28q8 8 15 17.5t11 17.5q1 1 1 3zM761 402q0 -58 -31 -123q-37 -76 -83.5 -127t-94.5 -88q-21 -4 -42.5 -6t-42.5 -2q-37 0 -71 8t-64 27q-34 22 -48 56
t-14 71q0 8 0.5 16t1.5 16q7 48 32 93.5t56 76.5q49 48 108 76.5t135 39.5q8 1 14.5 1.5t13.5 0.5q63 0 96.5 -38t33.5 -98zM402 -28q-23 -11 -45.5 -19t-48.5 -14q-16 -4 -32 -5.5t-33 -1.5q-32 0 -61.5 6.5t-52.5 20.5q-15 8 -15 22q0 16 21 25q8 4 22.5 6.5t33.5 2.5
q11 0 22 -1t23 -3q29 -5 74.5 -15t91.5 -24z" />
    <glyph glyph-name="R" unicode="R" horiz-adv-x="1050" 
d="M1201 -78q0 4 -5 4q-7 0 -11 -5q-11 -16 -29.5 -35t-42.5 -33q-56 -32 -117 -32q-35 0 -67 11.5t-60 35.5q-44 38 -76.5 97.5t-51.5 134.5q-8 33 -15 73t-9 77q42 5 82 20.5t83 38.5q38 21 66 47t42 53q8 16 8 30q0 25 -19 38q-15 11 -35 14.5t-45 4.5h-6q-23 0 -52 -4
t-55 -12q-35 -9 -69 -21q23 33 42.5 62.5t34.5 55.5q9 15 18 30.5t17 27.5l2 4q0 2 -3 2q-2 0 -4 -1q-11 -6 -21 -18.5t-18 -25.5q-18 -31 -43 -69t-52 -78q-168 -61 -321 -167q-64 -45 -116.5 -99t-78.5 -105q-16 -32 -16 -62q0 -15 5 -28.5t16 -22.5q12 -11 25.5 -15
t28.5 -4q22 0 45.5 7.5t46.5 18.5q33 16 68.5 43.5t71.5 74.5q32 42 70.5 98.5t79.5 118.5q23 35 47.5 70.5t47.5 70.5q17 6 32.5 10.5t31.5 9.5q24 7 44 10.5t39 3.5q22 0 43 -6q44 -12 44 -51q0 -17 -11 -39q-10 -19 -25.5 -36.5t-37.5 -32.5q-33 -23 -72 -38t-81 -20
l-1 10q-1 4 -1 7t-2 4h-2q-3 0 -6 -4q-7 -11 -19 -17l-2 -2q-7 0 -14 0.5t-14 1.5h-1q-6 0 -6 -4t7 -5q6 -1 11.5 -1.5t11.5 -0.5q-2 -8 -2 -12v-14q0 -58 11 -115.5t31.5 -107.5t50.5 -90t68 -62q32 -19 68.5 -28t72.5 -9q38 0 74 9t65 26q26 15 46 33t34 37q3 4 3 7z
M683 438q-20 -30 -40.5 -59t-39.5 -56q-38 -57 -78 -111t-75 -99q-20 -26 -44 -53.5t-46 -47.5q-30 -27 -63 -42t-62 -15q-3 0 -6 0.5t-5 0.5q-40 4 -40 37q0 11 4 22q7 21 18.5 42t34.5 50q35 45 79 92.5t93 87.5q57 47 127.5 85.5t142.5 65.5z" />
    <glyph glyph-name="S" unicode="S" horiz-adv-x="582" 
d="M657 478q0 1 -2 3t-5 4t-5 2q-5 0 -6 -3q-11 -17 -26 -40.5t-26 -40.5l-2 -2q-1 0 -1 1v1q0 5 0.5 8.5t0.5 7.5q0 27 -18.5 39.5t-53.5 12.5q-49 0 -100 -20t-91 -49q-23 -17 -37.5 -37.5t-14.5 -42.5t11 -39t34 -34q30 -23 69.5 -43t72.5 -43q19 -13 30 -31t11 -41
q-1 -34 -17 -61t-42 -48t-58.5 -36.5t-66 -25.5t-65.5 -14.5t-55 -4.5q-26 0 -55 5t-53.5 18t-41 34t-16.5 54q0 19 4 36.5t14 34.5q1 2 1 5q0 4 -3 4q-4 0 -5 -3q-26 -40 -26 -86q0 -38 15 -64t39 -43t55.5 -25t64.5 -8q63 -1 122 15.5t104 48t72 77.5t27 103
q0 23 -9.5 42.5t-23.5 35.5q-18 20 -44.5 39t-53.5 35q-14 8 -27 18t-21 18t-12.5 17.5t-4.5 20.5q0 19 13 40q15 25 41.5 45t56.5 30q15 5 34.5 7.5t33.5 2.5q10 0 22.5 -1t22.5 -5q17 -7 27 -17t9 -25v-2q-1 -17 -5 -27.5t-12 -21.5q-7 -10 -16 -23.5t-14 -24.5
q-3 -5 -3 -11q0 -4 2 -8q9 -12 25 -17q3 -1 7 -1q2 0 2 1v1q-2 4 -2.5 8.5t-0.5 7.5q0 11 2.5 22.5t7.5 23.5q6 17 14.5 32.5t17.5 29.5q10 15 25 35t29 37q2 2 2 6z" />
    <glyph glyph-name="T" unicode="T" horiz-adv-x="635" 
d="M935 568q0 10 -6 18.5t-16 9.5h-8h-22h-8h-2q-5 0 -5 -2q0 -3 4 -7q20 -18 20 -38q0 -14 -8.5 -26t-25.5 -19q-8 -3 -23 -4.5t-34 -1.5q-12 0 -25 0.5t-25 1.5l-35 3l6 11q4 6 8.5 15.5t9.5 20.5t10.5 20t9.5 14q2 2 2 6q0 2 -2 2t-6 -2q-6 -4 -12.5 -12.5t-13.5 -19
t-13.5 -21t-10.5 -18.5l-8 -15q-37 3 -78 5t-78 2h-24t-22 -1q-48 -4 -85.5 -20.5t-68.5 -43.5q-26 -23 -52 -55t-50 -67q-12 -18 -25 -40t-24 -43.5t-19.5 -41.5t-12.5 -34q-2 -10 -2 -14q0 -5 1 -7q4 -10 4 -14v-1q0 -4 2 -4q3 0 5 5q5 14 9.5 29t9.5 33q10 38 26.5 70.5
t39.5 63.5q30 39 63 65.5t72 43t85.5 24t103.5 8.5h20h38q21 0 41 -1q-26 -48 -54 -99.5t-55.5 -100.5t-53.5 -93.5t-49 -80.5q-29 -45 -61.5 -74t-76.5 -52q-23 -12 -49.5 -18t-53.5 -6q-45 0 -86.5 16.5t-64.5 51.5q-16 24 -16 55q0 34 19 68q2 4 2 5q0 3 -3 3t-5 -3
q-31 -50 -31 -103q0 -31 12.5 -58.5t40.5 -44.5q20 -12 43 -17.5t47 -5.5q47 0 96 18t92 48q55 38 105.5 109t106.5 165q27 45 56 102t60 115q13 0 24 -0.5t21 -0.5q26 0 48 4.5t42 12.5q13 4 27.5 12t28.5 17.5t25.5 20t17.5 19.5q5 8 5 17z" />
    <glyph glyph-name="U" unicode="U" horiz-adv-x="997" 
d="M1022 84q0 3 -3 3t-5 -3q-27 -42 -59 -78.5t-70 -60.5q-28 -18 -48 -18q-21 0 -30.5 17t-9.5 43v8q2 47 14.5 101t29.5 108q21 22 41.5 45.5t39 46t34.5 42.5t27 37t18 37.5t7 43.5q0 31 -14 62q-4 10 -13 10q-7 0 -11 -7q-9 -16 -19.5 -34.5t-18.5 -35.5q-8 -18 -19 -37
t-21 -36q-12 -20 -24 -43.5t-23.5 -47.5t-22 -48t-18.5 -44q-3 -7 -5.5 -13.5t-5.5 -13.5l-6 -6q-17 -17 -40.5 -39.5t-53 -45t-64.5 -42t-75 -30.5q-21 -6 -40 -6q-33 0 -57.5 16t-32.5 47q-5 20 -5 35q0 20 6.5 42t18.5 49q33 73 83.5 131.5t112.5 114.5q10 9 19 18t19 17
q19 16 37 28q4 4 4 6q0 6 -5 6q-3 0 -5 -1q-4 -3 -8 -6.5t-9 -8.5t-13 -5h-5q-10 2 -30.5 3t-47.5 1h-27q-13 0 -28 -1q-36 -2 -73 -7.5t-72 -15t-66.5 -22.5t-56.5 -29q-34 -22 -63 -50.5t-49 -65.5q-13 -23 -13 -46q0 -30 19 -49q4 -4 11 -4q4 0 6 1q6 2 12.5 4t12.5 2
q7 0 7 4t-6 10q-7 5 -13.5 19.5t-6.5 34.5q0 9 1.5 19t6.5 21q13 30 31 50.5t40 34t47 21t52 12.5q17 3 42 5.5t53 5t55 4t49 1.5h6q16 0 32 -1t27 -3q4 -1 4 -2t-3 -4q-65 -60 -121 -123t-103 -143q-20 -33 -28.5 -62t-8.5 -52q0 -43 26.5 -66.5t73.5 -23.5q53 0 124 33
q49 23 94.5 58.5t78.5 67.5l17 17q-11 -32 -20.5 -68.5t-14.5 -74.5q-1 -6 -1.5 -11.5t-0.5 -10.5q0 -35 16.5 -54.5t45.5 -19.5q35 0 79 29q34 23 68.5 60t62.5 82q1 2 1 5zM972 414q0 -17 -5.5 -34t-19.5 -35q-20 -28 -46.5 -59.5t-53.5 -60.5q4 11 7.5 21.5t7.5 20.5
q23 64 46 113.5t43 82.5q1 3 4 3q2 0 4 -3q13 -24 13 -49z" />
    <glyph glyph-name="V" unicode="V" horiz-adv-x="710" 
d="M970 455q0 3 -4 3h-3q-5 -2 -10.5 -3t-15.5 -2q-36 -3 -77 -6t-79 -5q-6 21 -15 35q-23 36 -70 44q-6 1 -12 1.5t-12 0.5q-19 0 -38 -3.5t-36 -9.5q-19 -7 -41.5 -19t-38.5 -25q-18 -15 -18 -29q0 -17 26 -23q18 -4 42.5 -5.5t50.5 -1.5h29q23 1 57 3.5t73 5.5v-5
q0 -14 -5 -31q-11 -35 -33 -71.5t-50 -68.5q-29 -33 -63 -63.5t-77 -56.5q-18 -11 -39.5 -22.5t-42 -21.5t-39 -18t-30.5 -13q-20 -8 -43 -18.5t-39 -20.5q-1 -1 -3 -1h-1v1q0 -1 2 3q37 53 59.5 104.5t39.5 115.5q11 41 11 81q0 21 -3 41.5t-10 39.5q-15 43 -46 65.5
t-76 26.5q-4 0 -8 0.5t-8 0.5q-42 0 -83 -16t-70 -42q-38 -32 -57 -59.5t-33 -52.5q-8 -14 -12.5 -33t-5.5 -34v-1q0 -4 2 -4t4 5q3 15 8.5 32t12.5 31q12 25 30.5 50.5t40.5 44.5q23 20 53.5 31.5t65.5 11.5q5 0 8.5 -0.5t8.5 -0.5q22 -2 43.5 -11.5t39.5 -24t31.5 -32.5
t20.5 -37q8 -21 11 -42t3 -43q0 -49 -15 -98q-11 -35 -26 -66t-34 -61q-12 -18 -24 -30q-2 -2 -4 -4.5t-5 -4.5q-8 -7 -16.5 -13t-15.5 -14q-4 -4 -4 -12q0 -5 2 -7q3 -3 8 -7.5t8 -7.5q2 -2 5 -2q4 0 6 6q5 16 21.5 34.5t42.5 35.5q13 8 28 16t32 16t34 15.5t34 15.5
q22 10 46.5 22.5t49 26.5t47.5 29t43 30q48 37 79 78.5t43 83.5q8 29 8 52q0 7 -0.5 13t-1.5 12q37 3 74.5 6t72.5 5q9 0 10 7q2 5 7.5 10t13.5 7q5 2 5 4zM773 441q-18 -1 -35 -1.5t-31 -0.5h-37q-20 0 -40.5 0.5t-38.5 2.5q-24 3 -40 11q-9 5 -9 11q0 7 11 15q8 6 20 11.5
t27 9.5q22 6 50 6q23 0 46.5 -5t40.5 -15q26 -16 36 -45z" />
    <glyph glyph-name="W" unicode="W" horiz-adv-x="937" 
d="M1040 414q0 26 -6 49q-4 13 -13 25q-6 7 -17 16.5t-23 18t-25 15.5t-23 9h-3q-4 0 -4 -2q0 -3 5 -5q32 -13 47.5 -39t15.5 -75q0 -72 -17.5 -142t-56.5 -133q-16 -25 -37 -50t-45 -47.5t-50 -41.5t-51 -34q-13 -8 -29.5 -14.5t-34.5 -11.5t-35.5 -8t-33.5 -3h-8
q-42 2 -65.5 22.5t-30.5 64.5q-1 7 -1.5 14t-0.5 15q0 35 10 73.5t26 77.5q18 47 47 91t60 77q10 11 22 18t19 11q11 5 22.5 10.5t19.5 9.5q10 4 13 12q2 6 2 7q0 7 -7 14q-4 2 -6 2q-9 0 -20 -11q-29 -26 -67.5 -54t-73.5 -56q-60 -47 -122 -101t-122 -113q-3 -3 -5 -3
t-2 1t2 5q18 29 41.5 70.5t47 86.5t44.5 89.5t35 79.5q1 3 2 5.5t1 4.5q0 11 -11 11q-2 0 -3 -0.5t-3 -0.5q-26 -5 -57.5 -14.5t-66.5 -21.5q-45 -16 -84 -41t-68 -57q-39 -44 -44 -97v-9q0 -16 4.5 -29.5t11.5 -22.5q7 -8 17 -8q11 0 23 6q4 1 4 6q0 3 -3 6q-6 6 -11 18.5
t-7 26.5q-1 5 -1 11v11q0 38 17 68.5t52 56.5q28 21 67 37t73 21q3 1 8 1q17 0 17 -17v-3q0 -15 -5.5 -35.5t-11.5 -36.5q-17 -48 -41 -101t-56 -107q-13 -21 -24.5 -38.5t-23.5 -32.5q-3 -4 -7 -8l-8 -8l-17 -17q-8 -8 -16 -15.5t-13 -15.5q-7 -11 -7 -15q0 -7 9 -13
q5 -4 11 -4q5 0 7 2q11 8 24.5 26t24.5 35q18 28 35.5 49.5t43.5 47.5q60 60 131.5 121t143.5 115q3 3 4 3l1 -1q0 1 -2 -3q-32 -35 -64 -81.5t-58 -94.5q-21 -39 -36 -81t-15 -82q0 -7 0.5 -13t1.5 -13q7 -43 36.5 -65t72.5 -22q21 0 45 4t48 11.5t46 16.5t39 20
q54 32 104 77.5t85 93.5q38 52 63.5 103t39.5 112q7 27 7 57z" />
    <glyph glyph-name="X" unicode="X" horiz-adv-x="745" 
d="M861 420q0 9 -2 16.5t-4 14.5q-3 8 -9 8q-4 0 -8 -2q-30 -12 -60.5 -27.5t-58.5 -30.5q-60 -32 -115 -64l-110 -64q8 27 15.5 54.5t13.5 56.5q4 17 4 35q0 39 -19.5 61t-55.5 22q-14 0 -29 -3q-29 -6 -52.5 -19t-43 -30.5t-36.5 -37t-32 -39.5q-10 -13 -18.5 -30
t-10.5 -25q0 -1 -1 -1v0q0 -4 4 -4q3 0 4 2q8 13 17.5 28.5t21.5 32.5q15 22 33.5 44t44.5 39q37 25 68 25q29 0 46 -22t17 -64q0 -18 -3 -39q-5 -26 -11.5 -52.5t-14.5 -55.5q-32 -19 -64 -37.5t-64 -37.5q-88 -51 -157.5 -106.5t-115.5 -111.5q-17 -21 -28 -46.5
t-11 -48.5q0 -26 13 -43q13 -18 27.5 -26.5t35.5 -11.5h2q5 0 5 3t-5 4q-26 5 -38 21.5t-12 39.5q0 26 12.5 56.5t34.5 60.5q31 42 93.5 97t147.5 105q30 17 60.5 35t60.5 35q-8 -30 -17.5 -61t-19.5 -61q-12 -36 -12 -62q0 -69 67 -69q24 0 56 10t70 30q26 14 61.5 42.5
t69.5 64.5q2 2 2 4q0 4 -4 4q-3 0 -4 -2q-34 -35 -63.5 -60t-63.5 -43q-47 -25 -83 -25q-31 0 -48 19t-17 54q0 19 4 38q8 35 18 69.5t21 68.5q68 38 134.5 72.5t131.5 63.5q43 20 70 20q6 0 14 -2q3 -1 7 -2t5 -5q2 -4 3 -4q4 0 4 5q1 4 1.5 7t0.5 7z" />
    <glyph glyph-name="Y" unicode="Y" horiz-adv-x="635" 
d="M831 547q0 16 -15 16q-12 0 -27 -12q-19 -14 -40.5 -34.5t-42.5 -43.5q-14 -15 -31.5 -35.5t-36 -44t-37.5 -48.5t-35 -48q-23 -32 -47.5 -68t-51.5 -79q-36 -22 -58 -22q-49 0 -49 106q0 42 2.5 87.5t4.5 84.5v17q0 47 -16 72.5t-49 25.5q-19 0 -43 -9q-26 -10 -48 -24
t-40 -28q-20 -17 -45 -39t-42 -42q-2 -2 -2 -5t3 -3t6 3q18 19 43.5 42.5t51.5 42.5q38 28 69 28q52 0 66 -78q5 -25 6.5 -55.5t1.5 -62.5q0 -23 -0.5 -44.5t-2.5 -39.5q-1 -6 -1 -12v-11q0 -82 50 -82q31 0 81 30q-7 -11 -13.5 -22t-13.5 -22q-10 -15 -23 -36.5t-27 -46.5
t-27.5 -50.5t-22.5 -49.5q-13 -35 -13 -67q0 -39 20.5 -66t59.5 -35q11 -2 22.5 -2.5t22.5 -0.5q35 0 68 5.5t62 13.5q30 8 55 12.5t44 4.5q6 0 11 -0.5t10 -1.5q27 -6 27 -21q0 -13 -17 -28q-16 -15 -26 -17q-9 -2 -9 -5v-1q1 0 1 -1q3 -5 8 -5q4 0 6 1q6 3 12 9t18 15
q10 8 21.5 19.5t19.5 25.5q5 7 5 18q0 17 -20 22q-10 2 -17 2q-17 0 -35 -4.5t-38 -10.5q-13 -4 -30 -9.5t-37 -10.5t-41.5 -9.5t-44.5 -5.5h-8q-52 0 -88.5 30t-39.5 82q0 4 -0.5 8t-0.5 8q0 32 9.5 62.5t31.5 70.5q14 26 34.5 61t43.5 70q40 26 79 59.5t72 68.5
q28 29 59.5 65.5t56.5 68.5t45.5 60.5t33.5 51.5q9 18 9 29zM779 512q0 -8 -6.5 -22t-13.5 -25q-55 -92 -118.5 -162.5t-132.5 -124.5q-5 -4 -10 -7.5t-10 -7.5l22 34t21 31q39 57 81 112.5t77 97.5q23 28 41 46t38 35q4 3 6 3q5 0 5 -10z" />
    <glyph glyph-name="Z" unicode="Z" horiz-adv-x="970" 
d="M964 62q3 34 -11 70q-1 4 -5 4q-5 0 -5 -5q0 -2 1 -3q15 -32 12 -64q-2 -40 -31 -71t-80 -40q-15 -3 -36 -3q-8 -1 -16.5 -0.5t-17.5 1.5q-63 4 -123 19t-120 32.5t-120.5 32.5t-122.5 20q-9 0 -13 1h-1q-3 0 -3 1t3 4q57 38 113.5 78.5t107.5 79.5h1q17 -2 36 0
q20 2 50.5 4t59.5 1q3 -1 11 -1q14 -2 27 -4.5t26 -3.5h2q6 0 6 4q2 3 -4 5q-13 2 -28.5 4t-32.5 4q-6 1 -11.5 0.5t-12.5 0.5q-19 0 -38.5 0.5t-36.5 2.5q-8 1 -15 1.5t-14 1.5q28 21 53 41t47 38q32 26 69 60t69 63q3 3 3 6q2 2 -3 4q-23 7 -63.5 17.5t-83.5 18.5
q-32 6 -63 9.5t-63 3.5q-35 1 -67 -4t-61 -17q-27 -11 -48 -30t-28 -43v-1q0 -4 3 -4q2 0 4 1t2 3q5 20 26.5 40t52.5 27q11 2 22 3.5t23 1.5q9 1 18.5 0.5t19.5 -1.5q12 -1 24.5 -2t25.5 -3q51 -8 103.5 -19.5t100.5 -31.5q5 -2 5 -5t-3 -6q-45 -43 -96 -85t-105 -83
q-13 2 -24 4.5t-14 6.5q-4 2 -5 2q-3 0 -4 -4q-1 -2 -3 -8q0 -1 2 -7q3 -10 14 -13q2 -1 8 -1q-56 -42 -111.5 -81t-108.5 -75q-6 -4 -12 -6t-11 -3q-5 0 -12 -0.5t-15 -1.5t-13.5 -4t-9.5 -7q-14 -12 -27 -24t-28 -23q-2 -2 -3 -4l-1 -2l0.5 -1.5t2.5 -2.5q1 0 1.5 0.5
t1.5 0.5q5 2 13 5t13 6q17 15 35.5 21t39.5 6q20 0 40 -3l40 -6q54 -9 108.5 -27.5t108.5 -36.5t107.5 -31.5t107.5 -13.5q41 0 77 9q31 8 59 23.5t48 43.5q27 33 30 79z" />
    <glyph glyph-name="bracketleft" unicode="[" horiz-adv-x="338" 
d="M454 498q0 4 -6 4h-1q-16 0 -36 -1t-40 -1q-14 0 -28.5 1t-28.5 1q-7 0 -7 -8q0 -2 -0.5 -5t-2.5 -8q-54 -109 -121.5 -233t-153.5 -273q-3 -6 -8 -13t-9 -11q-2 -2 -2 -5q0 -5 7 -5q22 0 43.5 0.5t43.5 0.5q20 0 39.5 -0.5t39.5 -0.5q2 0 5 1t3 4q0 6 -8 6
q-16 -1 -31 -1h-31h-32q-14 0 -14 10q0 4 3 10q36 70 68.5 133.5t65.5 125t67.5 123.5t73.5 130q6 9 15 10q11 1 22 1h23h35q2 0 4 1t2 3z" />
    <glyph glyph-name="backslash" unicode="\" horiz-adv-x="368" 
d="M414 -157q0 3 -9 34.5t-24 81.5t-34.5 112.5t-39.5 127.5t-39 127t-34 110.5t-24.5 78.5l-9.5 30q-7 10 -12 10q-8 0 -8 -7q0 -1 12 -40t30.5 -101t42 -137.5t46 -149.5t42 -137t30.5 -100t12 -39q5 -8 12 -8t7 7z" />
    <glyph glyph-name="bracketright" unicode="]" horiz-adv-x="352" 
d="M527 497q0 3 -3 4t-5 1q-38 0 -64 -1t-54 -1h-28q-2 0 -5 -1t-3 -4q0 -5 8 -5q17 1 34.5 2t34.5 1h12q14 0 14 -10q0 -4 -3 -10q-36 -71 -68.5 -133.5t-65 -123.5t-67 -123t-73.5 -130q-6 -9 -15 -10q-11 -1 -24 -1h-27h-39q-6 0 -6 -6q0 -5 6 -5q16 0 39 1t46 1
q17 0 33 -1t29 -1q7 0 7 8q0 2 0.5 5t2.5 8q54 110 119.5 236.5t145.5 269.5q3 6 7.5 13t8.5 11q3 3 3 5z" />
    <glyph glyph-name="asciicircum" unicode="^" horiz-adv-x="400" 
d="M196 265l84 165l83 -165h31l-102 201h-25l-101 -201h30z" />
    <glyph glyph-name="underscore" unicode="_" horiz-adv-x="500" 
d="M500 -50v50h-500v-50h500z" />
    <glyph glyph-name="grave" unicode="`" 
d="M147 258v2q-4 15 -9 29t-10 27q-10 23 -23 57q-1 4 -4 4q-2 0 -5 -3q-5 -6 -5 -12q0 -5 3 -11q10 -20 23 -45t26 -48q1 -2 3 -2q1 0 1 2z" />
    <glyph glyph-name="a" unicode="a" horiz-adv-x="269" 
d="M367 122q3 4 0 6.5t-6 -2.5q-12 -18 -28 -36.5t-33 -35t-35 -30t-34 -20.5q-31 -14 -44.5 -2t-6.5 46q9 45 27 87t50 92q3 4 0 10l-2 4q-1 2 -2 4.5t-1 6.5q0 6 -5 6q-4 0 -7 -4q-17 -23 -31 -53q-17 0 -34 -8t-32 -19q-29 -20 -59 -50.5t-50 -66.5q-16 -30 -4.5 -43.5
t40.5 4.5q29 17 56.5 48.5t53.5 66.5q-19 -40 -29 -71q-20 -64 -3.5 -83.5t76.5 11.5q38 20 77 57.5t66 74.5zM204 191q-23 -45 -51.5 -80.5t-56.5 -61.5q-15 -14 -22 -9.5t0 24.5q4 13 12.5 27t18 27t19 24t17.5 18q16 14 32.5 22.5t30.5 8.5z" />
    <glyph glyph-name="b" unicode="b" horiz-adv-x="246" 
d="M542 617q-3 11 -10 15.5t-15 4.5q-13 0 -26.5 -7.5t-24.5 -15.5q-19 -14 -41.5 -35t-38.5 -38q-21 -23 -42.5 -48.5t-42.5 -51t-39.5 -50.5t-33.5 -46q-29 -41 -56.5 -83t-50.5 -80q-5 -9 -9.5 -15.5t-9.5 -14.5q-18 -32 -35 -69.5t-23 -68.5q-5 -22 8 -32q12 -9 32 -1
q22 10 43.5 24.5t35.5 31.5q11 11 19.5 22.5t12.5 21.5q2 4 6 4t9 -8q4 -8 17.5 -7t27.5 6q32 13 62.5 34t52.5 45q4 5 1.5 7t-7.5 -3q-20 -22 -41 -37t-44 -26q-14 -6 -28 -2.5t-19 17.5q-6 15 -8.5 39t-1.5 47q0 7 -3 11t-7 1q-2 -2 -8 -2.5t-10 0.5q-5 1 -7.5 -3t-2.5 -9
q0 -17 2 -35.5t5 -31.5q2 -6 -0.5 -14t-4.5 -16q-2 -7 -7 -18t-10 -19q-10 -16 -24.5 -30t-28.5 -22q-7 -3 -13 -2.5t-8 6.5q-4 11 -1.5 29t7.5 32q4 10 9.5 24t12 28.5t13.5 28t13 24.5q2 4 3.5 6t5.5 4l4 2q20 10 40.5 25.5t41 33t39.5 36t37 33.5q18 16 41 37t46 43.5
t45 44t38 37.5q17 17 30.5 35.5t18.5 31.5q7 17 8 33.5t-5 35.5zM503 566q1 -26 -10.5 -49t-32.5 -47q-23 -27 -58 -61.5t-75 -71t-80.5 -70.5t-75.5 -59q-2 -2 -4.5 -1.5t-0.5 3.5q22 43 48.5 86.5t54 84t55.5 76.5t53 63q20 21 40.5 41.5t39.5 30.5q44 24 46 -26z" />
    <glyph glyph-name="c" unicode="c" horiz-adv-x="239" 
d="M265 82q0 2 -2 2t-4 -2q-15 -14 -40 -32t-45 -30q-36 -21 -60 -21q-30 0 -30 32q0 20 11 48q15 36 32.5 62t37.5 40q14 10 26 10q10 0 16.5 -6.5t11.5 -16.5q4 -8 8 -8q5 0 9 7t6 12q3 6 3 10q0 6 -6 14t-16 8q-3 0 -7 -2q-27 -9 -48.5 -17.5t-40 -22.5t-34.5 -34.5
t-31 -53.5q-13 -26 -13 -49t13 -35.5t36 -12.5q27 0 65 21q32 18 58 37.5t41 33.5q3 3 3 6z" />
    <glyph glyph-name="d" unicode="d" horiz-adv-x="276" 
d="M614 695q-30 0 -59 -15.5t-55 -42.5q-23 -25 -49.5 -59.5t-57.5 -85.5t-70.5 -123.5t-83.5 -155.5q-6 8 -14 10t-16 0q-15 -2 -32 -8.5t-30 -17.5q-14 -12 -28 -29t-26.5 -36t-22.5 -37.5t-16 -33.5q-22 -54 -7.5 -70t59.5 20q14 12 27 26l26 28q-13 -24 -23.5 -47
t-16.5 -39q-14 -35 -6.5 -43t44.5 12q25 13 52.5 32t55 41t54 46t48.5 47q5 6 2.5 9t-7.5 -2q-42 -46 -82.5 -80t-78.5 -55q-33 -19 -40.5 -13t8.5 41q36 79 77.5 158.5t84 153.5t84 140t78.5 119q23 34 42 55t33 35q9 9 22 11t22 -1q4 -2 5.5 4t-3.5 6zM213 161
q-18 -34 -45 -70t-62 -69q-19 -18 -25.5 -13.5t0.5 24.5q6 20 15.5 42.5t21.5 44.5t26 42.5t29 36.5q10 10 21 9q14 -2 21 -16t-2 -31z" />
    <glyph glyph-name="e" unicode="e" horiz-adv-x="228" 
d="M314 105q2 4 1 7.5t-5 -1.5q-25 -37 -56.5 -61.5t-62 -36.5t-56.5 -12.5t-41 10.5q-23 15 -15 48q38 23 75.5 50.5t59.5 60.5q9 14 9 24t-7.5 14.5t-20.5 3t-29 -9.5q-29 -15 -58 -44.5t-47 -58.5t-22 -53t5 -40t30.5 -22t54.5 1q21 4 46 13t50.5 23.5t48.5 35t40 48.5z
M195 176q-19 -32 -48 -58.5t-67 -47.5q5 18 14.5 37t22 36t26.5 30.5t28 22.5q18 11 26.5 4.5t-2.5 -24.5z" />
    <glyph glyph-name="f" unicode="f" horiz-adv-x="194" 
d="M485 484q0 11 -10 18q-14 9 -32 9h-6q-16 -1 -32.5 -7.5t-31.5 -15.5q-54 -32 -98.5 -79.5t-85.5 -107.5q-15 -23 -30 -47.5t-31 -51.5q-23 -1 -46 -1.5t-47 -0.5q-5 0 -5 -3q0 -2 4 -4q14 -7 27 -7q2 0 3 0.5t3 0.5q14 2 27.5 3t27.5 2q-34 -60 -68.5 -125.5
t-70.5 -131.5q-18 -33 -35.5 -63.5t-34.5 -59.5q-34 -56 -76 -101q-44 -45 -79 -44h-3q-44 2 -70 63q-20 46 -20 92v14q1 12 4.5 24t11.5 21q2 2 3.5 3t2.5 2q2 2 2 4q0 3 -3 3q-1 0 -3 -2q-8 -8 -13 -14t-9 -11t-7 -10.5t-7 -11.5q-7 -11 -9.5 -17t-3.5 -16v-9q0 -16 4 -40
t15 -49q14 -31 34.5 -45.5t45.5 -16.5h5q32 0 66.5 20t66.5 56q39 44 76 95t76 117q38 64 72 127.5t69 127.5q30 2 58.5 2.5t59.5 0.5q5 0 8 3t3 5q0 6 -10 6l-2 -1q-30 -2 -57.5 -4t-54.5 -3l38 68t40 68q24 39 48 69t54 52q31 22 62 22h2q25 0 42 -18q4 -6 4 -9
q0 -8 -9 -19q-1 -1 -1 -3q0 -4 3 -4q2 0 4 3q2 4 6 8.5t6 7.5q8 8 12.5 18t4.5 18z" />
    <glyph glyph-name="g" unicode="g" horiz-adv-x="260" 
d="M368 135q4 8 0.5 9.5t-6.5 -4.5q-22 -39 -70 -71t-104 -52q-14 -5 -26.5 -9t-25.5 -9q28 50 57 99.5t47 78.5q5 8 10 15t10 15q4 -1 10 -3q9 -5 15 -11.5t4 -14.5q-3 -5 1 -5q1 0 6 5t8 12t2 14t-12 12q-10 4 -24 6l6 9q9 14 17.5 27t14.5 24q7 15 -1 26t-12 8
q-4 -2 0 -6q1 -2 0 -5t-1 -5q-2 -5 -5 -9t-5 -9l-34 -61q-8 -1 -15.5 -1.5t-14.5 -2.5q-30 -6 -60.5 -25t-53.5 -44q-23 -23 -42 -53.5t-28 -56.5q-5 -15 -2 -27.5t14 -15.5q24 -7 54 15q6 5 14 12t16 15t15.5 17t15.5 17q1 2 1.5 1.5t-0.5 -2.5q-11 -17 -23 -37l-24 -40
q-59 -18 -119 -34.5t-123 -35.5q-35 -10 -74.5 -23t-78.5 -28t-75 -30.5t-64 -31.5q-14 -8 -19 -15t-8 -18q-8 -26 -13 -60t0 -82q5 -64 36 -98.5t93 -32.5q37 2 68.5 10.5t60.5 23.5t57 39.5t57 61.5q26 34 56 78.5t57 89.5q23 39 44.5 78.5t42.5 76.5l15 26q15 5 30 10.5
t31 10.5q58 21 106.5 54.5t70.5 71.5zM243 210l-8 -13q-6 -10 -14 -23t-16.5 -26.5t-16 -26t-13.5 -21.5q-16 -22 -36 -42.5t-38 -36.5q-19 -15 -26.5 -7.5t1.5 31.5q11 31 34.5 68.5t49.5 62.5q14 14 32 23t36 11h15zM111 -18l-34 -54t-34 -53t-40.5 -60t-50 -70.5
t-53.5 -71t-51 -61.5q-26 -29 -52.5 -49.5t-58.5 -34.5q-78 -31 -116 -4t-45 112q-4 42 1.5 78.5t15.5 62.5q5 16 12.5 25.5t27.5 20.5t48.5 23t61 24t67.5 23.5t68 21.5q49 15 109.5 31t123.5 36z" />
    <glyph glyph-name="h" unicode="h" horiz-adv-x="289" 
d="M608 650q-1 2 -1 8q-1 2 -1 5t-1 6q-7 20 -44 4q-13 -5 -33.5 -17.5t-33.5 -23.5q-48 -39 -93.5 -91t-89.5 -112q-63 -85 -126.5 -178t-120.5 -189q-17 -27 -12.5 -33.5t27.5 3.5q8 4 13 9q2 2 3 4t3 4q5 8 8 12.5t9 11.5q20 26 42.5 47.5t50.5 44.5q8 6 4 -3
q-17 -32 -33 -67t-27 -63q-15 -40 -10 -64t25 -30.5t53.5 5.5t74.5 45q16 13 36 33t31 32q5 6 2 9.5t-8 -3.5q-5 -6 -13.5 -15t-18 -18.5t-19 -18t-16.5 -14.5q-30 -23 -53 -33t-36.5 -5.5t-16.5 24t8 54.5t28 74.5t41 79.5q9 17 4 23q-8 6 -17 0q-42 -34 -76.5 -65.5
t-71.5 -74.5q49 93 105.5 182t113.5 170q34 49 70.5 91.5t63.5 64.5q62 50 147 62q11 2 9 10z" />
    <glyph glyph-name="i" unicode="i" horiz-adv-x="181" 
d="M248 342q-3 8 -11.5 6.5t-13.5 -6.5q-3 -3 -5 -7.5t-3 -7.5t0 -8.5t6 -9.5q10 -7 21 4q5 5 7 13t-1 16zM318 165q6 6 3 9t-8 -3q-18 -19 -40.5 -39.5t-46.5 -40t-49 -37t-47 -29.5q-26 -14 -35 -4t3 38q11 25 32 60t45 68q15 20 6.5 25.5t-26.5 -0.5q-20 -7 -46 -15
t-47 -13q-8 -2 -6 -6.5t7 -2.5q16 5 29 9.5t27 8.5q13 4 17 -2.5t-4 -23.5q-9 -20 -25 -46.5t-31 -50.5q-21 -34 -24.5 -52.5t6 -23.5t30 1t46.5 22q47 28 96 68.5t88 79.5z" />
    <glyph glyph-name="j" unicode="j" horiz-adv-x="169" 
d="M221 324q5 11 3 17t-12 14q-5 5 -10.5 3t-8.5 -7q-7 -11 -10 -20t-1 -16q5 -14 18 -14q7 0 12 7.5t9 15.5zM176 215q2 4 0 7.5t-7 3.5q-4 0 -9.5 -1t-10.5 -3t-8.5 -4.5t-5.5 -7.5q-1 -4 -6 -12.5t-11 -19l-12 -21t-10 -19.5q-22 -45 -44.5 -91t-43.5 -91
q-18 -39 -39 -81.5t-46 -82.5q-20 -32 -51.5 -62.5t-60.5 -47.5q-23 -13 -40 -16t-39 -6t-42 -5q-8 0 -6 -9q2 -6 6 -13q3 -5 14 -5t19 2q42 6 87 10t93 6q42 2 77.5 11t61.5 27q14 9 24.5 21.5t12.5 23.5q1 5 -2.5 6t-5.5 -4q-8 -19 -27 -34.5t-39 -23.5t-50 -12t-56 -3
q-31 1 -57 1q-27 0 -49 -2q-4 0 -4.5 1.5t2.5 3.5q20 8 41 22.5t44 35.5q30 28 61 69.5t62 93.5q17 28 34 60t33 62t29.5 57t24.5 47q13 24 29 52t27 54z" />
    <glyph glyph-name="k" unicode="k" horiz-adv-x="277" 
d="M623 669q-2 3 -5 9t-6 11q-5 8 -17 7q-38 -6 -76.5 -32t-78.5 -65q-33 -32 -66 -71t-65 -82t-63 -87t-60 -87q-24 -35 -49 -74t-51 -79q-4 -1 -8 -1q-3 0 -6 -1q-6 -1 -7.5 -4.5t2.5 -7.5l6 -6q-14 -23 -28 -45.5t-26 -44.5q-7 -10 0 -17q11 -11 21 8q11 20 22.5 41
t24.5 43l6 -7q8 -8 15 -17.5t15 -18.5q16 -19 30.5 -33.5t28.5 -22.5q16 -10 36 -13t36 10q15 12 32 28.5t33 34.5t29.5 36t22.5 33q4 6 0 7.5t-7 -3.5q-14 -26 -35.5 -52t-39.5 -41q-23 -19 -54 -16t-57 23q-17 13 -36 30.5t-38 39.5q-2 2 -2.5 3t-1.5 2l2 4q3 0 5 1
q20 5 47 13t48 16q22 9 34 27t9 40q-2 11 -8 11q-5 0 -12 0.5t-12 0.5q-4 0 -5.5 -1.5t-0.5 -7.5q5 -23 -7.5 -43.5t-38.5 -30.5q-11 -5 -24.5 -8t-27.5 -6q21 37 43 72t42 67q28 44 59 89t63.5 87t65 79.5t65.5 66.5q29 26 57.5 42t57.5 24q15 5 30 7.5t25 3.5q11 2 6 8z
" />
    <glyph glyph-name="l" unicode="l" horiz-adv-x="225" 
d="M477 435q25 29 22 50.5t-33 28.5q-32 8 -69 3t-66 -27q-24 -18 -46 -45q-11 -13 -21.5 -26.5t-21.5 -29.5q-13 -18 -33 -48.5t-42.5 -68t-46.5 -80t-45 -83.5q-23 -47 -20 -78t49 -38q22 -3 50 5t46 19q25 15 56.5 40.5t66.5 67.5q5 5 2.5 8t-7.5 -2q-30 -38 -64 -66.5
t-69 -45.5q-25 -12 -45 -12t-31.5 10.5t-13.5 30.5t9 47q8 22 20 46t26 50q27 14 55.5 29t55.5 32q57 37 112.5 81.5t103.5 101.5zM453 425q-17 -23 -44 -48t-55.5 -48.5t-55 -42.5t-41.5 -29q-24 -15 -50 -29.5t-52 -27.5l3 5q29 49 58.5 100t56.5 93q17 27 33.5 49.5
t35.5 37.5q23 19 51.5 20t51.5 -17q17 -13 19 -29.5t-11 -33.5z" />
    <glyph glyph-name="m" unicode="m" horiz-adv-x="373" 
d="M473 128q4 5 1 7.5t-7 -2.5q-26 -34 -61 -66.5t-86 -48.5q-19 -6 -28 1.5t-4 27.5q6 25 23 60t41 79q8 15 6 25t-19 8q-16 -2 -31 -11q-28 -17 -53 -42t-48 -54q16 36 19 67q2 20 -7.5 25.5t-23.5 -1.5q-13 -6 -34.5 -29t-45.5 -57q4 10 9 23t10 25.5t9 23t6 16.5
q5 14 2 19.5t-11 2.5q-3 -2 -8.5 -3t-10.5 -3q-4 -2 -7.5 -15t-5.5 -21q-4 -14 -10.5 -32.5t-15 -38.5t-18.5 -40t-20 -36q-9 -15 -10 -23.5t6 -16.5q5 -6 11 -3.5t10 9.5q17 26 34.5 58.5t37.5 61.5q12 17 25.5 32t26.5 26q14 11 21.5 7t5.5 -16q-3 -29 -21.5 -66
t-45.5 -73q-5 -6 -5.5 -12t4.5 -8q13 -6 23 11q3 4 5.5 9l5.5 11t6 13.5t7 15.5q23 35 49.5 64.5t52.5 46.5q16 11 20.5 4.5t-2.5 -23.5q-10 -26 -25 -53.5t-30 -50.5q-13 -21 -10.5 -36t23.5 -21q11 -3 24.5 -2t25.5 5q27 9 49 22.5t41 29.5t34.5 33.5t29.5 34.5z" />
    <glyph glyph-name="n" unicode="n" horiz-adv-x="264" 
d="M347 99q5 5 2 7.5t-7 -1.5q-24 -26 -58 -51.5t-66 -42.5q-32 -16 -44.5 -4.5t-2.5 38.5q11 31 34 72.5t49 80.5q8 11 3 18q-7 8 -16 3q-34 -21 -64.5 -45t-60.5 -51q9 20 18 39t17 33q3 5 3 9t-6 9q-11 9 -18 -1q-17 -25 -27.5 -52t-25.5 -53q-13 -21 -27.5 -40.5
t-25.5 -39.5q-5 -8 -4 -17t5 -17q5 -12 13 -2q19 25 34 52t31 53q19 22 44.5 44t47.5 36q3 2 5 1t0 -6q-7 -21 -22.5 -51t-29.5 -53q-19 -32 -22 -52t7.5 -27.5t33.5 -3t56 21.5q31 16 64.5 41.5t59.5 51.5z" />
    <glyph glyph-name="o" unicode="o" horiz-adv-x="227" 
d="M339 143q4 3 2.5 7t-6.5 -1q-18 -17 -46.5 -33t-51.5 -23t-33.5 4t-5.5 34q4 14 10 30.5t12 32.5q3 8 2 11q0 4 -5 4q-13 -2 -23 -5q-2 -1 -6 -5q-11 0 -26 -6q-18 -7 -36 -21.5t-34 -32.5t-29 -37.5t-19 -37.5q-11 -33 -5 -52.5t23 -24.5q17 -4 40 8.5t46 41.5
q8 9 14.5 20t12.5 22q19 -10 53 2q13 4 28 11t30 15.5t29 18t24 17.5zM185 186q-3 -14 -8 -29t-10 -26q-13 -28 -1 -45q-16 -34 -40 -61q-26 -31 -42.5 -25.5t-8.5 40.5q4 15 13 36.5t21.5 43t27 40t28.5 26.5t20 0z" />
    <glyph glyph-name="p" unicode="p" horiz-adv-x="291" 
d="M403 127q5 6 1.5 8.5t-7.5 -3.5q-29 -45 -66.5 -83t-81.5 -50q-76 -20 -58 52q6 24 19 51.5t27 50.5q15 26 26.5 42.5t19.5 26.5q7 9 5 13t-12 -2q-5 -3 -13 -8.5t-14 -10.5q-31 -28 -65 -61.5t-61 -64.5q-5 -5 -1 1q8 13 13 26.5t8 24.5q6 22 -7.5 32.5t-34.5 5.5
q-16 -4 -31 -11.5t-23 -14.5q-5 -4 -2 -7.5t7 0.5q6 5 14.5 11t16.5 9q20 8 27.5 -1t-0.5 -29q-8 -21 -21.5 -49.5t-29 -58.5t-32 -59.5t-29.5 -53.5q-29 -51 -66.5 -115t-79.5 -134q-8 -14 -18 -32t-20 -36.5t-19 -36.5t-14 -30q-9 -20 2 -28q8 -6 14 -14q3 -3 5 -6t4 -7
q5 -8 9 -6t1 7q-5 8 -5 21q0 12 4 26t11 33t16 39.5t19 42t20 40.5q21 40 41.5 78t41.5 74t42.5 71.5t44.5 72.5q11 17 19.5 30t16.5 24t17 22.5t21 25.5q10 12 22.5 26t26 27.5t26.5 26t25 22.5q7 7 2 -3q-2 -3 -11.5 -19.5t-21.5 -36.5t-23.5 -40.5t-17.5 -32.5
q-11 -24 -6 -39.5t27 -19.5q39 -6 77 5q24 7 45.5 21.5t40.5 33t35.5 39.5t30.5 41z" />
    <glyph glyph-name="q" unicode="q" horiz-adv-x="269" 
d="M336 -4q0 39 -19 68t-49 40q-3 2 -7 2h-6q-10 0 -15 -4t-5 -7q0 -2 2 -2q3 0 4 1q6 2 11 2q14 0 31 -10q22 -13 32 -34t10 -47q0 -18 -5 -38.5t-13 -41.5q-24 -59 -71.5 -101t-116.5 -76q-49 -24 -98.5 -46t-82.5 -30q-2 0 -2.5 -0.5t-1.5 -0.5q-3 0 -3 2q0 1 3 4
q7 7 16 12.5t17 10.5q13 8 20.5 18.5t15.5 24.5q23 42 52 95.5t55 104.5q15 29 37 65.5t46 75t48 77.5t44 73q2 5 4 8.5t2 6.5q0 6 -9 6q-10 0 -19 -3q-5 -2 -7.5 -6t-5.5 -9l-14 -28q-2 -4 -6 -5t-9 -2q-12 -2 -22.5 -5t-23.5 -8q-18 -8 -40.5 -23.5t-41.5 -35.5
q-18 -19 -35.5 -43t-28.5 -51q-4 -11 -4 -20q0 -20 20 -20q4 0 14 2q15 4 30.5 15.5t26.5 22.5q15 15 30 32.5t29 35.5q3 3 4 3h1v-1q0 -2 -1 -4q-19 -30 -38.5 -64t-39 -70t-39 -71.5t-38.5 -68.5q-12 -21 -27 -44.5t-28.5 -43.5t-24.5 -35t-15 -21q-9 -11 -21 -18.5
t-29 -10.5q-5 -1 -5 -5q0 -5 6.5 -11t12.5 -7h5q14 0 34 6q36 10 76 27.5t80.5 40.5t79 50.5t71.5 57.5q25 23 47.5 54.5t37.5 68.5q12 31 12 59zM225 193q0 -3 -1 -5q-10 -18 -25.5 -40t-30.5 -41q-18 -23 -40 -46.5t-48 -42.5q-12 -9 -19 -9q-4 0 -4 6q0 7 4 18
q12 29 33.5 61.5t47.5 57.5q38 36 78 42h3q2 0 2 -1z" />
    <glyph glyph-name="r" unicode="r" horiz-adv-x="227" 
d="M282 190q6 11 5.5 22t-10.5 18q-11 8 -25.5 6t-28.5 -11t-29 -23t-30 -29.5t-29.5 -31.5t-26.5 -31q13 26 22.5 44.5t16.5 35.5q5 9 3 15.5t-12 4.5q-3 -1 -7 -1t-7 -1q-5 -1 -7.5 -5t-4.5 -9q-3 -12 -8 -28t-11 -33.5t-13 -35t-14 -32.5q-15 -19 -27 -35t-20 -29
q-8 -14 -2.5 -18t17.5 0q15 5 22 18q7 11 15 29t16 38q12 17 26.5 35t31 34t34.5 29.5t39 22.5q13 5 25 7t20 0q3 -1 6 -2.5t4 -4.5q4 -10 9 1z" />
    <glyph glyph-name="s" unicode="s" horiz-adv-x="172" 
d="M207 229q2 5 0 11t-8 11q-7 6 -16 4.5t-17 -5.5q-12 -6 -25.5 -18t-24.5 -26q-8 -11 -14 -21.5t-9 -29.5l-5 -37.5t-5 -42.5q-3 -24 -8.5 -49.5t-15.5 -48.5t-24 -43t-35 -32q-20 -12 -44 -18t-46.5 -4t-39.5 12.5t-24 31.5q-2 5 -5 4t-2 -6q4 -17 12.5 -36t21.5 -23
q20 -6 53 0.5t62 21.5q29 14 55 37.5t43 50.5q20 32 27 66.5t11 77.5q2 21 4 44t7 43q4 17 15.5 22.5t24.5 3.5q15 -3 13 -16q-1 -5 1.5 -7t6.5 3q3 4 6 9t5 10z" />
    <glyph glyph-name="t" unicode="t" horiz-adv-x="179" 
d="M268 213q0 1 -5 1h-90q15 25 31.5 49t33.5 49q4 5 1 8t-8 1t-13 -4t-13 -3q-6 -1 -9.5 -5t-6.5 -10q-12 -23 -23.5 -44t-23.5 -41h-48t-52 -2q-16 0 -5 -12q4 -5 9.5 -5.5t11.5 0.5q19 3 38.5 4.5t39.5 3.5q-13 -23 -25.5 -44.5t-23.5 -43.5q-6 -11 -12 -24.5t-11.5 -27
t-9.5 -25.5t-5 -21q-2 -18 7 -28.5t23 -10.5q21 0 40 6.5t34 14.5t25 14.5t12 7.5q4 2 12 8t10 8t1.5 3.5t-4.5 0.5q-3 0 -8.5 -4t-13 -8.5t-15.5 -9t-15 -6.5q-5 -2 -17 -7.5t-23 -4.5q-10 0 -18 5t-8 16q0 8 1 17t5 20q12 33 30 70t41 76q23 1 46.5 1.5t48.5 0.5
q2 0 4 0.5t1 5.5z" />
    <glyph glyph-name="u" unicode="u" horiz-adv-x="277" 
d="M334 68q0 3 -4 3q-3 0 -5 -2q-33 -30 -62 -51t-65 -31q-8 -2 -12 -2q-17 0 -17 17q0 4 2 14q6 20 13 38t16 37q12 23 31.5 52t39.5 59q5 5 5 9q-2 5 -9 5h-8q-5 0 -7.5 -3t-5.5 -6q-7 -7 -14 -17.5t-14 -20.5q-11 -15 -20 -28.5t-20 -26.5q-17 -18 -33.5 -35t-36.5 -31
q-11 -8 -17 -8t-6 8q0 7 4 18q6 13 14 26.5t16 27.5q9 14 17.5 28.5t15.5 28.5q5 10 5 16q0 11 -12 19q-10 4 -17 4q-10 0 -20 -3q-11 -3 -24.5 -9t-25.5 -13q-5 -3 -5 -6q0 -4 4 -4q1 0 5 2q9 6 22 12.5t24 8.5q2 0 2.5 0.5t2.5 0.5q11 0 11 -12q0 -3 -2 -11
q-4 -17 -20.5 -43.5t-33.5 -51.5q-12 -18 -14 -34v-1q0 -11 6.5 -16.5t16.5 -6.5h2q8 0 17 3t19 11q26 19 53 48q1 2 4 2q2 0 2 -2q0 -1 -0.5 -1.5t-0.5 -2.5l-10.5 -21t-14.5 -27q-5 -9 -10 -20.5t-5 -22.5q0 -26 31 -26q18 0 45 9q29 10 58 31t64 52q3 3 3 6z" />
    <glyph glyph-name="v" unicode="v" horiz-adv-x="249" 
d="M265 182q0 22 -17 35q-1 1 -3 1q-5 0 -14 -11q-3 -4 -5.5 -7.5t-2.5 -6.5t2 -4q14 -10 14 -25q0 -13 -10 -28q-7 -11 -18.5 -20.5t-22.5 -17.5q-20 -13 -39.5 -25t-37.5 -28q-1 -1 -2 -1q-3 0 -3 4v1q3 31 14 61.5t25 60.5q4 9 10.5 20.5t14.5 17.5q2 1 2 5q0 3 -4 3
q-3 0 -4 -1q-6 -3 -12.5 -5t-12.5 -4q-7 -3 -10.5 -7.5t-7.5 -10.5q-16 -28 -26.5 -59t-17.5 -63q-5 -20 -10 -37.5t-13 -37.5q-1 -2 -1 -4q0 -4 4 -4q1 0 5 2q11 6 22.5 11t19.5 17q12 19 37 40q14 11 28.5 20t28.5 20q20 15 38.5 33.5t25.5 36.5q3 9 3 18z" />
    <glyph glyph-name="w" unicode="w" horiz-adv-x="303" 
d="M308 146q6 20 4.5 40t-11.5 34q-4 5 -9 4.5t-10 -2.5t-10.5 -5.5t-10.5 -7.5q-5 -5 -4 -7.5t5 -2.5q6 0 11 -5q11 -11 12.5 -23.5t-1.5 -33.5q-4 -29 -19 -57.5t-35 -46.5q-17 -15 -29 -9t-11 27q0 11 2 22l4 22t4 21l4 20q2 11 -4 17t-17 2q-6 -2 -15 -8t-16 -12
q-12 -11 -27.5 -24t-27.5 -26l-2 -2q0 1 1 3q13 26 32 53t39 52q3 4 3 7q0 4 -3 5q-8 2 -17 0q-5 -1 -9 -4.5t-7 -8.5q-25 -33 -50.5 -71t-41.5 -69q-9 -18 -4 -34q2 -6 6.5 -5t7.5 6q23 33 45.5 56.5t45.5 40.5q14 10 19.5 8t4.5 -18q-1 -12 -3.5 -27.5t-5.5 -29.5
q-5 -24 0.5 -37.5t17 -17t27 3.5t31.5 24q27 29 46.5 62.5t27.5 63.5z" />
    <glyph glyph-name="x" unicode="x" horiz-adv-x="279" 
d="M356 88q4 5 1.5 7.5t-6.5 -2.5q-5 -6 -13.5 -17t-20 -23.5t-24 -24.5t-24.5 -20q-61 -41 -92.5 -22t-31.5 80q0 10 0.5 19.5t1.5 20.5q19 11 37.5 21.5t35.5 19.5q18 10 35.5 21.5t30.5 23.5q8 8 1 14q-5 4 -9 7.5t-9 5.5q-14 5 -12 -10q0 -5 -4.5 -12t-9.5 -13
q-18 -18 -40.5 -34t-54.5 -34q2 27 6 53.5t6 49.5q1 8 -3.5 11t-11.5 1q-27 -10 -51 -21.5t-47 -22.5q-7 -3 -3.5 -6.5t8.5 -1.5l18 10t20 9q12 5 20 1t9 -18q1 -15 -1 -38.5t-4 -46.5q-41 -25 -72 -51t-50 -54q-26 -38 -37 -74t-9 -67.5t16.5 -57.5t39.5 -43
q26 -18 55.5 -20t60 7.5t60 27.5t56.5 41q5 5 1 7.5t-7 -1.5q-30 -29 -63.5 -43t-66 -12.5t-60 17t-44.5 44.5q-20 34 -20.5 73.5t15.5 74.5q13 29 36 54t53 45q8 5 17 11t18 11q-1 -7 -1.5 -12.5t-1.5 -10.5q-7 -51 6.5 -77t58.5 -24q23 1 49 12.5t48 26.5q29 20 51 46
t33 41z" />
    <glyph glyph-name="y" unicode="y" horiz-adv-x="247" 
d="M313 281q-6 15 -16.5 32.5t-22.5 31.5q-5 5 -7.5 2t1.5 -7q20 -21 17 -52q-5 -47 -45.5 -112t-104.5 -146q-2 0 -3 -1q-8 -6 -16 -4.5t-8 11.5q-1 11 3.5 27t9.5 32q6 20 16.5 46t19.5 48q6 15 3 23.5t-17 5.5q-24 -5 -54 -16t-51 -22q-6 -3 -3.5 -6.5t7.5 -1.5
q23 15 46 21q29 8 26 -14q-3 -20 -11.5 -49t-18.5 -56q-5 -11 -9.5 -27t-6.5 -27q-3 -13 4.5 -19t20.5 -2q7 2 13.5 4.5t12.5 6.5l-10 -12l-10 -12q-32 -39 -69.5 -87t-73 -99t-65.5 -100.5t-48 -91.5q-15 -35 -12 -66t29 -49q50 -36 136 -25q21 3 45 8t47 11t44 11t38 8
q20 3 35.5 4.5t26.5 -2.5q6 -2 6.5 -10t-1.5 -15t1 -7.5t6 6.5q2 5 5 15t0 16q-9 18 -29 20t-52 -6q-22 -5 -50 -14.5t-57 -18t-56.5 -14.5t-47.5 -5q-41 2 -62.5 21t-20.5 61q0 28 8.5 58.5t22 62t31.5 63t37 60.5q39 60 90.5 125.5t111.5 136.5q36 44 72.5 92t62.5 93
q8 15 3 33z" />
    <glyph glyph-name="z" unicode="z" horiz-adv-x="274" 
d="M560 -104q0 3 -4 3l-4 -2q-44 -40 -97 -40q-18 0 -36 5t-35 13q-37 18 -76 42t-81 50q-23 14 -45.5 28t-46.5 26q6 5 11.5 9.5t11.5 9.5q12 11 26.5 25.5t29.5 31l30 33t28 31.5q10 11 19.5 21.5t18.5 20.5q2 2 2 5q0 4 -4 4q-1 0 -3 -2q-10 -11 -19 -21t-20 -22
q-25 11 -50.5 18t-49.5 9q-5 0 -8.5 0.5t-7.5 0.5q-9 0 -15.5 -2t-9.5 -10q-5 -12 -12 -23.5t-14 -18.5q-2 -2 -2 -4q0 -3 2 -3t5 3q5 6 15.5 11t22.5 6q4 0 7.5 0.5t7.5 0.5q21 0 44 -4t40 -12q-26 -29 -46 -50t-43 -43q-6 -5 -12.5 -10.5t-13.5 -10.5q-22 11 -44 19
t-47 13q-15 3 -30 3q-28 0 -50 -12q-17 -10 -17 -26q0 -6 2.5 -12.5t9.5 -11.5q26 -22 67 -22q20 0 43 6t46 20q30 -18 59.5 -37t58.5 -39q34 -23 72 -40.5t70 -25.5q44 -11 79 -11q29 0 56.5 9t55.5 32q3 3 3 6zM97 7q-10 -6 -20 -10q-21 -8 -40 -8q-38 0 -63 27
q-10 12 -10 18q0 16 22 16h4q19 0 38 -7.5t41 -19.5q16 -8 28 -16z" />
    <glyph glyph-name="braceleft" unicode="{" horiz-adv-x="265" 
d="M451 492v2q0 5 -7 5h-8q-8 0 -17.5 -1t-17.5 -2q-23 -3 -42 -10.5t-36 -27.5q-10 -11 -20.5 -26.5t-21.5 -32.5t-19.5 -32.5t-15.5 -27.5q-31 -54 -69 -83q-19 -14 -43 -14q-10 0 -19 3q-3 1 -8 1q-7 0 -13 -6q-1 -2 -2 -3t-1 -3q0 -5 5 -7q2 -1 7 -1q6 0 16 2
q3 1 5.5 1.5t5.5 1.5t9 1h5q32 -6 32 -28q0 -7 -5 -20q-9 -20 -21.5 -40.5t-26.5 -41.5l-28 -42t-26 -43q-17 -29 -17 -54q0 -24 16 -41q21 -23 56 -23q7 0 7 4t-6 4q-20 0 -28 12.5t-8 30.5q0 19 8 42t22 49q8 15 17 31.5t18 33.5t17 34t13 34q4 11 4 22q0 26 -23 38
q-2 2 -2 3q0 3 4 4q35 13 59 37t51 62q20 28 42 58t40 50q11 13 23.5 24t24.5 16q11 4 22 4q8 0 12 -2q2 -1 4 -1q4 0 6 3z" />
    <glyph glyph-name="bar" unicode="|" horiz-adv-x="222" 
d="M148 -250h30v1000h-30v-1000z" />
    <glyph glyph-name="braceright" unicode="}" horiz-adv-x="265" 
d="M343 429q0 7 -2 17q-3 15 -16 33.5t-31 18.5q-6 0 -6 -5q0 -4 7 -5q26 -4 26 -30q0 -10 -3 -20q-5 -17 -15.5 -35.5t-18.5 -32.5q-11 -19 -23.5 -38t-21.5 -38q-4 -8 -6.5 -17.5t-2.5 -18.5q0 -11 5 -20.5t16 -14.5q5 -2 5 -5q0 -2 -4 -5q-29 -17 -55 -44t-46 -58
q-10 -16 -21 -35.5t-19 -33.5q-11 -17 -22 -34.5t-23 -32.5q-23 -29 -47 -47t-54 -23q-6 -2 -6 -4q0 -3 5 -3q19 0 39.5 8t40 20.5t36.5 27t29 28.5q11 13 22.5 31t23 38t22 41.5t20.5 41.5q23 47 58 71q6 4 12 6q8 2 14.5 2.5t14.5 0.5q6 0 9.5 4.5t3.5 10.5q0 8 -7 8
q-8 -1 -18 -2.5t-16 -3.5q-3 -1 -9 -1q-10 0 -10 10q0 8 4 16q8 17 20 35t23 35q11 16 22 35t19 38q6 15 6 30z" />
    <glyph glyph-name="asciitilde" unicode="~" horiz-adv-x="400" 
d="M380 174q-10 -15 -20.5 -27.5t-27.5 -12.5q-11 0 -26 6.5t-30 13.5q-16 7 -31.5 12t-29.5 5q-28 0 -44 -15t-25 -32l20 -20q6 15 17 28t29 13q19 0 34 -6t29 -14t27.5 -13t28.5 -5q26 0 41 15t28 32z" />
    <glyph glyph-name="Euro" horiz-adv-x="461" 
d="M594 347q-5 21 -19 35t-33 22.5t-41 12t-42 3.5q-92 -2 -158.5 -44.5t-120.5 -117.5q-14 0 -30.5 0.5t-30.5 2.5l-4 -12h59q-8 -12 -13 -21.5t-13 -22.5q-11 0 -24 0.5t-24 2.5l-4 -12q11 0 24 0.5t24 -0.5q-15 -32 -21.5 -55.5t-6.5 -48.5q0 -109 135 -109q56 0 106 17
t84 47v13q-38 -32 -83.5 -50t-96.5 -18q-48 0 -74.5 21.5t-26.5 59.5q0 27 7.5 53.5t27.5 69.5q31 0 70.5 0.5t76.5 -2.5q16 -2 30 -3.5t27 -4.5q8 8 12 17q-9 1 -15 1.5t-13 0.5h-17h-23h-143l12 22t14 22h39t31.5 -0.5l29 -1t31.5 -1.5q25 -2 35.5 -3t25.5 -4q8 8 12 16
q-17 2 -28.5 2.5t-39.5 0.5h-130q52 75 109 114.5t117 39.5q47 0 71.5 -28t25.5 -79l4 -1z" />
    <glyph glyph-name="Euro" unicode="&#x20ac;" horiz-adv-x="461" 
d="M594 347q-5 21 -19 35t-33 22.5t-41 12t-42 3.5q-92 -2 -158.5 -44.5t-120.5 -117.5q-14 0 -30.5 0.5t-30.5 2.5l-4 -12h59q-8 -12 -13 -21.5t-13 -22.5q-11 0 -24 0.5t-24 2.5l-4 -12q11 0 24 0.5t24 -0.5q-15 -32 -21.5 -55.5t-6.5 -48.5q0 -109 135 -109q56 0 106 17
t84 47v13q-38 -32 -83.5 -50t-96.5 -18q-48 0 -74.5 21.5t-26.5 59.5q0 27 7.5 53.5t27.5 69.5q31 0 70.5 0.5t76.5 -2.5q16 -2 30 -3.5t27 -4.5q8 8 12 17q-9 1 -15 1.5t-13 0.5h-17h-23h-143l12 22t14 22h39t31.5 -0.5l29 -1t31.5 -1.5q25 -2 35.5 -3t25.5 -4q8 8 12 16
q-17 2 -28.5 2.5t-39.5 0.5h-130q52 75 109 114.5t117 39.5q47 0 71.5 -28t25.5 -79l4 -1z" />
    <glyph glyph-name="quotesinglbase" unicode="&#x201a;" horiz-adv-x="191" 
d="M169 90q0 27 -15 47q-3 3 -6 3t-6 -3q-5 -5 -10 -11t-9 -11q-2 -4 -2 -5q0 -4 4 -7q11 -7 14 -29q1 -5 1 -16q0 -14 -2.5 -28.5t-10.5 -28.5q-11 -20 -30.5 -45t-40.5 -44q-2 -2 -2 -4q0 -4 5 -4q3 0 5 2q19 20 39.5 45.5t34.5 48.5q8 14 14.5 29t11.5 29q5 17 5 32z" />
    <glyph glyph-name="florin" unicode="&#x192;" horiz-adv-x="207" 
d="M417 463q0 6 -9 11q-8 4 -19 4q-12 0 -29 -5q-14 -4 -32 -15.5t-34 -28.5q-20 -21 -42.5 -52.5t-41.5 -62.5q-12 -19 -26.5 -47t-29.5 -58q-8 0 -14.5 -1t-12.5 -1h-13q-10 0 -13 1q-4 2 -7 2q-6 0 -8 -5q-3 -6 -11 -12q-4 -3 -4 -6q0 -5 9 -5h2q14 2 30 4t33 4
q-11 -21 -20 -41t-17 -37q-11 -22 -22.5 -45.5t-22.5 -45.5t-21 -40.5t-16 -30.5q-30 -55 -63 -77q-11 -7 -23.5 -11.5t-25.5 -5.5h-5q-13 0 -24 4t-20 15t-9 21q0 7 -4 7q-3 0 -7 -4q-8 -8 -12 -10q-9 -5 -10 -14v-3q0 -14 13 -23q23 -13 45 -13q20 0 40 7.5t42 21.5
q25 16 47.5 41t41.5 54q22 32 43.5 70t44.5 81q11 20 21 40.5t21 42.5l7 1q26 4 57.5 10t56.5 11q5 2 5 3q0 3 -5 3l-1 -1q-29 -2 -57.5 -5t-54.5 -5q13 26 25 53t25 54q14 31 24 50.5t23 39.5q12 18 29 29t38 11q9 0 20.5 -1.5t17.5 -4.5q4 -3 8 -3q3 0 6 3q1 2 2 3t2 3
t2 2.5t2 2.5q3 4 3 10z" />
    <glyph glyph-name="quotedblbase" unicode="&#x201e;" horiz-adv-x="258" 
d="M234 90q0 13 -3 25t-11 22q-3 3 -6 3t-6 -3q-5 -5 -10 -11t-9 -11q-2 -4 -2 -5q0 -4 4 -7q5 -3 9 -10.5t6 -18.5q1 -4 1 -14q0 -14 -3.5 -29.5t-11.5 -29.5q-10 -18 -29.5 -44t-40.5 -45q-2 -2 -2 -4q0 -4 5 -4q3 0 5 2q19 20 39.5 45.5t34.5 48.5q8 14 14.5 29t11.5 29
q4 13 4 32zM151 90q0 13 -3 25t-11 22q-3 3 -6 3t-6 -3q-5 -5 -10 -11t-9 -11q-2 -4 -2 -5q0 -4 4 -7q5 -3 9 -11t6 -18q1 -4 1 -14q0 -14 -4 -29.5t-11 -29.5q-11 -20 -30.5 -46t-39.5 -43q-2 -2 -2 -4q0 -4 5 -4q3 0 5 2q19 20 39.5 45.5t34.5 48.5q8 14 14.5 29t11.5 29
q4 13 4 32z" />
    <glyph glyph-name="ellipsis" unicode="&#x2026;" horiz-adv-x="579" 
d="M505 44q0 13 -12 16q-2 1 -6 1q-8 0 -16 -4.5t-14.5 -11t-10 -15t-3.5 -17.5v-3q0 -8 5.5 -11.5t12.5 -3.5q5 0 7 1q11 5 21 16t15 24q1 3 1 8zM326 44q0 13 -12 16q-2 1 -6 1q-8 0 -16 -4.5t-14.5 -11t-10 -15t-3.5 -17.5v-3q0 -8 5.5 -11.5t12.5 -3.5q5 0 7 1
q11 5 21 16t15 24q1 3 1 8zM152 44q0 12 -13 16q-2 1 -6 1q-8 0 -16 -4.5t-14.5 -11t-10 -15t-3.5 -17.5v-3q0 -8 5.5 -11.5t12.5 -3.5q5 0 7 1q11 5 21 16t15 24q2 6 2 8z" />
    <glyph glyph-name="dagger" unicode="&#x2020;" horiz-adv-x="265" 
d="M351 257q0 6 -5 9q-6 3 -14 3q-4 0 -7 -0.5t-7 -0.5q-15 -2 -33.5 -3t-37.5 -2q14 25 29.5 48.5t29 43.5t24 36t15.5 25q4 8 4 15q0 11 -8 16q-5 3 -9 3q-10 0 -14 -9q-11 -20 -20 -41t-20 -45q-10 -23 -22 -46l-24 -46h-10q-11 0 -22.5 1t-22.5 3q-9 2 -19 4.5l-18 4.5
q-3 1 -8 1q-10 0 -14 -4q-8 -8 -13 -18q-1 -2 -1 -6q0 -8 7 -11q6 -2 11 -2q9 0 18 3q13 5 33 8q10 2 20 3t20 1h12q-41 -72 -82 -129.5t-77 -113.5q-8 -11 -8 -20q0 -5 2.5 -11t4.5 -11q3 -7 8 -7t12 3.5l11 5.5q6 3 10.5 10t7.5 15q13 31 28.5 65.5t32 68t33 65.5t31.5 58
q47 -5 90 -19q2 -1 6 -1q5 0 8 5q2 3 2.5 4t2.5 6q3 6 3 12z" />
    <glyph glyph-name="daggerdbl" unicode="&#x2021;" horiz-adv-x="265" 
d="M352 257q0 6 -5 9q-6 3 -14 3q-4 0 -7 -0.5t-7 -0.5q-15 -2 -33.5 -3t-37.5 -2q14 24 29.5 47t29 43.5t24 37t15.5 25.5q4 8 4 15q0 10 -9 16q-5 3 -9 3q-9 0 -13 -9q-11 -20 -20.5 -41t-20.5 -45q-20 -48 -45 -92h-10h-1q-8 0 -21 1t-23 3q-9 2 -19 4.5l-18 4.5
q-3 1 -9 1q-9 0 -13 -4q-8 -8 -13 -18q-2 -4 -2 -6q0 -8 7 -11q6 -2 12 -2q9 0 18 3q13 5 33 8q10 2 20 3t20 1h12q-12 -20 -23.5 -40.5t-23.5 -40.5q-9 1 -20.5 1.5t-19.5 2.5q-9 2 -21 3t-22 3q-2 0 -5 0.5t-6 0.5q-11 0 -15 -4t-6.5 -8.5t-5.5 -9.5q-2 -4 -2 -5
q0 -4 7 -7q4 -3 16 -3q9 0 18 3q6 2 16 3.5t20 3.5q8 2 18.5 2.5t19.5 0.5l-9 -14q-26 -40 -49 -70.5t-46 -64.5q-8 -11 -8 -20v-2q1 -5 3 -10l4 -10q3 -7 8 -7q2 0 4 1q5 2 9.5 4t8.5 4q6 3 11 10t8 15q14 35 27.5 71t31.5 72q2 5 5 10.5t6 10.5q26 0 49.5 -4.5t49.5 -13.5
q6 -2 9 -2q8 0 12 7q2 3 2.5 4t2.5 6q2 4 2 10q0 8 -5 11q-6 3 -15 3q-4 0 -7 -0.5t-7 -0.5q-19 -2 -41.5 -4t-44.5 -3q11 20 24 40.5t24 39.5q46 -5 89 -19q2 -1 6 -1q6 0 9 5q2 3 2.5 4t2.5 6q3 6 3 12z" />
    <glyph glyph-name="circumflex" unicode="&#x2c6;" 
d="M180 295q0 17 -2 43t-3 54q0 5 -4 5q-1 0 -5 -2q-8 -5 -16 -12.5t-16 -15.5q-17 -17 -37 -36t-37 -34q-9 -8 -9 -13q0 -2 2 -4q1 -1 2 -1q4 0 13 11q17 19 37.5 40t39.5 38q3 3 5 3q4 0 4 -6q1 -20 2 -45t1 -45q0 -7 3 -7t6 3q6 6 10 9t4 15z" />
    <glyph glyph-name="perthousand" unicode="&#x2030;" horiz-adv-x="829" 
d="M834 217q0 3 -3 3h-1q-15 -1 -27 -2t-27 -1h-4q-13 0 -17 -1q-3 -1 -10 -1.5t-12 -1.5q-21 -2 -45 -3t-44 -1h-15t-12 1q-15 2 -30 4.5t-24 10.5q-5 3 -8 3t-4 -1q-2 -2 -8.5 -6t-12.5 -6q-5 -2 -5 -5q0 -4 5 -6q6 -2 14.5 -11t9.5 -27v-9q0 -75 -52 -128
q-24 -24 -42 -24q-12 0 -19.5 10t-7.5 27q0 5 0.5 10t1.5 10q6 28 18 56t26 44q9 11 18 20t15 12q5 3 5 7t-3 4t-8 -3.5t-10 -6.5q-48 -26 -89 -51t-81.5 -52.5t-83 -57.5t-93.5 -65v1q90 93 176 185.5t152 181.5q17 23 30.5 45t20.5 43q3 9 3 17q0 18 -11 32t-28 20t-40 6
q-5 0 -9 -0.5t-9 -0.5q-23 -2 -49.5 -6t-49.5 -4q-20 0 -21 10q0 5 -4 5q-3 0 -5 -5q-4 -11 -4 -21q0 -9 3 -13q-17 -6 -35.5 -18t-29.5 -23q-51 -57 -59 -117v-8q0 -27 22 -37q11 -5 27 -5q24 0 49.5 14t48.5 38q40 43 50 93q2 10 2 15q0 8 -4 18q-5 11 -10 12
q-4 1 -11.5 3t-10.5 4h-2q-3 0 -3 -3t1 -4q3 -3 5.5 -8t2.5 -13v-2q0 -19 -5.5 -40t-16 -41t-25.5 -37t-33 -28q-15 -9 -26 -9q-24 0 -24 32v8q3 27 16 56t30 54q7 9 18 21.5t27 20.5q6 -6 18 -6q6 0 9 1q25 4 48 10.5t48 10.5q16 3 31 3q25 0 41 -10q10 -5 13.5 -13
t3.5 -17q0 -5 -2 -15q-5 -18 -18.5 -39t-30.5 -44q-35 -48 -81 -99.5t-98 -105t-109 -108t-114 -107.5q-7 -7 -7 -14v-2q1 -2 1 -6q0 -3 -2 -7q-1 -1 -1 -3q0 -4 3 -4h1q5 0 9 4q46 37 96.5 75t102 74t102 69t96.5 62q-20 -20 -36.5 -45t-26.5 -52q-6 -20 -6 -34
q0 -23 12.5 -35.5t32.5 -12.5q15 0 33 7.5t37 23.5q20 17 36 41t27 53q11 30 11 52q0 9 -1 13q-1 2 -1 7q0 9 9 9q25 0 53.5 2t60.5 4h1q4 0 4 -2q0 -3 -3 -4q-27 -14 -47 -39t-35 -53q-9 -17 -13.5 -35t-4.5 -35v-8q2 -17 13.5 -27.5t26.5 -10.5q31 0 57 21
q23 18 44.5 45.5t34.5 54.5q8 15 12 32.5t6 33.5v5q0 8 -2 13t-5 10q0 1 -1 1v1q0 4 6 4q8 1 16 1.5t12 1.5q3 0 3 4zM771 179q0 -35 -10 -66t-27 -57t-38 -42q-14 -12 -29 -12q-26 0 -26 29v7q0 4 1 9q4 21 12 44.5t18 41.5q5 9 12.5 20t13.5 18q9 10 21.5 20.5t22.5 12.5
q3 1 7 1q11 0 16.5 -7.5t5.5 -18.5z" />
    <glyph glyph-name="Scaron" unicode="&#x160;" horiz-adv-x="582" 
d="M659 641q0 6 -5 6t-13 -11q-14 -17 -35.5 -39.5t-40.5 -38.5q-3 -3 -6 -3t-3 6q-2 24 -2 47v43q0 6 -4 6q-2 0 -8.5 -4.5t-8.5 -6.5q-5 -4 -5 -13q1 -25 3.5 -49t3.5 -49q0 -6 5 -6q3 0 19 14.5t35.5 32.5t36 34t20.5 19q8 6 8 12zM657 478q0 1 -2 3t-5 4t-5 2
q-5 0 -6 -3q-11 -17 -26 -40.5t-26 -40.5l-2 -2q-1 0 -1 1v1q0 5 0.5 8.5t0.5 7.5q0 27 -18.5 39.5t-53.5 12.5q-49 0 -100 -20t-91 -49q-23 -17 -37.5 -37.5t-14.5 -42.5t11 -39t34 -34q30 -23 69.5 -43t72.5 -43q19 -13 30 -31t11 -41q-1 -34 -17 -61t-42 -48t-58.5 -36.5
t-66 -25.5t-65.5 -14.5t-55 -4.5q-26 0 -55 5t-53.5 18t-41 34t-16.5 54q0 19 4 36.5t14 34.5q1 2 1 5q0 4 -3 4q-4 0 -5 -3q-26 -40 -26 -86q0 -38 15 -64t39 -43t55.5 -25t64.5 -8q63 -1 122 15.5t104 48t72 77.5t27 103q0 23 -9.5 42.5t-23.5 35.5q-18 20 -44.5 39
t-53.5 35q-14 8 -27 18t-21 18t-12.5 17.5t-4.5 20.5q0 19 13 40q15 25 41.5 45t56.5 30q15 5 34.5 7.5t33.5 2.5q10 0 22.5 -1t22.5 -5q17 -7 26.5 -17t9.5 -25v-2q0 -17 -4.5 -27.5t-12.5 -21.5q-7 -10 -16 -23.5t-14 -24.5q-3 -5 -3 -11q0 -4 2 -8q9 -12 25 -17
q3 -1 7 -1q2 0 2 1v1q-2 4 -2.5 8.5t-0.5 7.5q0 11 2.5 22.5t7.5 23.5q6 17 14.5 32.5t17.5 29.5q10 15 25 35t29 37q2 2 2 6z" />
    <glyph glyph-name="guilsinglleft" unicode="&#x2039;" horiz-adv-x="275" 
d="M298 228v2q0 5 -4 5q-2 0 -3 -1q-28 -20 -60.5 -46.5t-62.5 -50.5q-10 -8 -20 -16.5t-18 -13.5q-7 -4 -7 -9v-2q10 -30 18.5 -60.5t14.5 -52.5q2 -8 7 -8q2 0 4 1q4 2 9.5 3t9.5 2q5 0 6 1l0.5 0.5t0.5 1.5l-2 6q-5 12 -10.5 26.5t-10.5 29t-9 28t-7 23.5q-2 8 -2 10
q0 6 9 14q14 11 30 23.5t32.5 25t31.5 24t27 20.5q2 2 5 3.5t5 3.5q4 2 6 7z" />
    <glyph glyph-name="OE" unicode="&#x152;" horiz-adv-x="1175" 
d="M1239 266v17q0 12 -2 22t-8 15q-4 2 -5 2q-2 0 -2 -2l2 -4q8 -13 8 -30q0 -2 0.5 -5t-0.5 -5q-5 -28 -13 -50.5t-19.5 -42.5t-27.5 -40t-37 -42q-42 -45 -90.5 -81t-107.5 -57q-22 -8 -47.5 -12t-51.5 -4q-30 0 -58.5 5.5t-51.5 18.5q-35 19 -56.5 54t-17.5 85
q3 45 20.5 80.5t45.5 61t65 39.5t79 15q23 0 40 -7q2 -1 6 -1t6 2q3 4 8 7t10 5q4 2 4 4q0 4 -6 4q-7 0 -14 5q-21 16 -29.5 37t-8.5 43q0 14 3 28q3 16 12.5 30t22.5 25.5t28 18.5t29 10q10 2 17 2q25 0 39 -13q6 -5 10.5 -14t5.5 -19v-8q0 -9 -1 -19.5t-3 -19.5v-2
q0 -4 3 -4q2 0 4 5q2 9 9.5 19.5t18.5 18.5q15 10 15 26q0 14 -9 26q-17 23 -55 23h-4q-26 -1 -53.5 -11.5t-50.5 -25.5q-12 -8 -23 -19.5t-21 -25t-17 -28.5t-11 -28q-2 -7 -3 -13.5t-1 -14.5q0 -14 3.5 -26t10.5 -19q6 -6 4 -6q-5 -2 -12 -2h-9q-12 0 -28.5 -3.5
t-33.5 -9.5t-33.5 -15t-28.5 -19q5 10 12 25.5t13 32.5t10 33.5t3 29.5q-1 16 -2.5 29t-6.5 24q-19 44 -52 62t-79 22q-5 0 -9 0.5t-9 0.5q-47 0 -87 -18t-75 -52q-23 -23 -23 -46q0 -28 30 -40q27 -10 76 -10q12 0 25.5 0.5t27.5 1.5q17 2 38.5 3t44.5 3l-3 8
q-2 0 -15.5 -0.5t-33.5 -1.5t-32 -1q-21 0 -39.5 3t-38.5 11q-17 8 -25 19t-8 24q0 15 9 29.5t24 27.5q16 13 39.5 19.5t49.5 6.5q21 0 40.5 -4.5t33.5 -15.5q28 -20 41.5 -46.5t13.5 -64.5q0 -29 -6.5 -52t-12.5 -42q-5 -13 -16 -36t-29 -50.5t-44 -57t-59 -56.5
q-29 -23 -64 -43.5t-72.5 -36t-76.5 -25t-76 -9.5q-32 0 -60.5 9t-50.5 26.5t-35 41t-14 52.5q-1 28 7 56.5t21 55.5t29 52t32 46q21 28 49 55t61.5 51t70 43.5t74.5 31.5q3 1 3 4v1q0 2 -3 2h-2q-37 -12 -74 -31.5t-72 -43t-66 -48.5t-55 -48q-18 -18 -40.5 -43t-42.5 -55
t-33.5 -64t-12.5 -70q1 -31 15.5 -57t40 -45t59.5 -29.5t74 -10.5q42 0 85.5 9.5t85.5 26t80.5 39t71.5 48.5q20 16 36 30.5t32 29.5q-5 -14 -7 -31.5t-2 -34.5t1.5 -30.5t4.5 -20.5q14 -38 39.5 -61.5t65.5 -32.5q17 -4 34.5 -5.5t35.5 -1.5q23 0 46 2.5t45 8.5
q47 12 93.5 32t87.5 45q75 47 121 106.5t53 145.5z" />
    <glyph glyph-name="Zcaron" horiz-adv-x="970" 
d="M659 646q0 1 -2 5q-2 2 -3 2q-4 0 -13 -12q-14 -17 -35.5 -39.5t-40.5 -38.5q-3 -3 -5 -3q-4 0 -4 6q-2 24 -2 47v43q0 7 -3 7t-6 -3q-2 -2 -5 -4t-7 -5q-5 -4 -5 -12v-3q0 -19 3 -43.5t4 -52.5q0 -5 5 -5q3 0 4 1q7 5 15.5 12.5t16.5 15.5q17 17 36.5 35.5t38.5 34.5
q8 6 8 12zM964 62q3 34 -11 70q-1 4 -5 4q-5 0 -5 -5q0 -2 1 -3q15 -32 12 -64q-2 -40 -31 -71t-80 -40q-15 -3 -36 -3q-8 -1 -16.5 -0.5t-17.5 1.5q-63 4 -123 19t-120 32.5t-120.5 32.5t-122.5 20q-9 0 -13 1h-1q-3 0 -3 1t3 4q57 38 113.5 78.5t107.5 79.5h1q17 -2 36 0
q20 2 50.5 4t59.5 1q3 -1 11 -1q14 -2 27 -4.5t26 -3.5h2q6 0 6 4q2 3 -4 5q-13 2 -28.5 4t-32.5 4q-6 1 -11.5 0.5t-12.5 0.5q-19 0 -38.5 0.5t-36.5 2.5q-8 1 -15 1.5t-14 1.5q28 21 53 41t47 38q32 26 69 60t69 63q3 3 3 6q2 2 -3 4q-23 7 -63.5 17.5t-83.5 18.5
q-32 6 -63 9.5t-63 3.5q-35 1 -67 -4t-61 -17q-27 -11 -48 -30t-28 -43v-1q0 -4 3 -4q2 0 4 1t2 3q5 20 26.5 40t52.5 27q11 2 22 3.5t23 1.5q9 1 18.5 0.5t19.5 -1.5q12 -1 24.5 -2t25.5 -3q51 -8 103.5 -19.5t100.5 -31.5q5 -2 5 -5t-3 -6q-45 -43 -96 -85t-105 -83
q-13 2 -24 4.5t-14 6.5q-4 2 -5 2q-3 0 -4 -4q-1 -2 -3 -8q0 -1 2 -7q3 -10 14 -13q2 -1 8 -1q-56 -42 -111.5 -81t-108.5 -75q-6 -4 -12 -6t-11 -3q-5 0 -12 -0.5t-15 -1.5t-13.5 -4t-9.5 -7q-14 -12 -27 -24t-28 -23q-2 -2 -3 -4l-1 -2l0.5 -1.5t2.5 -2.5q1 0 1.5 0.5
t1.5 0.5q5 2 13 5t13 6q17 15 35.5 21t39.5 6q20 0 40 -3l40 -6q54 -9 108.5 -27.5t108.5 -36.5t107.5 -31.5t107.5 -13.5q41 0 77 9q31 8 59 23.5t48 43.5q27 33 30 79z" />
    <glyph glyph-name="Zcaron" unicode="&#x17d;" horiz-adv-x="970" 
d="M659 646q0 1 -2 5q-2 2 -3 2q-4 0 -13 -12q-14 -17 -35.5 -39.5t-40.5 -38.5q-3 -3 -5 -3q-4 0 -4 6q-2 24 -2 47v43q0 7 -3 7t-6 -3q-2 -2 -5 -4t-7 -5q-5 -4 -5 -12v-3q0 -19 3 -43.5t4 -52.5q0 -5 5 -5q3 0 4 1q7 5 15.5 12.5t16.5 15.5q17 17 36.5 35.5t38.5 34.5
q8 6 8 12zM964 62q3 34 -11 70q-1 4 -5 4q-5 0 -5 -5q0 -2 1 -3q15 -32 12 -64q-2 -40 -31 -71t-80 -40q-15 -3 -36 -3q-8 -1 -16.5 -0.5t-17.5 1.5q-63 4 -123 19t-120 32.5t-120.5 32.5t-122.5 20q-9 0 -13 1h-1q-3 0 -3 1t3 4q57 38 113.5 78.5t107.5 79.5h1q17 -2 36 0
q20 2 50.5 4t59.5 1q3 -1 11 -1q14 -2 27 -4.5t26 -3.5h2q6 0 6 4q2 3 -4 5q-13 2 -28.5 4t-32.5 4q-6 1 -11.5 0.5t-12.5 0.5q-19 0 -38.5 0.5t-36.5 2.5q-8 1 -15 1.5t-14 1.5q28 21 53 41t47 38q32 26 69 60t69 63q3 3 3 6q2 2 -3 4q-23 7 -63.5 17.5t-83.5 18.5
q-32 6 -63 9.5t-63 3.5q-35 1 -67 -4t-61 -17q-27 -11 -48 -30t-28 -43v-1q0 -4 3 -4q2 0 4 1t2 3q5 20 26.5 40t52.5 27q11 2 22 3.5t23 1.5q9 1 18.5 0.5t19.5 -1.5q12 -1 24.5 -2t25.5 -3q51 -8 103.5 -19.5t100.5 -31.5q5 -2 5 -5t-3 -6q-45 -43 -96 -85t-105 -83
q-13 2 -24 4.5t-14 6.5q-4 2 -5 2q-3 0 -4 -4q-1 -2 -3 -8q0 -1 2 -7q3 -10 14 -13q2 -1 8 -1q-56 -42 -111.5 -81t-108.5 -75q-6 -4 -12 -6t-11 -3q-5 0 -12 -0.5t-15 -1.5t-13.5 -4t-9.5 -7q-14 -12 -27 -24t-28 -23q-2 -2 -3 -4l-1 -2l0.5 -1.5t2.5 -2.5q1 0 1.5 0.5
t1.5 0.5q5 2 13 5t13 6q17 15 35.5 21t39.5 6q20 0 40 -3l40 -6q54 -9 108.5 -27.5t108.5 -36.5t107.5 -31.5t107.5 -13.5q41 0 77 9q31 8 59 23.5t48 43.5q27 33 30 79z" />
    <glyph glyph-name="quoteleft" unicode="&#x2018;" horiz-adv-x="210" 
d="M296 455q0 4 -5 4q-3 0 -5 -2q-19 -20 -39.5 -45.5t-34.5 -48.5q-8 -14 -14.5 -29t-11.5 -29q-5 -17 -5 -32q0 -28 15 -47q3 -3 5 -3q4 0 7 3q11 11 19 22q1 2 1 5q0 5 -3 7q-11 7 -14 29q-1 4 -1.5 7.5t-0.5 8.5q0 14 3 28.5t11 28.5q11 20 30.5 45t40.5 44q2 2 2 4z
" />
    <glyph glyph-name="quoteright" unicode="&#x2019;" horiz-adv-x="210" 
d="M271 409q0 27 -15 47q-3 3 -6 3t-6 -3q-5 -5 -10 -11t-9 -11q-2 -4 -2 -5q0 -4 4 -7q11 -7 14 -29q1 -5 1 -16q0 -14 -2.5 -28.5t-10.5 -28.5q-11 -20 -30.5 -45t-40.5 -44q-2 -2 -2 -4q0 -4 5 -4q3 0 5 2q19 20 39.5 45.5t34.5 48.5q8 14 14.5 29t11.5 29q5 17 5 32z
" />
    <glyph glyph-name="quotedblleft" unicode="&#x201c;" horiz-adv-x="258" 
d="M343 445q0 4 -5 4q-3 0 -5 -2q-19 -20 -39.5 -45.5t-34.5 -48.5q-8 -14 -14.5 -29t-11.5 -29q-5 -17 -5 -32q0 -28 15 -47q3 -3 5 -3q4 0 7 3q11 11 19 22q1 2 1 5q0 5 -3 7q-5 3 -9.5 11t-6.5 18q-1 4 -1 14q0 14 4 29.5t11 29.5q11 20 31 46t40 43q2 2 2 4zM260 445
q0 4 -5 4q-3 0 -5 -2q-19 -20 -39.5 -45.5t-34.5 -48.5q-8 -14 -14.5 -29t-11.5 -29q-5 -17 -5 -32q0 -28 15 -47q3 -3 5 -3q4 0 7 3q11 11 19 22q1 2 1 5q0 5 -3 7q-5 3 -9 10.5t-6 18.5q-1 4 -1 14q0 14 3 29.5t11 29.5q10 18 30 44t41 45q2 2 2 4z" />
    <glyph glyph-name="quotedblright" unicode="&#x201d;" horiz-adv-x="258" 
d="M335 409q0 27 -15 47q-3 3 -6 3t-6 -3q-5 -5 -10 -11t-9 -11q-2 -4 -2 -5q0 -4 4 -7q5 -3 9 -10.5t6 -18.5q1 -5 1 -15q0 -14 -3 -28.5t-11 -29.5q-11 -21 -30 -45t-41 -44q-2 -2 -2 -4q0 -4 5 -4q3 0 5 2q19 20 39.5 45.5t34.5 48.5q8 14 14.5 29t11.5 29q5 17 5 32z
M252 409q0 27 -15 47q-3 3 -6 3t-6 -3q-5 -5 -10 -11t-9 -11q-2 -4 -2 -5q0 -4 4 -7q5 -3 9 -10.5t6 -18.5q1 -4 1 -14q0 -14 -3 -29.5t-11 -29.5q-11 -20 -31 -44.5t-40 -44.5q-2 -2 -2 -4q0 -4 5 -4q3 0 5 2q19 20 39.5 45.5t34.5 48.5q8 14 14.5 29t11.5 29q5 17 5 32z
" />
    <glyph glyph-name="bullet" unicode="&#x2022;" horiz-adv-x="500" 
d="M240 346q0 -36 13.5 -67.5t37 -55t55 -37t67.5 -13.5t67.5 13.5t55 37t37 55t13.5 67.5t-13.5 67.5t-37 55t-55 37t-67.5 13.5t-67.5 -13.5t-55 -37t-37 -55t-13.5 -67.5z" />
    <glyph glyph-name="endash" unicode="&#x2013;" horiz-adv-x="500" 
d="M500 127v15h-500v-15h500z" />
    <glyph glyph-name="emdash" unicode="&#x2014;" horiz-adv-x="1000" 
d="M870 136q0 3 -5.5 5l-5.5 2q-17 0 -60 -0.5t-100 -0.5q-56 0 -120.5 -0.5t-124.5 -0.5h-108h-74q-35 0 -67.5 0.5t-61.5 0.5h-1q-12 0 -12 -8q0 -7 10 -7h45h70t105.5 0.5t122.5 0.5t122.5 0.5t105.5 0.5h70q20 0 39 -0.5t36 -0.5h1q13 0 13 8z" />
    <glyph glyph-name="tilde" unicode="&#x2dc;" 
d="M226 359q0 5 -4 5q-6 0 -6 -7q0 -16 -8 -27q-12 -17 -30 -17q-12 0 -25 9q-8 5 -19.5 16.5l-19.5 19.5q-12 12 -25 12t-26 -10q-14 -11 -29 -25t-23 -25q-4 -6 -4 -8q0 -3 3 -3t7 5q6 8 15 18t19 18q13 10 24 10q7 0 12.5 -3t10.5 -7q8 -7 14.5 -13.5t20.5 -18.5
q16 -13 32 -13q26 0 48 30q5 8 7.5 16t4.5 16v1q1 0 1 1z" />
    <glyph glyph-name="trademark" unicode="&#x2122;" horiz-adv-x="431" 
d="M546 417q-1 -1 -9 -3.5t-10 -3.5l-2.5 -2t-3.5 -4q-3 -3 -10 -10.5t-18 -19.5q-7 -8 -16.5 -17.5t-21.5 -22.5t-20.5 -22t-16 -17t-14.5 -16.5t-16 -19.5l2 21q2 19 3 29.5t1 14.5q2 12 4 27.5t4 34.5l3 30q-2 -2 -6 -3t-9 -3q-8 -9 -13 -16q-8 -11 -14.5 -18.5
t-12.5 -14.5l-32 -36l-35 -39l-37 -43l-16 -19q5 2 9.5 3t9.5 3q10 14 17 23t24 30q10 11 18 21t15 18l33 37q11 12 15.5 17.5t13.5 14.5l-2 -20l-4 -49l-5 -44q-1 -11 -2 -18t-1.5 -11.5l-1 -9t-1.5 -11.5q2 1 9 5.5t9 4.5q11 16 23.5 31t24.5 30q4 6 12 14.5t17 18.5
t18.5 20t17.5 18q1 1 4.5 4t7 7t7 7.5l4.5 4.5l-12 -45q-3 -13 -5 -22.5t-4 -15.5l-8 -34l-8 -34l-3 -14q10 4 21 6q2 8 3.5 17.5t3.5 20.5q2 8 3.5 17t3.5 18q2 10 4.5 20t4.5 19q2 8 4 15.5t4 14.5l8 27zM321 417h-6l-35 -2l-42 -3q-16 -1 -32.5 -2t-32.5 -3
q-4 -1 -7.5 -1.5t-8.5 -1.5l-9 -13q5 2 9 2.5t8 1.5q8 2 14.5 2.5t14.5 2.5q9 2 18 2.5t18 2.5l-5 -11q-4 -9 -8 -17.5t-9 -17.5q-8 -14 -15 -29t-15 -29l-16 -30t-17 -29q-2 -5 -5 -9t-7 -10q6 2 9 2q4 0 16 2l4 9q7 15 14 29.5t15 28.5q6 11 16 30t15 28q8 15 12 21.5
t12 21.5q1 2 2.5 4.5t3.5 5.5q11 2 24 2.5t22 0.5t14 -2z" />
    <glyph glyph-name="scaron" unicode="&#x161;" horiz-adv-x="172" 
d="M263 386q0 1 -2 5q-2 2 -3 2q-4 0 -13 -12q-14 -17 -35.5 -39.5t-40.5 -38.5q-3 -3 -5 -3q-4 0 -4 6q-2 24 -2 47v43q0 7 -3 7t-6 -3q-2 -2 -5 -4t-7 -5q-5 -4 -5 -12v-3q1 -19 3.5 -43.5t3.5 -52.5q0 -5 5 -5q3 0 4 1q7 5 15.5 12.5t16.5 15.5q17 17 36.5 35.5
t38.5 34.5q8 6 8 12zM207 229q2 5 0 11t-8 11q-7 6 -16 4.5t-17 -5.5q-12 -6 -25.5 -18t-24.5 -26q-8 -11 -14 -21.5t-9 -29.5l-5 -37.5t-5 -42.5q-3 -24 -8.5 -49.5t-15.5 -48.5t-24 -43t-35 -32q-20 -12 -44 -18t-46.5 -4t-39.5 12.5t-24 31.5q-2 5 -5 4t-2 -6
q4 -17 12.5 -36t21.5 -23q20 -6 53 0.5t62 21.5q29 14 55 37.5t43 50.5q20 32 27 66.5t11 77.5q2 21 4 44t7 43q4 17 15.5 22.5t24.5 3.5q15 -3 13 -16q-1 -5 1.5 -7t6.5 3q3 4 6 9t5 10z" />
    <glyph glyph-name="guilsinglright" unicode="&#x203a;" horiz-adv-x="275" 
d="M267 114q0 2 -2 6q-8 11 -16 24t-16 27t-15.5 27t-13.5 23q-4 7 -11 7q-4 0 -6 -1t-6.5 -2t-8.5 -2q-5 -2 -5 -4t2 -6q17 -26 32.5 -54t30.5 -49q4 -5 4 -9q0 -5 -7 -11q-29 -27 -63.5 -56t-63.5 -51q-6 -5 -6 -8t3 -4q2 -1 5 -1q5 0 9.5 3t6.5 5q30 32 69.5 66.5
t73.5 60.5q4 3 4 9z" />
    <glyph glyph-name="oe" unicode="&#x153;" horiz-adv-x="346" 
d="M426 97q0 4 -3 4q-1 0 -3 -2q-15 -16 -34.5 -30.5t-40.5 -27t-42 -21.5t-39 -14q-15 -4 -32 -4t-31 7.5t-15 27.5q0 5 1 10.5t3 10.5l9 24q23 9 49.5 20.5t49.5 25t39.5 28.5t20.5 29q1 4 1.5 7t0.5 6q0 18 -22 18q-13 0 -26.5 -4.5t-24.5 -9.5q-38 -17 -76 -55q1 2 1 4
t1 4q1 5 1 9v8q0 11 -2.5 20.5t-4.5 23.5q-2 6 -7 6q-2 0 -6 -2q-2 -1 -3.5 -2.5l-3.5 -3.5t-4.5 -3.5t-4.5 -2.5q-3 -2 -3 -5q-15 -7 -30 -19q-26 -20 -50.5 -44.5t-43.5 -60.5q-7 -13 -11.5 -26.5t-3.5 -27.5q2 -31 33 -31q15 0 33.5 9t38.5 28q2 2 3.5 3t3.5 3
q0 -2 -0.5 -4.5t-0.5 -4.5q0 -25 16.5 -34t38.5 -9q11 0 23 1.5t26 5.5q44 12 91 40t82 61q2 2 2 4zM322 177q-2 -16 -14 -28.5t-32 -24.5q-16 -10 -35 -18t-37 -14q14 29 35 55t47 44q11 8 21 8q15 0 15 -18v-4zM180 158q-3 -39 -18.5 -78t-50.5 -64q-14 -9 -22 -9
q-15 0 -15 25q0 42 22.5 81.5t60.5 67.5q10 7 14 7q9 0 9 -21v-9z" />
    <glyph glyph-name="zcaron" horiz-adv-x="274" 
d="M353 386q0 1 -2 5q-2 2 -3 2q-4 0 -13 -12q-14 -17 -35.5 -39.5t-40.5 -38.5q-3 -3 -5 -3q-4 0 -4 6q-2 24 -2 47v43q0 7 -3 7t-6 -3q-2 -2 -5 -4t-7 -5q-5 -4 -5 -12v-3q1 -19 3.5 -43.5t3.5 -52.5q0 -5 5 -5q3 0 4 1q7 5 15.5 12.5t16.5 15.5q17 17 36.5 35.5
t38.5 34.5q8 6 8 12zM560 -104q0 3 -4 3l-4 -2q-44 -40 -97 -40q-18 0 -36 5t-35 13q-37 18 -76 42t-81 50q-23 14 -45.5 28t-46.5 26q6 5 11.5 9.5t11.5 9.5q12 11 26.5 25.5t29.5 31l30 33t28 31.5q10 11 19.5 21.5t18.5 20.5q2 2 2 5q0 4 -4 4q-1 0 -3 -2
q-10 -11 -19 -21t-20 -22q-25 11 -50.5 18t-49.5 9q-5 0 -8.5 0.5t-7.5 0.5q-9 0 -15.5 -2t-9.5 -10q-5 -12 -12 -23.5t-14 -18.5q-2 -2 -2 -4q0 -3 2 -3t5 3q5 6 15.5 11t22.5 6q4 0 7.5 0.5t7.5 0.5q21 0 44 -4t40 -12q-26 -29 -46 -50t-43 -43q-6 -5 -12.5 -10.5
t-13.5 -10.5q-22 11 -44 19t-47 13q-15 3 -30 3q-28 0 -50 -12q-17 -10 -17 -26q0 -6 2.5 -12.5t9.5 -11.5q26 -22 67 -22q20 0 43 6t46 20q30 -18 59.5 -37t58.5 -39q34 -23 72 -40.5t70 -25.5q44 -11 79 -11q29 0 56.5 9t55.5 32q3 3 3 6zM97 7q-10 -6 -20 -10
q-21 -8 -40 -8q-38 0 -63 27q-10 12 -10 18q0 16 22 16h4q19 0 38 -7.5t41 -19.5q16 -8 28 -16z" />
    <glyph glyph-name="zcaron" unicode="&#x17e;" horiz-adv-x="274" 
d="M353 386q0 1 -2 5q-2 2 -3 2q-4 0 -13 -12q-14 -17 -35.5 -39.5t-40.5 -38.5q-3 -3 -5 -3q-4 0 -4 6q-2 24 -2 47v43q0 7 -3 7t-6 -3q-2 -2 -5 -4t-7 -5q-5 -4 -5 -12v-3q1 -19 3.5 -43.5t3.5 -52.5q0 -5 5 -5q3 0 4 1q7 5 15.5 12.5t16.5 15.5q17 17 36.5 35.5
t38.5 34.5q8 6 8 12zM560 -104q0 3 -4 3l-4 -2q-44 -40 -97 -40q-18 0 -36 5t-35 13q-37 18 -76 42t-81 50q-23 14 -45.5 28t-46.5 26q6 5 11.5 9.5t11.5 9.5q12 11 26.5 25.5t29.5 31l30 33t28 31.5q10 11 19.5 21.5t18.5 20.5q2 2 2 5q0 4 -4 4q-1 0 -3 -2
q-10 -11 -19 -21t-20 -22q-25 11 -50.5 18t-49.5 9q-5 0 -8.5 0.5t-7.5 0.5q-9 0 -15.5 -2t-9.5 -10q-5 -12 -12 -23.5t-14 -18.5q-2 -2 -2 -4q0 -3 2 -3t5 3q5 6 15.5 11t22.5 6q4 0 7.5 0.5t7.5 0.5q21 0 44 -4t40 -12q-26 -29 -46 -50t-43 -43q-6 -5 -12.5 -10.5
t-13.5 -10.5q-22 11 -44 19t-47 13q-15 3 -30 3q-28 0 -50 -12q-17 -10 -17 -26q0 -6 2.5 -12.5t9.5 -11.5q26 -22 67 -22q20 0 43 6t46 20q30 -18 59.5 -37t58.5 -39q34 -23 72 -40.5t70 -25.5q44 -11 79 -11q29 0 56.5 9t55.5 32q3 3 3 6zM97 7q-10 -6 -20 -10
q-21 -8 -40 -8q-38 0 -63 27q-10 12 -10 18q0 16 22 16h4q19 0 38 -7.5t41 -19.5q16 -8 28 -16z" />
    <glyph glyph-name="Ydieresis" unicode="&#x178;" horiz-adv-x="635" 
d="M640 632q0 12 -13 12q-14 0 -23.5 -11.5t-9.5 -24.5q0 -12 12 -12q13 0 23.5 12t10.5 24zM538 636q0 12 -13 12q-14 0 -23.5 -11.5t-9.5 -24.5q0 -12 12 -12q13 0 23.5 12t10.5 24zM831 547q0 16 -15 16q-12 0 -27 -12q-19 -14 -40.5 -34.5t-42.5 -43.5
q-14 -15 -31.5 -35.5t-36 -44t-37.5 -48.5t-35 -48q-23 -32 -47.5 -68t-51.5 -79q-36 -22 -58 -22q-49 0 -49 106q0 42 2.5 87.5t4.5 84.5v17q0 47 -16 72.5t-49 25.5q-19 0 -43 -9q-26 -10 -48 -24t-40 -28q-20 -17 -45 -39t-42 -42q-2 -2 -2 -5t3 -3t6 3q18 19 43.5 42.5
t51.5 42.5q38 28 69 28q52 0 66 -78q5 -25 6.5 -55.5t1.5 -62.5q0 -23 -0.5 -44.5t-2.5 -39.5q-1 -6 -1 -12v-11q0 -82 50 -82q31 0 81 30q-7 -11 -13.5 -22t-13.5 -22q-10 -15 -23 -36.5t-27 -46.5t-27.5 -50.5t-22.5 -49.5q-13 -35 -13 -67q0 -39 20.5 -66t59.5 -35
q11 -2 22.5 -2.5t22.5 -0.5q35 0 68 5.5t62 13.5q30 8 55 12.5t44 4.5q6 0 11 -0.5t10 -1.5q27 -6 27 -21q0 -13 -17 -28q-16 -15 -26 -17q-9 -2 -9 -5v-1q1 0 1 -1q3 -5 8 -5q4 0 6 1q6 3 12 9t18 15q10 8 21.5 19.5t19.5 25.5q5 7 5 18q0 17 -20 22q-10 2 -17 2
q-17 0 -35 -4.5t-38 -10.5q-13 -4 -30 -9.5t-37 -10.5t-41.5 -9.5t-44.5 -5.5h-8q-52 0 -88.5 30t-39.5 82q0 4 -0.5 8t-0.5 8q0 32 9.5 62.5t31.5 70.5q14 26 34.5 61t43.5 70q40 26 79 59.5t72 68.5q28 29 59.5 65.5t56.5 68.5t45.5 60.5t33.5 51.5q9 18 9 29zM779 512
q0 -8 -6.5 -22t-13.5 -25q-55 -92 -118.5 -162.5t-132.5 -124.5q-5 -4 -10 -7.5t-10 -7.5l22 34t21 31q39 57 81 112.5t77 97.5q23 28 41 46t38 35q4 3 6 3q5 0 5 -10z" />
    <glyph glyph-name="exclamdown" unicode="&#xa1;" horiz-adv-x="220" 
d="M235 223q0 18 -19 18q-13 0 -22 -9q-10 -10 -10 -25q0 -8 5 -16t16 -8q6 0 9 1q12 4 16.5 15.5t4.5 23.5zM195 137q0 4 -5 4q-3 0 -4 -3q-19 -44 -39 -87t-40.5 -81.5t-42.5 -69.5t-44 -49q-10 -8 -21 -8h-2h-1q-3 0 -3 -4q0 -3 2 -4q4 -2 9 -2.5t12 -2.5q5 -1 8.5 -1.5
t7.5 -0.5q32 0 48 31q27 52 55.5 121.5t58.5 155.5v1h1z" />
    <glyph glyph-name="cent" unicode="&#xa2;" horiz-adv-x="340" 
d="M413 459q0 3 -3 3l-4 -2q-5 -4 -9 -9.5t-8 -10.5q-5 -8 -12 -17.5t-17 -23.5q-8 -11 -15.5 -22.5t-15.5 -23.5h-9q-5 0 -11 -0.5t-11 -1.5q-17 -3 -35.5 -10.5t-32.5 -16.5q-44 -29 -74 -64q-13 -15 -28.5 -37t-29.5 -46.5t-23.5 -49.5t-9.5 -45q0 -15 6.5 -27t20.5 -16
q13 -4 31 -4h12q-19 -34 -36 -67t-34 -65q-8 -17 -14 -31.5t-11 -26.5q-1 -3 -1 -8q0 -6 1 -8q4 -10 10 -18q1 -3 4 -3q2 0 2 5q-2 6 -2 12q0 2 0.5 3t0.5 3q2 9 6 21t8.5 25t9.5 25.5t10 22.5q12 26 26.5 54t30.5 58q35 6 67 22q46 22 83 48t60 59q2 4 2 5q0 3 -2 3t-5 -3
q-29 -29 -62 -56.5t-74 -46.5q-14 -6 -29 -10t-30 -2q37 67 78.5 135.5t83.5 128.5q3 -2 5 -3t4 -3q8 -7 14 -14.5t8 -16.5q2 -7 3 -7q2 0 5 4q3 5 8 11t11 8q8 3 6 12q-3 20 -24 33q-9 4 -18 7q14 19 26.5 36t25.5 32q16 19 20 36q0 1 0.5 2t0.5 2zM309 324
q-42 -63 -83 -130.5t-79 -136.5q-20 4 -28 14.5t-8 30.5q0 15 4.5 33t11 36t15 34.5t16.5 28.5q14 23 30.5 43t45.5 39q11 7 23 10t23 3q14 0 29 -5z" />
    <glyph glyph-name="sterling" unicode="&#xa3;" horiz-adv-x="461" 
d="M478 401q0 9 -6 12q-16 7 -35 7q-54 0 -97 -30q-14 -10 -25.5 -19t-21 -19.5t-19 -22t-19.5 -26.5q-12 -17 -25 -39t-27 -46h-12q-10 0 -21 -0.5t-21 -0.5q-6 0 -10.5 0.5t-9.5 0.5h-2q-7 0 -7 -5q0 -2 3 -5q5 -4 16 -4q8 0 12 1q11 2 23 2.5t24 1.5l-12 -23
q-16 -29 -33.5 -51t-34.5 -39q-7 -7 -13 -11.5t-11 -8.5q-10 -7 -21.5 -14.5t-20.5 -14.5q-10 -8 -22 -18t-22 -21q-6 -6 -6 -15q0 -6 4 -10q3 -3 6 -3t6 3q12 11 21.5 23.5t19.5 25.5q9 11 20 20t19 15q15 11 35 11q8 0 15.5 -1t16.5 -3q13 -2 24.5 -9t22.5 -15
q10 -8 20 -17t18 -16q17 -15 36.5 -30t40.5 -22q17 -5 29 -5q20 0 37 11t32 23t30 28q5 6 11.5 14.5t9.5 15.5v3q0 3 -3 3t-4 -4q-4 -12 -19 -27q-34 -34 -69 -34q-31 0 -73 28q-20 14 -40.5 29t-43.5 24q-32 12 -65 12q-21 0 -38 -4h-1q-2 0 -2 1q0 2 1 3q26 24 46.5 50
t40.5 55q3 5 6 9.5t6 9.5q8 0 16 0.5t16 0.5q40 0 73 -3q9 -1 18 -1.5t18 -0.5h8q7 0 7 6q0 2 -1 4q-3 8 -15 8h-2q-38 -2 -70 -3.5t-63 -2.5q14 23 26 44t21 37q16 28 33 49t40 35q11 7 24.5 10t27.5 3q30 0 50 -14q12 -9 15 -18q1 -5 3 -5t4 5q2 7 4 14.5t5 12.5q2 3 2 10
z" />
    <glyph glyph-name="currency" unicode="&#xa4;" horiz-adv-x="389" 
d="M435 233q0 -27 -10 -52t-28 -44t-42.5 -30.5t-52.5 -11.5q-29 0 -53.5 11.5t-42.5 30.5t-28 44t-10 52t10 52t28 44t42.5 30.5t53.5 11.5q28 0 52.5 -11.5t42.5 -30.5t28 -44t10 -52zM404 360q-21 17 -47 27t-55 10t-55.5 -10t-47.5 -27l-36 37l-25 -25l36 -37
q-17 -20 -26.5 -46.5t-9.5 -55.5t9.5 -55.5t26.5 -46.5l-36 -37l25 -25l36 37q21 -17 47.5 -27t55.5 -10t55 10t47 27l36 -37l25 25l-36 37q36 42 36 102t-36 102l36 37l-25 25z" />
    <glyph glyph-name="yen" unicode="&#xa5;" horiz-adv-x="410" 
d="M605 443q0 1 -4 5q-2 2 -5 3.5t-5 3.5q-4 2 -5 2q-4 0 -8 -4q-12 -11 -30 -24t-36 -27q-52 -40 -101 -84.5t-97 -94.5q-5 -5 -7 -5t-2 3q0 1 0.5 1.5t0.5 1.5q8 23 13.5 46t5.5 53q0 39 -26.5 66.5t-68.5 27.5q-30 0 -52.5 -6.5t-39.5 -17.5q-15 -9 -31 -26t-24 -28
q-1 -1 -1 -4q0 -4 3 -4t5 4q6 11 19 25.5t31 22.5q25 11 49 11q29 0 53.5 -15t35.5 -45q9 -24 9 -51q0 -15 -2.5 -30.5t-7.5 -30.5q-2 -10 -12 -11q-14 -2 -29 -2h-29h-15q-12 0 -16 -7q-1 -2 -1 -4q0 -4 6 -4h4q17 2 38.5 4.5t38.5 2.5h1q5 0 5 -3v-2q-2 -8 -6 -17t-6 -14
q-5 -9 -12 -9q-23 -2 -44 -2.5t-38 -1.5q-13 -1 -19 -6q-3 -2 -3 -5q0 -1 1 -2t5 -1h3q23 3 45.5 5.5t41.5 2.5h1q7 0 7 -4l-2 -6q-11 -24 -27 -54t-30 -51q-6 -9 -13.5 -16t-16.5 -9q-3 -1 -7 -1h-6q-7 0 -13.5 0.5t-12.5 0.5q-11 0 -11 -6q0 -2 3 -5t11 -3q2 0 4.5 0.5
t5.5 0.5q18 2 38 4.5t39 4.5q9 1 18 1h19q11 0 21.5 -0.5t21.5 -1.5h1q6 0 6 5q0 7 -7 7h-1q-8 0 -16.5 -1t-17.5 -1q-5 0 -8.5 0.5t-7.5 0.5q-14 2 -14 9q0 4 3 9q12 24 27 56.5t27 55.5q3 7 11 7q25 2 44 2h41q8 0 8 7q0 4 -6 4q-17 0 -38.5 -1.5t-44.5 -1.5h-1q-5 0 -5 2
q0 1 0.5 2t0.5 2q2 5 7 14.5t7 14.5q5 10 12 10q20 1 41 1h44q10 0 10 7q0 4 -6 4q-15 0 -36.5 -1.5t-42.5 -1.5q-4 0 -4 2t3 5q38 38 79.5 74t83.5 66q27 20 56.5 37t55.5 37q7 5 7 9z" />
    <glyph glyph-name="brokenbar" unicode="&#xa6;" horiz-adv-x="222" 
d="M208 -175h30v350h-30v-350zM208 325h30v350h-30v-350z" />
    <glyph glyph-name="section" unicode="&#xa7;" horiz-adv-x="301" 
d="M343 377q0 14 -16 20q-14 6 -29 6t-33 -6q-29 -9 -48 -26.5t-32 -43.5q-9 -19 -11 -41q-39 -19 -59 -58q-9 -17 -9 -36q0 -16 7 -30q8 -17 21 -32.5t26 -30.5t24 -31t16 -35q2 -10 2 -17q0 -16 -6 -29q-13 -29 -40.5 -44.5t-65.5 -15.5q-15 0 -31 3q-32 5 -53 23.5
t-29 43.5q-3 9 -3 19q0 8 1.5 16.5t3.5 16.5v2q0 4 -2 4t-4 -4q-4 -8 -6.5 -22.5t-2.5 -31.5v-8q2 -38 26 -62.5t64 -24.5h3q22 0 46 6t45 18t38 29t27 38q5 11 8.5 25t3.5 27q8 8 16.5 18.5t14.5 22.5q11 22 11 46q0 25 -12 49q-5 11 -12 21.5t-15 21.5t-14 22t-11 22
q-9 21 -9 38q0 24 17 45q11 14 27 21.5t33 7.5q20 0 36 -11q13 -10 13 -20q0 -5 -1 -7v-1q0 -5 4 -5q2 0 4 4q2 5 6 11.5t7 12.5q3 7 3 13zM251 113q0 -34 -27 -58q-4 25 -21 50q-8 12 -16.5 23t-17.5 23t-17 24.5t-13 28.5q-4 9 -4 22q0 14 9 26q7 8 13.5 14t16.5 10
q4 -29 21 -55q6 -9 11.5 -16t11.5 -15q13 -16 21 -31q12 -21 12 -46z" />
    <glyph glyph-name="dieresis" unicode="&#xa8;" 
d="M175 328q0 13 -13 13q-14 0 -23.5 -12t-9.5 -25q0 -12 12 -12q13 0 23.5 12t10.5 24zM103 334q0 13 -13 13q-14 0 -23.5 -12t-9.5 -25q0 -12 12 -12q13 0 23.5 12t10.5 24z" />
    <glyph glyph-name="copyright" unicode="&#xa9;" horiz-adv-x="567" 
d="M614 273q0 84 -49.5 130.5t-139.5 46.5q-63 0 -119.5 -24.5t-99.5 -66t-68.5 -96.5t-25.5 -116q0 -39 13.5 -71t38 -54.5t58.5 -35t76 -12.5q64 0 121.5 24t101 65t68.5 95t25 115zM588 276q0 -60 -20 -113t-56 -92.5t-87 -62.5t-113 -23q-37 0 -68.5 12.5t-55 34.5
t-36.5 52t-13 65q0 58 21.5 110.5t59.5 93t89 64.5t110 24q78 0 123.5 -42t45.5 -123zM500 302q-5 35 -26 49.5t-66 14.5q-37 0 -70 -16t-57.5 -43t-39 -63t-14.5 -77q0 -51 27.5 -79.5t76.5 -28.5q31 0 55.5 10t48.5 33l-6 27q-20 -24 -38.5 -41t-53.5 -17q-38 0 -60 24
t-22 66q0 38 12.5 72.5t34 61t49.5 42.5t58 16q58 0 64 -65z" />
    <glyph glyph-name="ordfeminine" unicode="&#xaa;" horiz-adv-x="269" 
d="M344 218q0 3 -3 3q-2 0 -4 -2q-9 -10 -24.5 -21.5t-28.5 -17.5q-18 -8 -29 -8q-24 0 -24 31v9q0 5 2 11q9 45 28.5 90t48.5 89q2 4 2 5t-2 5q-5 7 -5 15q0 6 -5 6q-3 0 -7 -4q-8 -11 -16.5 -26t-14.5 -27q-17 0 -34 -8t-32 -19q-29 -20 -59 -50.5t-50 -66.5
q-9 -18 -9 -30q0 -18 17 -18q5 0 12.5 2t15.5 7q29 17 56.5 48.5t53.5 66.5q-9 -19 -16.5 -36t-12.5 -34q-6 -18 -8.5 -32.5t-2.5 -25.5q0 -33 27 -33q11 0 24.5 4t32.5 14q18 9 36 23t30 27q1 1 1 3zM257 366q-23 -45 -51.5 -80.5t-56.5 -61.5q-13 -11 -18 -11q-7 0 -7 10
q0 5 3 16q4 13 12.5 27t18 27.5t19 24.5t17.5 18q15 14 32 22t31 8z" />
    <glyph glyph-name="guillemotleft" unicode="&#xab;" horiz-adv-x="311" 
d="M337 219q0 5 -5 5q-3 0 -4 -1q-12 -9 -29 -23.5t-31 -27.5q-19 -17 -37.5 -32t-36.5 -29q-5 -4 -5 -10q0 -4 1 -6t6.5 -18t12.5 -35t13 -34.5t6 -17.5q1 -3 2.5 -6t4.5 -3q2 0 3 1q11 5 20 8q5 1 5 5q0 2 -1 4q-10 22 -22.5 55t-19.5 55q-1 2 -1 6q0 5 6 10
q29 23 53.5 43.5t55.5 44.5q3 2 3 6zM277 228v2q0 5 -4 5q-2 0 -3 -1q-28 -20 -60.5 -46.5t-62.5 -50.5q-10 -8 -20 -16.5t-18 -13.5q-7 -4 -7 -9v-2q10 -30 18.5 -60.5t14.5 -52.5q2 -8 7 -8q2 0 4 1q4 2 9.5 3t9.5 2q5 0 6 1l0.5 0.5t0.5 1.5l-2 6q-5 12 -10.5 26.5
t-10.5 29t-9 28t-7 23.5q-2 8 -2 10q0 6 9 14q14 11 30 23.5t32.5 25t31.5 24t27 20.5q2 2 5 3.5t5 3.5q4 2 6 7z" />
    <glyph glyph-name="logicalnot" unicode="&#xac;" horiz-adv-x="713" 
d="M15 233h610v-233h55v288h-665v-55z" />
    <glyph glyph-name="registered" unicode="&#xae;" horiz-adv-x="410" 
d="M484 347q0 51 -31.5 78.5t-89.5 27.5q-40 0 -75.5 -14.5t-62.5 -39t-42.5 -57.5t-15.5 -69q0 -48 32.5 -75.5t87.5 -27.5q40 0 76 14t63 38t42.5 56.5t15.5 68.5zM468 339q0 -34 -13.5 -63.5t-37.5 -51.5t-55.5 -34.5t-67.5 -12.5q-48 0 -79 27t-31 69q0 35 14 66.5
t38.5 55t56.5 37.5t68 14q107 0 107 -107zM401 375q0 18 -11.5 25.5t-39.5 7.5q-6 0 -12.5 -0.5t-12.5 -0.5q-10 -21 -19 -41.5t-20 -40.5q-12 -25 -24.5 -49t-25.5 -48q10 3 22 3q11 23 21 46t21 46q10 20 20 39t21 39h8q33 0 33 -23t-19.5 -39t-47.5 -16h-9l-1 -2
q7 -9 15 -20t16 -23.5t15.5 -25t12.5 -23.5q9 5 20 5q-14 20 -28 41.5t-30 41.5q36 5 55.5 20t19.5 38z" />
    <glyph glyph-name="macron" unicode="&#xaf;" 
d="M169 335l-86 -2l-5 -15l88 2z" />
    <glyph glyph-name="macron" unicode="&#x2c9;" 
d="M169 335l-86 -2l-5 -15l88 2z" />
    <glyph glyph-name="degree" unicode="&#xb0;" horiz-adv-x="228" 
d="M309 355q0 25 -17 41.5t-42 16.5t-44 -18.5t-19 -43.5t17 -41.5t42 -16.5t44 18.5t19 43.5zM296 355q0 -20 -15 -35t-35 -15t-33 13t-13 33t15 35t35 15t33 -13t13 -33z" />
    <glyph glyph-name="plusminus" unicode="&#xb1;" horiz-adv-x="400" 
d="M237 178h-124v-30h124v-100h30v100h124v30h-124v100h-30v-100zM113 0h278v30h-278v-30z" />
    <glyph glyph-name="twosuperior" unicode="&#xb2;" horiz-adv-x="321" 
d="M368 249q0 4 -4 4q-2 0 -3 -2q-15 -20 -38 -20q-4 0 -8 0.5t-9 1.5q-22 4 -47.5 12t-44.5 17q-2 1 -2 3l1 1q18 11 41.5 28t43.5 33q8 6 14.5 13.5t10.5 15.5q3 6 3 13q0 10 -6.5 17.5t-17.5 11.5q-9 3 -18 3q-14 0 -31 -7q-5 -2 -9 -4l-8 -4l-14 -7q-3 -2 -3 -4
q0 -4 3 -4q2 0 4 2q9 9 22 12q4 1 7 1.5t7 0.5q11 0 16 -4q14 -9 14 -24q0 -5 -1 -8q-6 -21 -29 -41q-13 -11 -30 -23.5t-31 -21.5q-15 -10 -28 -18l-26 -16q-4 -3 -4 -5q0 -3 3 -3l4 2q5 4 11.5 8.5t12.5 7.5q4 2 7 2q4 0 6 -1q17 -7 38 -13.5t39 -10.5q12 -3 23 -3
q18 0 31 4q15 4 26.5 11t21.5 16q2 2 2 3z" />
    <glyph glyph-name="threesuperior" unicode="&#xb3;" horiz-adv-x="321" 
d="M328 372q0 15 -13 24q-5 3 -11 4t-12 1q-5 0 -8.5 -0.5t-7.5 -1.5q-11 -3 -22 -8t-19 -11q-2 -1 -2 -4q0 -2 2 -2t3 1q17 14 36 14q11 0 18 -7t7 -18q0 -13 -6 -21t-15 -16t-24 -17.5t-26 -15.5q-3 -2 -3 -4q0 -3 3 -3q2 0 3 1q8 7 17 7h2q8 0 16.5 -5t13.5 -14
q6 -12 6 -25q0 -23 -17.5 -41t-48.5 -20h-4q-18 0 -30 9t-12 23q0 5 -2 5t-3 -4q-2 -6 -2 -11q0 -6 1 -8q3 -14 14 -20.5t25 -6.5q10 0 22 3q13 4 28 13.5t28 22t21 27.5t8 30q0 11 -6 22q-11 18 -31 20h-2v1v0q0 1 1 1q2 2 6 4.5t8 4.5q10 7 19 14.5t15 16.5q4 7 4 15z" />
    <glyph glyph-name="acute" unicode="&#xb4;" 
d="M197 393q0 4 -3 7t-5 3q-1 0 -5 -2q-38 -30 -78 -63t-76 -61q-3 -3 -3 -4q0 -2 2 -2q1 0 5 2q42 29 83.5 58.5t76.5 56.5q3 3 3 5z" />
    <glyph glyph-name="mu" unicode="&#xb5;" horiz-adv-x="576" 
d="M61 500v-492q0 -22 -2.5 -37.5t-6.5 -30t-8.5 -29.5t-8.5 -36q-4 -25 -1 -43.5t10 -30.5t17 -18t20 -6t20 6t17 18t10 30.5t-1 43.5q-4 21 -9 36t-9.5 29.5t-8 30t-3.5 37.5v23q5 -4 14 -12t21 -16t26.5 -14t32.5 -6q27 0 52 8t42 21q35 26 49 42.5t21 26.5
q5 -24 10 -43.5t31 -39.5q5 -4 15 -8.5t23.5 -6t30 1t34.5 12.5q19 10 31 23t19.5 26.5t11 27.5t6.5 27h-20q-3 -6 -4 -14.5t-4 -17.5t-8 -17t-15 -14q-29 -16 -53 8q-11 11 -17 30.5t-6 39.5v384h-86v-372q-5 -12 -14 -22.5t-19 -19.5t-20.5 -15.5t-19.5 -10.5
q-39 -17 -82 1q-30 14 -41 42.5t-11 63.5v333h-86z" />
    <glyph glyph-name="mu" unicode="&#x3bc;" horiz-adv-x="576" 
d="M61 500v-492q0 -22 -2.5 -37.5t-6.5 -30t-8.5 -29.5t-8.5 -36q-4 -25 -1 -43.5t10 -30.5t17 -18t20 -6t20 6t17 18t10 30.5t-1 43.5q-4 21 -9 36t-9.5 29.5t-8 30t-3.5 37.5v23q5 -4 14 -12t21 -16t26.5 -14t32.5 -6q27 0 52 8t42 21q35 26 49 42.5t21 26.5
q5 -24 10 -43.5t31 -39.5q5 -4 15 -8.5t23.5 -6t30 1t34.5 12.5q19 10 31 23t19.5 26.5t11 27.5t6.5 27h-20q-3 -6 -4 -14.5t-4 -17.5t-8 -17t-15 -14q-29 -16 -53 8q-11 11 -17 30.5t-6 39.5v384h-86v-372q-5 -12 -14 -22.5t-19 -19.5t-20.5 -15.5t-19.5 -10.5
q-39 -17 -82 1q-30 14 -41 42.5t-11 63.5v333h-86z" />
    <glyph glyph-name="paragraph" unicode="&#xb6;" horiz-adv-x="500" 
d="M416 245l4 2l18 5q13 3 20.5 8.5t14.5 15.5l5 8q2 2 2.5 3.5l0.5 1.5q0 2 -2 2l-10 -2q-9 -1 -17.5 -2t-16.5 -3l-21 -35q-13 -2 -20 -4t-20 -6q-11 -4 -20 -7t-17 -6q-22 -9 -40.5 -21.5t-33.5 -26.5q-11 -10 -21.5 -23.5t-20.5 -27.5q-12 -20 -18.5 -37t-6.5 -34
q0 -27 18.5 -42t52.5 -15h9l-112 -200h20q8 22 22.5 52t30.5 59.5t29.5 54t19.5 35.5h4q17 0 26 1t20 4t20 8t17 11q11 8 14 18q1 5 1 15q0 9 -2 9t-2 -4q-4 -23 -31 -39q-14 -8 -30 -12.5t-30 -4.5h-4z" />
    <glyph glyph-name="periodcentered" unicode="&#xb7;" horiz-adv-x="220" 
d="M201 205q0 13 -12 16q-2 1 -6 1q-8 0 -16 -4.5t-14.5 -11t-10 -15t-3.5 -17.5v-3q0 -8 5.5 -11.5t12.5 -3.5q5 0 7 1q12 5 22 15.5t14 24.5q1 3 1 8z" />
    <glyph glyph-name="periodcentered" unicode="&#x2219;" horiz-adv-x="220" 
d="M201 205q0 13 -12 16q-2 1 -6 1q-8 0 -16 -4.5t-14.5 -11t-10 -15t-3.5 -17.5v-3q0 -8 5.5 -11.5t12.5 -3.5q5 0 7 1q12 5 22 15.5t14 24.5q1 3 1 8z" />
    <glyph glyph-name="cedilla" unicode="&#xb8;" 
d="M165 -7q0 2 -4 2h-2q-14 -5 -31 -16t-27 -21q-6 -6 -6 -13t7 -12l10 -6t9 -6q6 -5 6 -11t-7 -13q-6 -5 -15.5 -11t-16.5 -9t-15 -6t-13 -5t-5 -4q0 -1 2 -3q3 -3 6 -3t7 2q17 8 38 22.5t36 27.5q13 10 13 21q0 12 -19 21q-13 6 -13 12q0 5 9 13q5 4 14 8.5t14 6.5
q3 1 3 3z" />
    <glyph glyph-name="onesuperior" unicode="&#xb9;" horiz-adv-x="321" 
d="M341 395q0 5 -7 5q-26 0 -50 -1.5t-50 -1.5q-5 0 -5 -3t3 -4.5t5 -1.5q11 0 21 1t21 1q5 0 12 -0.5t7 -7.5q0 -3 -1 -4q-13 -29 -32.5 -66t-42.5 -70q-4 -5 -8.5 -6.5t-10.5 -2.5q-7 -1 -15 -0.5t-14 0.5t-12 -2q-4 -1 -4 -3q0 -3 3 -4q4 -3 11 -3h7q27 4 69 6
q6 0 12 0.5t12 0.5q8 0 15.5 -0.5t14.5 -1.5h8q5 0 8 2q2 1 2 4q0 5 -8 5q-10 0 -23.5 -0.5t-23.5 -0.5q-9 0 -9 4q0 1 2 5q4 9 10.5 22t12.5 24q14 25 25.5 46t22.5 39q2 3 4.5 7t4.5 7q3 3 3 5z" />
    <glyph glyph-name="ordmasculine" unicode="&#xba;" horiz-adv-x="237" 
d="M282 357q0 28 -20 28q-19 0 -51 -26q-26 -20 -50.5 -44.5t-43.5 -60.5q-8 -15 -11.5 -27.5t-3.5 -22.5q0 -17 9 -26t24 -9t33.5 9t38.5 28q29 29 46.5 58t25.5 66q3 15 3 27zM246 334q-3 -39 -18.5 -78.5t-50.5 -64.5q-14 -9 -22 -9q-15 0 -15 25q0 42 22.5 82t60.5 68
q9 6 14 6q9 0 9 -21v-8z" />
    <glyph glyph-name="guillemotright" unicode="&#xbb;" horiz-adv-x="311" 
d="M317 116q0 5 -4 11q-14 20 -28 45t-23 49q-3 8 -9 8h-3q-4 -1 -8.5 -2.5t-8.5 -3.5q-7 -4 -7 -8l2 -4q15 -28 28 -54.5t27 -47.5q2 -4 2 -5q0 -2 -2 -4q-29 -23 -57 -47t-60 -51q-5 -5 -5 -8q0 -5 5 -5q4 0 8 4q14 14 32 30t37 31.5t37.5 30t33.5 25.5q3 1 3 6zM231 114
q0 2 -2 6q-8 11 -16 24t-16 27t-15.5 27t-13.5 23q-4 7 -11 7q-4 0 -6 -1t-6.5 -2t-8.5 -2q-5 -2 -5 -4t2 -6q17 -26 32.5 -54t30.5 -49q4 -5 4 -9q0 -5 -7 -11q-29 -27 -63.5 -56t-63.5 -51q-6 -5 -6 -8t3 -4q2 -1 5 -1q5 0 9.5 3t6.5 5q30 32 69.5 66.5t73.5 60.5q4 3 4 9
z" />
    <glyph glyph-name="onequarter" unicode="&#xbc;" horiz-adv-x="519" 
d="M301 395q0 5 -6 5q-25 0 -50.5 -1.5t-50.5 -1.5q-5 0 -5 -3q0 -1 2 -3t5 -2.5t5 -0.5q8 1 19 1.5t20 0.5q5 0 12 -0.5t7 -7.5q0 -3 -1 -4q-13 -29 -32.5 -66t-42.5 -70q-4 -5 -8.5 -6.5t-10.5 -2.5q-7 -1 -15.5 -0.5t-14.5 0.5q-5 0 -11 -2q-5 -2 -5 -3q0 -2 4 -4
q4 -3 11 -3q16 0 37 2.5t39 3.5q6 0 12 0.5t12 0.5q8 0 15 -0.5t14 -1.5h9t8 2q2 1 2 4q0 5 -8 5q-10 0 -24 -0.5t-24 -0.5q-8 0 -8 4q0 3 1 5q4 9 10.5 22t12.5 24q14 25 26 46t23 39q2 2 6.5 9.5t4.5 9.5zM549 436q0 3 -3 4t-5 1q-8 0 -17 -11q-48 -53 -101.5 -110.5
t-109 -116.5t-111.5 -118.5t-108 -115.5q-4 -5 -7 -8.5t-3 -8.5q0 -2 1.5 -5t4.5 -3q4 0 8 3.5t8 8.5q52 59 107.5 119.5t111 120.5t110 117t104.5 108q10 10 10 15zM490 79q0 7 -5 7q-5 1 -11.5 1.5t-12.5 0.5h-41q14 29 29 58.5t30 52.5l-1 2.5t-3 2.5l-4 -2
q-46 -28 -93 -62.5t-85 -63.5q-4 -3 -4 -6q0 -6 7 -6q3 0 9.5 0.5t11.5 0.5q15 2 32.5 2.5t36.5 1.5q-6 -12 -11 -23t-9 -21q-2 -6 -2 -9q0 -5 3 -9q2 -3 6.5 -6.5t9.5 -7.5q2 -2 4 -2t2 3q0 2 -1 4.5t-1 5.5q0 6 3 14q5 12 10.5 25t11.5 27q15 0 30.5 -1t30.5 -3q4 0 4 -5
q0 -2 -1 -3.5t-1 -3.5q0 -3 2 -3t4 3q2 4 5.5 12t3.5 13zM440 174q-11 -18 -22.5 -40.5t-22.5 -45.5q-16 0 -31.5 -1t-31.5 -1h-4t-2 2t3 4q19 17 49.5 39.5t61.5 42.5z" />
    <glyph glyph-name="onehalf" unicode="&#xbd;" horiz-adv-x="519" 
d="M300 395q0 5 -7 5q-20 0 -40.5 -1.5t-39.5 -1.5h-20q-5 0 -5 -3q0 -2 1 -3q3 -3 8 -3q11 0 20.5 1t20.5 1q5 0 12 -0.5t7 -7.5q0 -3 -1 -4q-13 -29 -32.5 -66t-42.5 -70q-4 -5 -8.5 -6.5t-10.5 -2.5q-7 -1 -15 -0.5t-14 0.5t-12 -2q-4 -1 -4 -3q0 -3 3 -4q4 -3 11 -3
q16 1 32 3t44 3q6 0 12 0.5t12 0.5q8 0 17.5 -1t17.5 -1q3 0 8 0.5t5 5.5t-8 5q-10 0 -23.5 -0.5t-23.5 -0.5q-9 0 -9 4q0 1 2 5q4 9 10.5 22t12.5 24q14 25 25.5 46t22.5 39q2 3 4.5 7t4.5 7q3 3 3 5zM549 436q0 3 -3 4t-5 1q-8 0 -17 -11q-48 -53 -101.5 -110.5
t-109 -116.5t-111.5 -118.5t-108 -115.5q-4 -5 -7 -8.5t-3 -8.5q0 -4 1 -5q1 -3 5 -3t8 3.5t8 8.5q52 59 107.5 119.5t111 120.5t110 117t104.5 108q10 10 10 15zM496 30q0 3 -3 3t-4 -2q-15 -19 -38 -19q-4 0 -7.5 0.5t-8.5 1.5q-22 4 -48 12t-45 17q-2 1 -2 2l2 2
q18 11 41.5 27.5t43.5 32.5q9 7 18 18.5t9 23.5q0 17 -14 24.5t-28 7.5q-15 0 -30 -6q-5 -2 -9 -4l-8 -4q-5 -2 -8.5 -4t-6.5 -4q-2 -1 -2 -4t3 -3q2 0 3 1q9 9 22 12q4 1 7.5 2t7.5 1q10 0 15 -4q14 -9 14 -25q0 -13 -10 -27t-19 -22q-13 -11 -30.5 -23t-31.5 -21
q-15 -10 -28 -18.5t-26 -16.5q-3 -2 -3 -5q0 -2 3 -2q2 0 4 1q5 4 11 8.5t12 7.5l4 2t4 1t6 -2q17 -7 37.5 -13.5t38.5 -10.5q6 -2 12 -2h12q17 0 30 4q15 4 26.5 10.5t21.5 15.5q2 2 2 4z" />
    <glyph glyph-name="threequarters" unicode="&#xbe;" horiz-adv-x="519" 
d="M555 436q0 3 -4 5h-4q-8 0 -17 -11q-48 -53 -101.5 -110.5t-109 -116.5t-111.5 -118.5t-108 -115.5q-4 -5 -7 -8.5t-3 -8.5q0 -4 1 -5q1 -3 5 -3t8 3.5t8 8.5q52 59 107.5 119.5t111 120.5t110 117t104.5 108q10 10 10 15zM295 372q0 15 -14 24q-8 5 -22 5
q-5 0 -8.5 -0.5t-7.5 -1.5q-11 -3 -22 -8t-19 -11q-3 -2 -3 -4t2 -2q3 0 4 1q17 14 36 14q11 0 17.5 -7t6.5 -18q0 -13 -5.5 -21t-14.5 -16t-24 -17.5t-26 -15.5q-3 -2 -3 -4q0 -3 3 -3q2 0 3 1q8 7 17 7q21 0 31 -19q6 -12 6 -25q0 -28 -22 -44.5t-48 -16.5q-18 0 -29.5 9
t-11.5 23q0 5 -2 5t-3 -4q-2 -6 -2 -11q0 -6 1 -8q3 -14 14 -20.5t25 -6.5q10 0 22 3q13 4 28 13.5t27.5 22t20.5 27.5t8 30q0 11 -6 22q-11 18 -30 20h-2v1v0q0 1 1 1q2 2 6 4.5t8 4.5q10 7 19 14.5t15 16.5q4 7 4 15zM496 79q0 7 -5 7q-5 1 -11.5 1.5t-12.5 0.5h-17h-24
q13 28 27 55t28 50q3 1 3 5l1 1l-1 1q0 3 -3 3q-2 0 -4 -1q-46 -28 -92 -62.5t-84 -64.5q-4 -3 -4 -6q0 -5 7 -5q3 0 8.5 0.5t10.5 0.5q15 2 32.5 2.5t36.5 1.5q-5 -12 -10.5 -23t-9.5 -21q-2 -6 -2 -9q0 -5 3 -9q2 -3 6 -6.5t9 -7.5q2 -2 4 -2q3 0 3 3v2q-2 4 -2 8
q0 6 3 14q5 12 10.5 25t11.5 27q15 0 30 -1t30 -3q3 0 3 -5q0 -3 -1 -5l-1 -2q0 -3 4 -3q2 0 4 3q3 5 4.5 10.5t3.5 10.5q0 2 0.5 2.5t0.5 1.5zM441 169q-21 -38 -41 -82q-15 -1 -29.5 -2t-30.5 -1h-1q-4 0 -4 3q0 1 2 3q15 15 44 37t60 42z" />
    <glyph glyph-name="questiondown" unicode="&#xbf;" horiz-adv-x="260" 
d="M278 242q0 10 -6 15q-7 5 -14 5q-4 0 -10 -2q-16 -5 -25 -16q-3 -3 -3 -7t3 -7q5 -5 6.5 -11t2.5 -14q2 -7 7 -7q3 0 4 1q10 5 18 11q13 10 16 26q0 2 0.5 3t0.5 3zM213 112q0 26 -17 43q-11 11 -22 11h-2q-5 0 -9 -0.5t-9 -0.5t-9 0.5t-9 0.5q-6 0 -6 -4t4 -5
q17 -4 26 -14.5t9 -24.5q0 -18 -16 -34q-9 -8 -20 -16l-22 -16t-23.5 -16.5t-24.5 -17.5q-29 -21 -54 -47t-35 -54q-5 -13 -5 -30q0 -21 11 -37t32 -24q16 -6 34 -6q32 0 67 21q13 8 25 18.5t21.5 20.5t16 18t8.5 12q1 1 1 2q0 4 -4 4t-5 -3q-10 -16 -24.5 -31.5
t-34.5 -26.5q-13 -8 -25 -11t-23 -3q-26 0 -41.5 16.5t-15.5 43.5q0 22 10 45q17 37 48.5 63t68.5 49q15 10 32 17.5t28 12.5q6 2 9 6.5t4 8.5q0 2 0.5 4.5t0.5 4.5z" />
    <glyph glyph-name="Agrave" unicode="&#xc0;" horiz-adv-x="769" 
d="M854 626v2q-4 15 -9 29t-10 27q-10 23 -23 57q-1 4 -4 4q-2 0 -5 -3q-5 -6 -5 -12q0 -5 3 -11q10 -20 23 -45t26 -48q1 -2 3 -2q1 0 1 2zM955 578q0 5 -2.5 11.5t-8.5 12.5q-10 10 -30 10q-12 0 -26 -7.5t-26.5 -18.5t-23.5 -23t-18 -21q-20 3 -37.5 6t-37.5 2
q-17 -1 -33.5 -4.5t-27.5 -12.5q-9 -8 -14 -23.5t-7 -30.5q-2 -14 -4 -31t-3.5 -35.5t-3.5 -36.5t-3 -33l-22 -24l-22 -24q-51 -54 -106 -106t-115 -100q-40 -32 -82 -51t-93 -19q-31 0 -58 8t-47.5 24t-32 39.5t-10.5 53.5q1 29 8.5 49.5t20.5 44.5q2 4 2 5t-2 3h-1
q-2 0 -5 -3q-20 -26 -34.5 -65t-14.5 -73q0 -25 8.5 -50t28.5 -43q18 -17 44.5 -24.5t56.5 -7.5q66 0 117.5 28.5t100.5 70.5q15 12 34.5 29.5t37 33t29.5 27l12 11.5l14.5 -2.5t25.5 -2.5q23 0 47 2.5t47 4.5q-3 -66 -3 -129q0 -29 3.5 -45t13.5 -22q2 -2 7 -2q7 0 13 6
q9 8 26 11.5t27 4.5q6 0 6 6q0 5 -5 5h-2q-4 0 -8 -1t-9 -1q-10 0 -17 8.5t-9 28.5q-2 21 -3 45.5t-1 50.5q0 10 0.5 19t0.5 19q23 3 48 6t52 7q6 1 6 4q0 4 -7 4h-2q-22 -3 -46.5 -6t-50.5 -6q1 44 4 88.5t8 88.5q34 37 68 78.5t62 77.5q12 -2 23.5 -3t23.5 -1q14 0 29.5 4
t28 11t21.5 17t9 22zM921 557q-2 -11 -15 -16.5t-25 -5.5q-13 0 -26 2l-26 4q6 6 13 14t15 15.5t16.5 12.5t17.5 5q14 0 23.5 -9t6.5 -22zM810 530q-18 -23 -31 -39.5t-25 -31.5t-26.5 -31t-35.5 -39q1 7 2.5 18.5l3 23t3 22.5t2.5 18q2 15 5 27t8.5 20.5t16 13t27.5 4.5
q12 0 26 -2t24 -4zM648 327q-3 -34 -5.5 -68t-4.5 -68q-14 -1 -27 -1t-26 -1q-15 0 -29.5 3t-22 6t-8.5 3q45 43 87 87z" />
    <glyph glyph-name="Aacute" unicode="&#xc1;" horiz-adv-x="769" 
d="M947 736q0 4 -3 7t-5 3q-1 0 -5 -2q-38 -30 -78 -63t-76 -61q-3 -3 -3 -4q0 -2 2 -2q1 0 5 2q42 29 83.5 58.5t76.5 56.5q3 3 3 5zM955 578q0 5 -2.5 11.5t-8.5 12.5q-10 10 -30 10q-12 0 -26 -7.5t-26.5 -18.5t-23.5 -23t-18 -21q-20 3 -37.5 6t-37.5 2
q-17 -1 -33.5 -4.5t-27.5 -12.5q-9 -8 -14 -23.5t-7 -30.5q-2 -14 -4 -31t-3.5 -35.5t-3.5 -36.5t-3 -33l-22 -24l-22 -24q-51 -54 -106 -106t-115 -100q-40 -32 -82 -51t-93 -19q-31 0 -58 8t-47.5 24t-32 39.5t-10.5 53.5q1 29 8.5 49.5t20.5 44.5q2 4 2 5t-2 3h-1
q-2 0 -5 -3q-20 -26 -34.5 -65t-14.5 -73q0 -25 8.5 -50t28.5 -43q18 -17 44.5 -24.5t56.5 -7.5q66 0 117.5 28.5t100.5 70.5q15 12 34.5 29.5t37 33t29.5 27l12 11.5l14.5 -2.5t25.5 -2.5q23 0 47 2.5t47 4.5q-3 -66 -3 -129q0 -29 3.5 -45t13.5 -22q2 -2 7 -2q7 0 13 6
q9 8 26 11.5t27 4.5q6 0 6 6q0 5 -5 5h-2q-4 0 -8 -1t-9 -1q-10 0 -17 8.5t-9 28.5q-2 21 -3 45.5t-1 50.5q0 10 0.5 19t0.5 19q23 3 48 6t52 7q6 1 6 4q0 4 -7 4h-2q-22 -3 -46.5 -6t-50.5 -6q1 44 4 88.5t8 88.5q34 37 68 78.5t62 77.5q12 -2 23.5 -3t23.5 -1q14 0 29.5 4
t28 11t21.5 17t9 22zM921 557q-2 -11 -15 -16.5t-25 -5.5q-13 0 -26 2l-26 4q6 6 13 14t15 15.5t16.5 12.5t17.5 5q14 0 23.5 -9t6.5 -22zM810 530q-18 -23 -31 -39.5t-25 -31.5t-26.5 -31t-35.5 -39q1 7 2.5 18.5l3 23t3 22.5t2.5 18q2 15 5 27t8.5 20.5t16 13t27.5 4.5
q12 0 26 -2t24 -4zM648 327q-3 -34 -5.5 -68t-4.5 -68q-14 -1 -27 -0.5t-26 -1.5q-11 -1 -25.5 2t-24 6t-10.5 4q45 43 87 87z" />
    <glyph glyph-name="Acircumflex" unicode="&#xc2;" horiz-adv-x="769" 
d="M882 650q0 17 -2 43t-3 54q0 4 -4 4q-3 0 -5 -1q-8 -5 -16 -12.5t-16 -15.5q-17 -17 -37 -36t-37 -34q-8 -7 -8 -13q0 -3 1 -4q2 -2 3 -2q2 0 12 12q17 19 37.5 40t39.5 38q2 2 6 2q3 0 3 -5q1 -20 2 -45t1 -45q0 -8 3 -8q2 0 6 4q6 6 10 9t4 15zM955 578q0 5 -2.5 11.5
t-8.5 12.5q-10 10 -30 10q-12 0 -26 -7.5t-26.5 -18.5t-23.5 -23t-18 -21q-20 3 -37.5 6t-37.5 2q-17 -1 -33.5 -4.5t-27.5 -12.5q-9 -8 -14 -23.5t-7 -30.5q-2 -14 -4 -31t-3.5 -35.5t-3.5 -36.5t-3 -33l-22 -24l-22 -24q-51 -54 -106 -106t-115 -100q-40 -32 -82 -51
t-93 -19q-31 0 -58 8t-47.5 24t-32 39.5t-10.5 53.5q1 29 8.5 49.5t20.5 44.5q2 4 2 5t-2 3h-1q-2 0 -5 -3q-20 -26 -34.5 -65t-14.5 -73q0 -25 8.5 -50t28.5 -43q18 -17 44.5 -24.5t56.5 -7.5q66 0 117.5 28.5t100.5 70.5q15 12 34.5 29.5t37 33t29.5 27l12 11.5l14.5 -2.5
t25.5 -2.5q23 0 47 2.5t47 4.5q-3 -66 -3 -129q0 -29 3.5 -45t13.5 -22q2 -2 7 -2q7 0 13 6q9 8 26 11.5t27 4.5q6 0 6 6q0 5 -5 5h-2q-4 0 -8 -1t-9 -1q-10 0 -17 8.5t-9 28.5q-2 21 -3 45.5t-1 50.5q0 10 0.5 19t0.5 19q23 3 48 6t52 7q6 1 6 4q0 4 -7 4h-2
q-22 -3 -46.5 -6t-50.5 -6q1 44 4 88.5t8 88.5q34 37 68 78.5t62 77.5q12 -2 23.5 -3t23.5 -1q14 0 29.5 4t28 11t21.5 17t9 22zM921 557q-2 -11 -15 -16.5t-25 -5.5q-13 0 -26 2l-26 4q6 6 13 14t15 15.5t16.5 12.5t17.5 5q14 0 23.5 -9t6.5 -22zM810 530
q-18 -23 -31 -39.5t-25 -31.5t-26.5 -31t-35.5 -39q1 7 2.5 18.5l3 23t3 22.5t2.5 18q2 15 5 27t8.5 20.5t16 13t27.5 4.5q12 0 26 -2t24 -4zM648 327q-3 -34 -5.5 -68t-4.5 -68q-14 -1 -27 -1.5t-26 -0.5q-28 -1 -44 5.5l-16 6.5q45 43 87 87z" />
    <glyph glyph-name="Atilde" unicode="&#xc3;" horiz-adv-x="769" 
d="M945 698v2q0 5 -4 5q-5 0 -5 -7q0 -15 -9 -27q-12 -17 -30 -17q-11 0 -24 9q-8 5 -19.5 16.5l-19.5 19.5q-12 12 -26 12q-13 0 -26 -10q-14 -11 -29 -25t-23 -25q-3 -5 -3 -8t3 -3t7 5q6 8 15 18t19 18q13 10 24 10q7 0 12 -3t10 -7q8 -7 14.5 -13.5t20.5 -18.5
q16 -13 33 -13q26 0 48 30q5 8 7.5 16t4.5 16zM955 578q0 5 -2.5 11.5t-8.5 12.5q-10 10 -30 10q-12 0 -26 -7.5t-26.5 -18.5t-23.5 -23t-18 -21q-20 3 -37.5 6t-37.5 2q-17 -1 -33.5 -4.5t-27.5 -12.5q-9 -8 -14 -23.5t-7 -30.5q-2 -14 -4 -31t-3.5 -35.5t-3.5 -36.5
t-3 -33l-22 -24l-22 -24q-51 -54 -106 -106t-115 -100q-40 -32 -82 -51t-93 -19q-31 0 -58 8t-47.5 24t-32 39.5t-10.5 53.5q1 29 8.5 49.5t20.5 44.5q2 4 2 5t-2 3h-1q-2 0 -5 -3q-20 -26 -34.5 -65t-14.5 -73q0 -25 8.5 -50t28.5 -43q18 -17 44.5 -24.5t56.5 -7.5
q66 0 117.5 28.5t100.5 70.5q15 12 34.5 29.5t37 33t29.5 27l12 11.5l14.5 -2.5t25.5 -2.5q23 0 47 2.5t47 4.5q-3 -66 -3 -129q0 -29 3.5 -45t13.5 -22q2 -2 7 -2q7 0 13 6q9 8 26 11.5t27 4.5q6 0 6 6q0 5 -5 5h-2q-4 0 -8 -1t-9 -1q-10 0 -17 8.5t-9 28.5q-2 21 -3 45.5
t-1 50.5q0 10 0.5 19t0.5 19q23 3 48 6t52 7q6 1 6 4q0 4 -7 4h-2q-22 -3 -46.5 -6t-50.5 -6q1 44 4 88.5t8 88.5q34 37 68 78.5t62 77.5q12 -2 23.5 -3t23.5 -1q14 0 29.5 4t28 11t21.5 17t9 22zM921 557q-2 -11 -15 -16.5t-25 -5.5q-13 0 -26 2l-26 4q6 6 13 14t15 15.5
t16.5 12.5t17.5 5q14 0 23.5 -9t6.5 -22zM810 530q-18 -23 -31 -39.5t-25 -31.5t-26.5 -31t-35.5 -39q1 7 2.5 18.5l3 23t3 22.5t2.5 18q2 15 5 27t8.5 20.5t16 13t27.5 4.5q12 0 26 -2t24 -4zM648 327q-3 -34 -5.5 -68t-4.5 -68q-14 -1 -27 -1.5t-26 -0.5q-29 0 -44.5 6
l-15.5 6q45 43 87 87z" />
    <glyph glyph-name="Adieresis" unicode="&#xc4;" horiz-adv-x="769" 
d="M896 671q0 12 -13 12q-14 0 -23.5 -11.5t-9.5 -24.5q0 -12 12 -12q13 0 23.5 12t10.5 24zM794 675q0 12 -13 12q-14 0 -23.5 -11.5t-9.5 -24.5q0 -12 12 -12q13 0 23.5 12t10.5 24zM955 578q0 5 -2.5 11.5t-8.5 12.5q-10 10 -30 10q-12 0 -26 -7.5t-26.5 -18.5t-23.5 -23
t-18 -21q-20 3 -37.5 6t-37.5 2q-17 -1 -33.5 -4.5t-27.5 -12.5q-9 -8 -14 -23.5t-7 -30.5q-2 -14 -4 -31t-3.5 -35.5t-3.5 -36.5t-3 -33l-22 -24l-22 -24q-51 -54 -106 -106t-115 -100q-40 -32 -82 -51t-93 -19q-31 0 -58 8t-47.5 24t-32 39.5t-10.5 53.5q1 29 8.5 49.5
t20.5 44.5q2 4 2 5t-2 3h-1q-2 0 -5 -3q-20 -26 -34.5 -65t-14.5 -73q0 -25 8.5 -50t28.5 -43q18 -17 44.5 -24.5t56.5 -7.5q66 0 117.5 28.5t100.5 70.5q15 12 34.5 29.5t37 33t29.5 27l12 11.5l14.5 -2.5t25.5 -2.5q23 0 47 2.5t47 4.5q-3 -66 -3 -129q0 -29 3.5 -45
t13.5 -22q2 -2 7 -2q7 0 13 6q9 8 26 11.5t27 4.5q6 0 6 6q0 5 -5 5h-2q-4 0 -8 -1t-9 -1q-10 0 -17 8.5t-9 28.5q-2 21 -3 45.5t-1 50.5q0 10 0.5 19t0.5 19q23 3 48 6t52 7q6 1 6 4q0 4 -7 4h-2q-22 -3 -46.5 -6t-50.5 -6q1 44 4 88.5t8 88.5q34 37 68 78.5t62 77.5
q12 -2 23.5 -3t23.5 -1q14 0 29.5 4t28 11t21.5 17t9 22zM921 557q-2 -11 -15 -16.5t-25 -5.5q-13 0 -26 2l-26 4q6 6 13 14t15 15.5t16.5 12.5t17.5 5q14 0 23.5 -9t6.5 -22zM810 530q-18 -23 -31 -39.5t-25 -31.5t-26.5 -31t-35.5 -39q1 7 2.5 18.5l3 23t3 22.5t2.5 18
q2 15 5 27t8.5 20.5t16 13t27.5 4.5q12 0 26 -2t24 -4zM648 327q-3 -34 -5.5 -68t-4.5 -68q-14 -1 -27 -1.5t-26 -0.5q-29 -1 -44.5 5.5l-15.5 6.5q45 43 87 87z" />
    <glyph glyph-name="Aring" unicode="&#xc5;" horiz-adv-x="769" 
d="M855 677q0 14 -9 23.5t-26 9.5t-32.5 -12t-20.5 -31q-1 -3 -1 -10q0 -14 9 -23.5t26 -9.5q18 0 33 12t20 31q1 3 1 10zM955 578q0 5 -2.5 11.5t-8.5 12.5q-10 10 -30 10q-12 0 -26 -7.5t-26.5 -18.5t-23.5 -23t-18 -21q-20 3 -37.5 6t-37.5 2q-17 -1 -33.5 -4.5
t-27.5 -12.5q-9 -8 -14 -23.5t-7 -30.5q-2 -14 -4 -31t-3.5 -35.5t-3.5 -36.5t-3 -33l-22 -24l-22 -24q-51 -54 -106 -106t-115 -100q-40 -32 -82 -51t-93 -19q-31 0 -58 8t-47.5 24t-32 39.5t-10.5 53.5q1 29 8.5 49.5t20.5 44.5q2 4 2 5t-2 3h-1q-2 0 -5 -3
q-20 -26 -34.5 -65t-14.5 -73q0 -25 8.5 -50t28.5 -43q18 -17 44.5 -24.5t56.5 -7.5q66 0 117.5 28.5t100.5 70.5q15 12 34.5 29.5t37 33t29.5 27l12 11.5l14.5 -2.5t25.5 -2.5q23 0 47 2.5t47 4.5q-3 -66 -3 -129q0 -29 3.5 -45t13.5 -22q2 -2 7 -2q7 0 13 6q9 8 26 11.5
t27 4.5q6 0 6 6q0 5 -5 5h-2q-4 0 -8 -1t-9 -1q-10 0 -17 8.5t-9 28.5q-2 21 -3 45.5t-1 50.5q0 10 0.5 19t0.5 19q23 3 48 6t52 7q6 1 6 4q0 4 -7 4h-2q-22 -3 -46.5 -6t-50.5 -6q1 44 4 88.5t8 88.5q34 37 68 78.5t62 77.5q12 -2 23.5 -3t23.5 -1q14 0 29.5 4t28 11
t21.5 17t9 22zM921 557q-2 -11 -15 -16.5t-25 -5.5q-13 0 -26 2l-26 4q6 6 13 14t15 15.5t16.5 12.5t17.5 5q14 0 23.5 -9t6.5 -22zM842 674q0 -5 -1 -7q-3 -13 -13 -22t-24 -9q-25 0 -25 23q0 5 1 8q3 13 13 22t24 9q11 0 18 -6.5t7 -17.5zM810 530q-18 -23 -31 -39.5
t-25 -31.5t-26.5 -31t-35.5 -39q1 7 2.5 18.5l3 23t3 22.5t2.5 18q2 15 5 27t8.5 20.5t16 13t27.5 4.5q12 0 26 -2t24 -4zM648 327q-3 -34 -5.5 -68t-4.5 -68q-14 -1 -27 -1t-26 -1q-15 -1 -29.5 2t-22 6t-8.5 4q45 43 87 87z" />
    <glyph glyph-name="AE" unicode="&#xc6;" horiz-adv-x="1209" 
d="M1274 248q0 12 -2.5 22.5t-8.5 15.5l-4 2q-3 0 -3 -2q0 -1 2 -5q9 -14 9 -30q0 -7 -1 -10q-5 -28 -13 -50t-19.5 -42t-27.5 -40t-37 -42q-42 -45 -90 -81t-107 -57q-22 -8 -47.5 -12t-51.5 -4q-30 0 -59 5.5t-52 18.5q-43 23 -60.5 61.5t-18.5 85.5q-1 42 15 80.5
t46 69.5q24 24 51 39.5t62 25.5q22 7 46 7q23 0 40 -7q2 -1 6 -1t6 2q3 4 8 7t10 5q4 2 4 4q0 4 -6 4q-7 0 -14 5q-21 16 -29.5 37t-8.5 43q0 14 3 28q3 16 12.5 30t22.5 25.5t28 18.5t29 10q10 2 17 2q25 0 39 -13q6 -5 10.5 -14t5.5 -19v-8q0 -9 -1 -19.5t-3 -19.5v-2
q0 -4 3 -4q2 0 4 5q2 9 9.5 19.5t18.5 18.5q15 10 15 26q0 14 -9 26q-8 11 -23 17t-32 6h-4q-26 -1 -53.5 -11.5t-50.5 -25.5q-12 -8 -23 -19.5t-21 -25t-17 -28.5t-11 -28q-2 -7 -3 -13.5t-1 -14.5q0 -14 3.5 -26t10.5 -19q4 -4 4 -6q0 -3 -4 -3q-16 -2 -35.5 -7t-36.5 -13
q-18 -8 -38 -19t-35 -22q-22 -15 -41 -34.5t-34 -41.5q1 95 12 191q34 37 68 78.5t62 77.5q12 -2 23.5 -3t23.5 -1q14 0 29.5 4t28 11t21.5 17t9 22q0 5 -2.5 11.5t-8.5 12.5q-10 10 -30 10q-12 0 -26 -7.5t-26.5 -18.5t-23.5 -23t-18 -21q-20 3 -37.5 6t-37.5 2
q-17 -1 -33.5 -4.5t-27.5 -12.5q-9 -8 -14 -23.5t-7 -30.5q-2 -14 -4 -31t-3.5 -35.5t-3.5 -36.5t-3 -33l-22 -24l-22 -24q-51 -54 -106 -106t-115 -100q-40 -32 -82 -51t-93 -19q-31 0 -58 8t-47.5 24t-32 39.5t-10.5 53.5q1 29 8.5 49.5t20.5 44.5q2 4 2 5t-2 3h-1
q-2 0 -5 -3q-20 -26 -34.5 -65t-14.5 -73q0 -25 8.5 -50t28.5 -43q18 -17 44.5 -24.5t56.5 -7.5q66 0 117.5 28.5t100.5 70.5q58 48 113 101q18 -5 40 -5q23 0 47 2.5t47 4.5q-2 -33 -3 -65.5t-1 -65.5q0 -59 33 -99t91 -53q31 -7 69 -7q23 0 46 2.5t45 8.5q47 12 93.5 32
t87.5 45q75 47 121 106.5t53 145.5q0 4 0.5 8t0.5 8zM921 557q-2 -11 -15 -16.5t-25 -5.5q-13 0 -26 2l-26 4q6 6 13 14t15 15.5t16.5 12.5t17.5 5q14 0 23.5 -9t6.5 -22zM810 530q-18 -23 -31 -39.5t-25 -31.5t-26.5 -31t-35.5 -39q1 7 2.5 18.5l3 23t3 22.5t2.5 18
q2 15 5 27t8.5 20.5t16 13t27.5 4.5q12 0 26 -2t24 -4zM648 327q-3 -34 -5.5 -68t-4.5 -68q-14 -1 -27 -1.5t-26 -0.5q-12 0 -31 1.5t-29 10.5q45 43 87 87z" />
    <glyph glyph-name="Ccedilla" unicode="&#xc7;" horiz-adv-x="606" 
d="M669 167v2q-1 7 -4 7q-1 0 -6 -8q-12 -25 -25.5 -46t-28.5 -39.5t-33.5 -35t-41.5 -33.5q-45 -33 -104 -62.5t-119 -45.5q-44 -12 -84 -12q-31 0 -57.5 7.5t-45.5 23.5t-29.5 40.5t-10.5 58.5q0 42 15 88.5t37.5 91.5t50.5 86t55 71q21 23 44 46t47.5 44t49.5 38t48 28
l10 4l10 4q-13 -16 -25.5 -31.5t-23.5 -31.5q-32 -43 -59.5 -91.5t-40.5 -92.5q-6 -21 -6 -41q0 -13 2.5 -25t8.5 -21q12 -19 30.5 -27.5t41.5 -8.5q28 0 58 12t58 32q23 17 44.5 41t38.5 51t29.5 57t18.5 59q4 19 4 39q0 96 -109 96h-11q-5 0 -11 -1q-7 -1 -14 -1.5
t-14 -2.5l6 6q28 28 58.5 55.5t62.5 38.5q5 2 10 3t10 1t9 -2q1 -1 4 -1t3 2q0 3 -5 6q-4 2 -9 3.5t-10 2.5h-7q-22 0 -41 -14q-23 -17 -50 -44t-53 -59q-47 -11 -93 -35.5t-84 -53.5q-54 -41 -92.5 -84.5t-70.5 -90.5q-27 -40 -43 -77.5t-25 -78.5q-3 -15 -5 -30t-2 -31
q0 -45 15 -77.5t40.5 -53.5t60.5 -31t75 -10q-11 -6 -22.5 -14t-18.5 -15q-6 -6 -6 -13t7 -12l10 -6t9 -6q6 -5 6 -11t-7 -13q-6 -5 -15.5 -11t-16.5 -9t-15 -6t-13 -5t-5 -4q0 -1 2 -3q3 -3 6 -3t7 2q17 8 38 22.5t36 27.5q13 10 13 21q0 12 -19 21q-13 6 -13 12q0 5 9 13
l9 6t11 6h2q28 1 56 5t58 14q46 15 92.5 40.5t86.5 58.5q39 32 72.5 72t54.5 83q4 8 4 12zM577 440q0 -4 -0.5 -7.5t-0.5 -7.5q-4 -47 -22 -95t-45 -88q-16 -23 -39.5 -42t-50.5 -29q-18 -7 -37 -7q-27 0 -43 15q-22 21 -22 56q0 23 8 50.5t20 56.5q20 48 50 97t65 90
q10 2 18.5 3.5t16.5 1.5q37 0 59.5 -24t22.5 -70z" />
    <glyph glyph-name="Egrave" unicode="&#xc8;" horiz-adv-x="619" 
d="M514 591v2q-4 15 -9 29t-10 27q-10 23 -23 57q-1 4 -4 4q-2 0 -5 -3q-5 -6 -5 -12q0 -5 3 -11q10 -20 23 -45t26 -48q1 -2 3 -2q1 0 1 2zM684 248q0 12 -2.5 22.5t-8.5 15.5l-4 2q-3 0 -3 -2q0 -1 2 -5q9 -14 9 -30q0 -7 -1 -10q-5 -28 -13 -50t-19.5 -42t-27.5 -40
t-37 -42q-42 -45 -90 -81t-107 -57q-22 -8 -47.5 -12t-51.5 -4q-30 0 -59 5.5t-52 18.5q-35 19 -57 54.5t-22 85.5v7q0 42 15.5 80.5t45.5 69.5q24 24 51 39.5t62 25.5q22 7 46 7q23 0 40 -7q2 -1 6 -1t6 2q3 4 8 7t10 5q4 2 4 4q0 4 -6 4q-7 0 -14 5q-21 16 -29.5 37
t-8.5 43q0 14 3 28q3 16 12.5 30t22.5 25.5t28 18.5t29 10q10 2 17 2q25 0 39 -13q6 -5 10.5 -14t5.5 -19v-8q0 -9 -1 -19.5t-3 -19.5v-2q0 -4 3 -4q2 0 4 5q2 9 9.5 19.5t18.5 18.5q15 10 15 26q0 14 -9 26q-17 23 -55 23h-4q-26 0 -53.5 -11t-50.5 -26q-12 -8 -23 -19.5
t-21 -25t-17 -28.5t-11 -28q-2 -7 -3 -13.5t-1 -14.5q0 -14 3.5 -26t10.5 -19q4 -4 4 -6q0 -3 -4 -3q-16 -2 -35.5 -7t-36.5 -13q-18 -8 -38 -19t-35 -22q-35 -25 -63 -60t-42 -72t-14 -74q0 -32 10 -58q14 -38 44 -61.5t70 -32.5q31 -7 69 -7q23 0 46 2.5t45 8.5
q47 12 93.5 32t87.5 45q75 47 121 106.5t53 145.5q0 4 0.5 8t0.5 8z" />
    <glyph glyph-name="Eacute" unicode="&#xc9;" horiz-adv-x="619" 
d="M637 716q0 4 -3 7t-5 3q-1 0 -5 -2q-38 -30 -78 -63t-76 -61q-3 -3 -3 -4q0 -2 2 -2q1 0 5 2q42 29 83.5 58.5t76.5 56.5q3 3 3 5zM684 248q0 12 -2.5 22.5t-8.5 15.5l-4 2q-3 0 -3 -2q0 -1 2 -5q9 -14 9 -30q0 -7 -1 -10q-5 -28 -13 -50t-19.5 -42t-27.5 -40t-37 -42
q-42 -45 -90 -81t-107 -57q-22 -8 -47.5 -12t-51.5 -4q-30 0 -59 5.5t-52 18.5q-35 19 -57 54.5t-22 85.5v7q0 42 15.5 80.5t45.5 69.5q24 24 51 39.5t62 25.5q22 7 46 7q23 0 40 -7q2 -1 6 -1t6 2q3 4 8 7t10 5q4 2 4 4q0 4 -6 4q-7 0 -14 5q-21 16 -29.5 37t-8.5 43
q0 14 3 28q3 16 12.5 30t22.5 25.5t28 18.5t29 10q10 2 17 2q25 0 39 -13q6 -5 10.5 -14t5.5 -19v-8q0 -9 -1 -19.5t-3 -19.5v-2q0 -4 3 -4q2 0 4 5q2 9 9.5 19.5t18.5 18.5q15 10 15 26q0 14 -9 26q-17 23 -55 23h-4q-26 0 -53.5 -11t-50.5 -26q-12 -8 -23 -19.5t-21 -25
t-17 -28.5t-11 -28q-2 -7 -3 -13.5t-1 -14.5q0 -14 3.5 -26t10.5 -19q4 -4 4 -6q0 -3 -4 -3q-16 -2 -35.5 -7t-36.5 -13q-18 -8 -38 -19t-35 -22q-35 -25 -63 -60t-42 -72t-14 -74q0 -32 10 -58q14 -38 44 -61.5t70 -32.5q31 -7 69 -7q23 0 46 2.5t45 8.5q47 12 93.5 32
t87.5 45q75 47 121 106.5t53 145.5q0 4 0.5 8t0.5 8z" />
    <glyph glyph-name="Ecircumflex" unicode="&#xca;" horiz-adv-x="619" 
d="M576 627q0 17 -2 43t-3 54q0 4 -4 4q-3 0 -5 -1q-8 -5 -16 -12.5t-16 -15.5q-17 -17 -37 -36t-37 -34q-8 -7 -8 -13q0 -3 1 -4q2 -2 3 -2q2 0 12 12q17 19 37.5 40t39.5 38q2 2 6 2q3 0 3 -5q1 -20 2 -45t1 -45q0 -8 3 -8q2 0 6 4q6 6 10 9t4 15zM684 248q0 12 -2.5 22.5
t-8.5 15.5l-4 2q-3 0 -3 -2q0 -1 2 -5q9 -14 9 -30q0 -7 -1 -10q-5 -28 -13 -50t-19.5 -42t-27.5 -40t-37 -42q-42 -45 -90 -81t-107 -57q-22 -8 -47.5 -12t-51.5 -4q-30 0 -59 5.5t-52 18.5q-35 19 -57 54.5t-22 85.5v7q0 42 15.5 80.5t45.5 69.5q24 24 51 39.5t62 25.5
q22 7 46 7q23 0 40 -7q2 -1 6 -1t6 2q3 4 8 7t10 5q4 2 4 4q0 4 -6 4q-7 0 -14 5q-21 16 -29.5 37t-8.5 43q0 14 3 28q3 16 12.5 30t22.5 25.5t28 18.5t29 10q10 2 17 2q25 0 39 -13q6 -5 10.5 -14t5.5 -19v-8q0 -9 -1 -19.5t-3 -19.5v-2q0 -4 3 -4q2 0 4 5q2 9 9.5 19.5
t18.5 18.5q15 10 15 26q0 14 -9 26q-17 23 -55 23h-4q-26 0 -53.5 -11t-50.5 -26q-12 -8 -23 -19.5t-21 -25t-17 -28.5t-11 -28q-2 -7 -3 -13.5t-1 -14.5q0 -14 3.5 -26t10.5 -19q4 -4 4 -6q0 -3 -4 -3q-16 -2 -35.5 -7t-36.5 -13q-18 -8 -38 -19t-35 -22q-35 -25 -63 -60
t-42 -72t-14 -74q0 -32 10 -58q14 -38 44 -61.5t70 -32.5q31 -7 69 -7q23 0 46 2.5t45 8.5q47 12 93.5 32t87.5 45q75 47 121 106.5t53 145.5q0 4 0.5 8t0.5 8z" />
    <glyph glyph-name="Edieresis" unicode="&#xcb;" horiz-adv-x="619" 
d="M566 642q0 12 -13 12q-14 0 -23.5 -11.5t-9.5 -24.5q0 -12 12 -12q13 0 23.5 12t10.5 24zM464 646q0 12 -13 12q-14 0 -23.5 -11.5t-9.5 -24.5q0 -12 12 -12q13 0 23.5 12t10.5 24zM684 248q0 12 -2.5 22.5t-8.5 15.5l-4 2q-3 0 -3 -2q0 -1 2 -5q9 -14 9 -30q0 -7 -1 -10
q-5 -28 -13 -50t-19.5 -42t-27.5 -40t-37 -42q-42 -45 -90 -81t-107 -57q-22 -8 -47.5 -12t-51.5 -4q-30 0 -59 5.5t-52 18.5q-35 19 -57 54.5t-22 85.5v7q0 42 15.5 80.5t45.5 69.5q24 24 51 39.5t62 25.5q22 7 46 7q23 0 40 -7q2 -1 6 -1t6 2q3 4 8 7t10 5q4 2 4 4
q0 4 -6 4q-7 0 -14 5q-21 16 -29.5 37t-8.5 43q0 14 3 28q3 16 12.5 30t22.5 25.5t28 18.5t29 10q10 2 17 2q25 0 39 -13q6 -5 10.5 -14t5.5 -19v-8q0 -9 -1 -19.5t-3 -19.5v-2q0 -4 3 -4q2 0 4 5q2 9 9.5 19.5t18.5 18.5q15 10 15 26q0 14 -9 26q-17 23 -55 23h-4
q-26 0 -53.5 -11t-50.5 -26q-12 -8 -23 -19.5t-21 -25t-17 -28.5t-11 -28q-2 -7 -3 -13.5t-1 -14.5q0 -14 3.5 -26t10.5 -19q4 -4 4 -6q0 -3 -4 -3q-16 -2 -35.5 -7t-36.5 -13q-18 -8 -38 -19t-35 -22q-35 -25 -63 -60t-42 -72t-14 -74q0 -32 10 -58q14 -38 44 -61.5
t70 -32.5q31 -7 69 -7q23 0 46 2.5t45 8.5q47 12 93.5 32t87.5 45q75 47 121 106.5t53 145.5q0 4 0.5 8t0.5 8z" />
    <glyph glyph-name="Igrave" unicode="&#xcc;" horiz-adv-x="385" 
d="M469 571v2q-4 15 -9 29t-10 27q-10 23 -23 57q-1 4 -4 4q-2 0 -5 -3q-5 -6 -5 -12q0 -5 3 -11q10 -20 23 -45t26 -48q1 -2 3 -2q1 0 1 2zM544 525q0 5 -4 5q-2 0 -3 -1q-17 -10 -33 -22.5t-34 -20.5q-39 -17 -82 -17q-18 0 -34 3q-39 8 -39 32q0 16 20 39q2 2 2 6
q0 2 -2 2q-4 0 -6 -2q-17 -17 -32 -38q-20 -28 -20 -44q0 -24 42 -25h10q37 0 77 9.5t66 25.5q1 1 2 1q2 0 2 -1t-2 -3q-21 -25 -39.5 -50.5t-36.5 -53.5q-11 -17 -25.5 -40.5t-30 -49.5t-31.5 -52.5t-29 -50.5q-26 -46 -48 -77.5t-50 -58.5q-38 -36 -80 -36q-22 0 -40.5 11
t-29.5 35q-3 6 -6 6q-4 0 -4 -5q0 -2 1 -4q14 -28 37.5 -41.5t52.5 -13.5q40 0 81 23q31 17 57 45t46 63q14 24 28 51t27 53t24 49t19 38q15 31 35.5 69.5t42.5 73.5q13 20 30 36.5t35 24.5q4 1 4 6z" />
    <glyph glyph-name="Iacute" unicode="&#xcd;" horiz-adv-x="385" 
d="M612 706q0 4 -3 7t-5 3q-1 0 -5 -2q-38 -30 -78 -63t-76 -61q-6 -5 -2 -4.5t6 0.5q1 0 -0.5 -0.5t0.5 0.5q42 29 83.5 58.5t76.5 56.5q3 3 3 5zM544 525q0 5 -4 5q-2 0 -3 -1q-17 -10 -33 -22.5t-34 -20.5q-39 -17 -82 -17q-18 0 -34 3q-39 8 -39 32q0 16 20 39q2 2 2 6
q0 2 -2 2q-4 0 -6 -2q-17 -17 -32 -38q-20 -28 -20 -44q0 -24 42 -25h10q37 0 77 9.5t66 25.5q1 1 2 1q2 0 2 -1t-2 -3q-21 -25 -39.5 -50.5t-36.5 -53.5q-11 -17 -25.5 -40.5t-30 -49.5t-31.5 -52.5t-29 -50.5q-26 -46 -48 -77.5t-50 -58.5q-38 -36 -80 -36q-22 0 -40.5 11
t-29.5 35q-3 6 -6 6q-4 0 -4 -5q0 -2 1 -4q14 -28 37.5 -41.5t52.5 -13.5q40 0 81 23q31 17 57 45t46 63q14 24 28 51t27 53t24 49t19 38q15 31 35.5 69.5t42.5 73.5q13 20 30 36.5t35 24.5q4 1 4 6z" />
    <glyph glyph-name="Icircumflex" unicode="&#xce;" horiz-adv-x="385" 
d="M536 617q0 17 -2 43t-3 54q0 4 -4 4q-3 0 -5 -1q-8 -5 -16 -12.5t-16 -15.5q-17 -17 -37 -36t-37 -34q-8 -7 -8 -13q0 -3 1 -4q2 -2 3 -2q2 0 12 12q17 19 37.5 40t39.5 38q2 2 6 2q3 0 3 -5q1 -20 2 -45t1 -45q0 -8 3 -8q2 0 6 4q6 6 10 9t4 15zM544 525q0 5 -4 5
q-2 0 -3 -1q-17 -10 -33 -22.5t-34 -20.5q-39 -17 -82 -17q-18 0 -34 3q-39 8 -39 32q0 16 20 39q2 2 2 6q0 2 -2 2q-4 0 -6 -2q-17 -17 -32 -38q-20 -28 -20 -44q0 -24 42 -25h10q37 0 77 9.5t66 25.5q1 1 2 1q2 0 2 -1t-2 -3q-21 -25 -39.5 -50.5t-36.5 -53.5
q-11 -17 -25.5 -40.5t-30 -49.5t-31.5 -52.5t-29 -50.5q-26 -46 -48 -77.5t-50 -58.5q-38 -36 -80 -36q-22 0 -40.5 11t-29.5 35q-3 6 -6 6q-4 0 -4 -5q0 -2 1 -4q14 -28 37.5 -41.5t52.5 -13.5q40 0 81 23q31 17 57 45t46 63q14 24 28 51t27 53t24 49t19 38
q15 31 35.5 69.5t42.5 73.5q13 20 30 36.5t35 24.5q4 1 4 6z" />
    <glyph glyph-name="Idieresis" unicode="&#xcf;" horiz-adv-x="385" 
d="M542 628q0 12 -13 12q-14 0 -23.5 -11.5t-9.5 -24.5q0 -12 12 -12q13 0 23.5 12t10.5 24zM440 632q0 12 -13 12q-14 0 -23.5 -11.5t-9.5 -24.5q0 -12 12 -12q13 0 23.5 12t10.5 24zM544 525q0 5 -4 5q-2 0 -3 -1q-17 -10 -33 -22.5t-34 -20.5q-39 -17 -82 -17
q-18 0 -34 3q-39 8 -39 32q0 16 20 39q2 2 2 6q0 2 -2 2q-4 0 -6 -2q-17 -17 -32 -38q-20 -28 -20 -44q0 -24 42 -25h10q37 0 77 9.5t66 25.5q1 1 2 1q2 0 2 -1t-2 -3q-21 -25 -39.5 -50.5t-36.5 -53.5q-11 -17 -25.5 -40.5t-30 -49.5t-31.5 -52.5t-29 -50.5
q-26 -46 -48 -77.5t-50 -58.5q-38 -36 -80 -36q-22 0 -40.5 11t-29.5 35q-3 6 -6 6q-4 0 -4 -5q0 -2 1 -4q14 -28 37.5 -41.5t52.5 -13.5q40 0 81 23q31 17 57 45t46 63q14 24 28 51t27 53t24 49t19 38q15 31 35.5 69.5t42.5 73.5q13 20 30 36.5t35 24.5q4 1 4 6z" />
    <glyph glyph-name="Eth" unicode="&#xd0;" horiz-adv-x="752" 
d="M758 621q0 16 -9.5 25t-23.5 9t-27 -10q-15 -12 -28.5 -26.5t-27.5 -30.5t-27.5 -32t-26.5 -30q-11 -13 -24.5 -30t-26.5 -35q-3 2 -5.5 3.5t-5.5 3.5q-18 11 -39.5 22.5t-44.5 22t-47.5 18.5t-47.5 13q-19 4 -37.5 6t-38.5 2q-26 0 -49 -4t-45 -13.5t-38 -23.5
q-19 -16 -33 -37.5t-18 -41.5v-5q0 -6 4 -10q3 -3 8.5 -9t11.5 -12q3 -3 5 -3t2 5q0 8 3.5 15t7.5 14q29 53 76 77.5t105 24.5q16 0 32 -2t33 -5q37 -8 72.5 -24.5t70.5 -39.5q5 -3 11 -7q-5 -8 -10 -14.5t-10 -13.5q-20 -32 -48 -73.5t-57 -84.5q-17 -25 -33.5 -48.5
t-31.5 -44.5q-13 -1 -23 -1h-14h-50q-2 0 -7.5 1.5t-9.5 1.5q-5 0 -5 -3q0 -7 5 -12t12 -5q11 0 34.5 1t46.5 2q-17 -23 -30 -39q-34 -40 -65 -57q-24 -13 -53 -16l-3 2q-8 5 -16 5q-6 0 -9 -2l-9 -6h-7q-19 1 -41 3t-38 7h-4q-3 0 -3 -2q0 -3 4 -4q18 -6 46 -11
q8 -2 15 -2.5t15 -1.5l-7 -7q-8 -8 -8 -11t9 -7q22 -10 48 -23t55 -25q38 -16 80.5 -27.5t85.5 -15.5q11 -1 22 -1.5t22 -0.5q51 0 98 11t95 34q52 24 81 65t32 96q0 5 0.5 9t0.5 9q0 93 -62 182q-25 36 -59 69.5t-74 61.5q12 20 24.5 38t24.5 35q13 17 33.5 38t40.5 35
q9 7 19.5 10t21.5 3q22 0 35 -14q1 -2 4 -2h1q2 0 2 3v1v4v5l1 5q0 2 0.5 4t0.5 4zM690 134q0 -31 -6 -60t-20 -54q-25 -45 -68 -64.5t-96 -19.5q-8 0 -17 0.5t-18 1.5q-44 5 -89.5 18t-83.5 30q-24 11 -48.5 24t-48.5 27q5 2 9.5 3t9.5 3q29 12 60.5 32.5t59.5 54.5
q6 7 12 13.5t11 14.5l24 2q14 1 38.5 1.5t35.5 0.5q8 0 16 -2t16 -2q4 0 4 5q0 4 -2.5 8t-6.5 4q-5 0 -10 0.5t-11 0.5h-17h-20t-19 -0.5t-14 -0.5h-9t-14 -1q35 47 69 98.5t68 105.5q9 14 18.5 30t19.5 32q28 -23 53 -52.5t43.5 -63t31 -71t16.5 -76.5q1 -11 2 -21.5
t1 -21.5z" />
    <glyph glyph-name="Ntilde" unicode="&#xd1;" horiz-adv-x="829" 
d="M782 649q0 5 -4 5q-6 0 -6 -7q0 -16 -8 -27q-12 -17 -30 -17q-12 0 -25 9q-8 5 -19.5 16.5l-19.5 19.5q-12 12 -25 12t-26 -10q-14 -11 -29 -25t-23 -25q-4 -6 -4 -8q0 -3 3 -3t7 5q6 8 15 18t19 18q13 10 24 10q7 0 12.5 -3t10.5 -7q8 -7 14.5 -13.5t20.5 -18.5
q16 -13 32 -13q26 0 48 30q5 8 7.5 16t4.5 16v1q1 0 1 1zM992 546q0 2 -3 5q-8 7 -18.5 14.5t-19.5 12.5q-7 4 -18 6.5t-19 2.5q-38 0 -71.5 -15.5t-59.5 -41.5q-20 -20 -35.5 -44t-27.5 -49q-19 -39 -32.5 -67t-24 -52t-20 -46t-20.5 -49q-6 27 -19.5 62.5t-31.5 71t-40 66
t-44 47.5q5 11 9 21t9 20q2 4 -3 7q-7 3 -9 -4q-4 -10 -8.5 -19.5t-9.5 -19.5q-8 5 -14 9t-15 7q-17 6 -36.5 9t-36.5 3q-35 0 -70.5 -11.5t-58.5 -38.5q-11 -13 -22 -32.5t-16 -34.5q0 -1 -1 -1v-1q0 -6 4 -6q2 0 4 5t5 13.5t6 14.5q7 14 21 26t31 19q14 5 32 8.5t36 3.5
q23 0 47 -6q19 -5 35 -10t31 -16q-14 -36 -32.5 -77.5t-38.5 -80.5q-18 -36 -33.5 -66t-26.5 -50q-21 -40 -46.5 -73t-54.5 -50q-21 -12 -44 -17.5t-47 -5.5q-28 0 -52 8q-28 9 -48.5 28.5t-28.5 41.5q-5 15 -5 28t3 21v3q0 6 -4 6q-2 0 -4 -8q-1 -6 -1.5 -11.5t-0.5 -10.5
q0 -37 16 -69.5t48 -54.5q15 -11 35 -17.5t40 -6.5q32 0 60 12.5t51 34.5q24 24 48 58.5t45 72.5q19 34 35 64.5t27 56.5q13 27 32.5 70.5t39.5 86.5q29 -18 52 -44t41 -56t30.5 -62.5t21.5 -64.5q-7 -14 -14 -32t-13 -35q-11 -30 -20 -64t-9 -54q0 -12 6.5 -24t19.5 -12
q7 0 15 4.5t13 13.5q13 22 20 52.5t7 64.5q0 19 -4 45t-9 40q9 21 22.5 51.5t28.5 62t29.5 61.5t26.5 50q17 29 31.5 48t27.5 31q17 16 37.5 27t40.5 17q17 5 33 8.5t33 2.5q13 -1 23.5 -5t20.5 -10q2 -1 3 -2t3 -1q4 0 4 3zM627 120q0 -29 -6 -64.5t-23 -55.5q-5 -6 -12 -6
t-9 7.5t-2 15.5q0 19 7.5 47.5t16.5 57.5q5 15 10.5 32.5t11.5 32.5q4 -18 5 -35.5t1 -31.5z" />
    <glyph glyph-name="Ograve" unicode="&#xd2;" horiz-adv-x="706" 
d="M574 611v2q-4 15 -9 29t-10 27q-5 12 -11 26.5t-12 30.5q-1 4 -4 4q-2 0 -5 -3q-5 -6 -5 -12q0 -5 3 -11q10 -20 23 -45t26 -48q1 -2 3 -2q1 0 1 2zM924 440q0 8 -8 13q-6 4 -16 4.5t-21 -0.5q-8 0 -12 -1q-23 -2 -50 -7.5t-59 -10.5v1q-1 31 -13 52q-21 42 -55.5 58
t-80.5 16h-18q-47 -3 -85.5 -24t-71.5 -57q-11 -11 -16 -23.5t-4 -23.5q2 -29 33 -38q15 -5 34 -6t43 1q26 2 52 6t64 10t74 12q2 -29 -3 -48.5t-10 -38.5q-4 -14 -13.5 -37.5t-26 -52t-40 -60t-54.5 -60.5q-27 -25 -60.5 -48t-69.5 -41t-74 -30t-75 -15q-32 -3 -61.5 4.5
t-52.5 23t-38 38t-18 51.5q-3 28 3 57t17 56.5t26 53.5t29 49q18 29 44.5 58t58 55.5t67 48t71.5 36.5q3 1 3 4v1q-1 2 -3 2h-2q-36 -15 -72 -37t-69.5 -47.5t-62.5 -52.5t-51 -52q-17 -19 -37.5 -45.5t-38.5 -58t-28.5 -66.5t-7.5 -71q3 -31 19.5 -55.5t43 -41.5
t61.5 -25.5t74 -5.5q42 3 85 15.5t83.5 31.5t77.5 44t68 54q72 66 114 124.5t59 115.5q6 20 7 39.5t1 33.5q11 2 21 3.5t21 2.5q20 2 39.5 0t34.5 -4q8 -2 16 -6t10 -9q1 -4 4 -4q4 0 4 4q1 5 2.5 9.5t8.5 6.5q5 2 5 8zM714 430q-14 -2 -29 -5t-29 -5q-24 -3 -44 -5t-38 -4
q-21 -2 -39.5 -0.5t-38.5 8.5q-34 13 -36 41q-1 15 7 30t22 29q15 14 38.5 22t48.5 10q21 2 40 -1.5t35 -12.5q29 -18 44.5 -43.5t18.5 -63.5z" />
    <glyph glyph-name="Oacute" unicode="&#xd3;" horiz-adv-x="706" 
d="M717 726q0 4 -3 7q-2 3 -5 3q-1 0 -5 -2q-38 -30 -77.5 -63t-76.5 -61q-3 -3 -3 -4q0 -2 2 -2q1 0 5 2q42 29 83.5 58.5t76.5 56.5q3 3 3 5zM924 440q0 8 -8 13q-6 4 -16 4.5t-21 -0.5q-8 0 -12 -1q-23 -2 -50 -7.5t-59 -10.5v1q-1 31 -13 52q-21 42 -55.5 58t-80.5 16
h-18q-47 -3 -85.5 -24t-71.5 -57q-11 -11 -16 -23.5t-4 -23.5q2 -29 33 -38q15 -5 34 -6t43 1q26 2 52 6t64 10t74 12q2 -29 -3 -48.5t-10 -38.5q-4 -14 -13.5 -37.5t-26 -52t-40 -60t-54.5 -60.5q-27 -25 -60.5 -48t-69.5 -41t-74 -30t-75 -15q-32 -3 -61.5 4.5t-52.5 23
t-38 38t-18 51.5q-3 28 3 57t17 56.5t26 53.5t29 49q18 29 44.5 58t58 55.5t67 48t71.5 36.5q3 1 3 4v1q-1 2 -3 2h-2q-36 -15 -72 -37t-69.5 -47.5t-62.5 -52.5t-51 -52q-17 -19 -37.5 -45.5t-38.5 -58t-28.5 -66.5t-7.5 -71q3 -31 19.5 -55.5t43 -41.5t61.5 -25.5t74 -5.5
q42 3 85 15.5t83.5 31.5t77.5 44t68 54q72 66 114 124.5t59 115.5q6 20 7 39.5t1 33.5q11 2 21 3.5t21 2.5q20 2 39.5 0t34.5 -4q8 -2 16 -6t10 -9q1 -4 4 -4q4 0 4 4q1 5 2.5 9.5t8.5 6.5q5 2 5 8zM714 430q-14 -2 -29 -5t-29 -5q-24 -3 -44 -5t-38 -4q-21 -2 -39.5 -0.5
t-38.5 8.5q-34 13 -36 41q-1 15 7 30t22 29q15 14 38.5 22t48.5 10q21 2 40 -1.5t35 -12.5q29 -18 44.5 -43.5t18.5 -63.5z" />
    <glyph glyph-name="Ocircumflex" unicode="&#xd4;" horiz-adv-x="706" 
d="M676 627q0 17 -2 43t-3 54q0 4 -4 4q-3 0 -5 -1q-8 -5 -16 -12.5t-16 -15.5q-17 -17 -37 -36t-37 -34q-8 -8 -8 -13q0 -3 1 -4q2 -2 3 -2q2 0 12 12q17 19 37.5 40t39.5 38q2 2 6 2q3 0 3 -5q1 -20 2 -45t1 -45q0 -8 3 -8q2 0 6 4q6 6 10 9t4 15zM924 440q0 8 -8 13
q-6 4 -16 4.5t-21 -0.5q-8 0 -12 -1q-23 -2 -50 -7.5t-59 -10.5v1q-1 31 -13 52q-21 42 -55.5 58t-80.5 16h-18q-47 -3 -85.5 -24t-71.5 -57q-11 -11 -16 -23.5t-4 -23.5q2 -29 33 -38q15 -5 34 -6t43 1q26 2 52 6t64 10t74 12q2 -29 -3 -48.5t-10 -38.5q-4 -14 -13.5 -37.5
t-26 -52t-40 -60t-54.5 -60.5q-27 -25 -60.5 -48t-69.5 -41t-74 -30t-75 -15q-32 -3 -61.5 4.5t-52.5 23t-38 38t-18 51.5q-3 28 3 57t17 56.5t26 53.5t29 49q18 29 44.5 58t58 55.5t67 48t71.5 36.5q3 1 3 4v1q-1 2 -3 2h-2q-36 -15 -72 -37t-69.5 -47.5t-62.5 -52.5
t-51 -52q-17 -19 -37.5 -45.5t-38.5 -58t-28.5 -66.5t-7.5 -71q3 -31 19.5 -55.5t43 -41.5t61.5 -25.5t74 -5.5q42 3 85 15.5t83.5 31.5t77.5 44t68 54q72 66 114 124.5t59 115.5q6 20 7 39.5t1 33.5q11 2 21 3.5t21 2.5q20 2 39.5 0t34.5 -4q8 -2 16 -6t10 -9q1 -4 4 -4
q4 0 4 4q1 5 2.5 9.5t8.5 6.5q5 2 5 8zM714 430q-14 -2 -29 -5t-29 -5q-24 -3 -44 -5t-38 -4q-21 -2 -39.5 -0.5t-38.5 8.5q-34 13 -36 41q-1 15 7 30t22 29q15 14 38.5 22t48.5 10q21 2 40 -1.5t35 -12.5q29 -18 44.5 -43.5t18.5 -63.5z" />
    <glyph glyph-name="Otilde" unicode="&#xd5;" horiz-adv-x="706" 
d="M752 684q0 5 -4 5q-2 0 -4 -2t-2 -5q0 -16 -8 -27q-12 -17 -30 -17q-12 0 -25 9q-8 5 -19.5 16.5l-19.5 19.5q-12 12 -25 12t-26 -10q-14 -11 -29 -25t-23 -25q-4 -6 -4 -8q0 -3 3 -3q4 0 7 5q6 8 15 18t19 18q13 10 24 10q7 0 12.5 -3t10.5 -7q8 -7 14.5 -13.5
t20.5 -18.5q16 -13 32 -13q26 0 48 30q6 8 8 16l4 16v1q1 0 1 1zM924 440q0 8 -8 13q-6 4 -16 4.5t-21 -0.5q-8 0 -12 -1q-23 -2 -50 -7.5t-59 -10.5v1q-1 31 -13 52q-21 42 -55.5 58t-80.5 16h-18q-47 -3 -85.5 -24t-71.5 -57q-11 -11 -16 -23.5t-4 -23.5q2 -29 33 -38
q15 -5 34 -6t43 1q26 2 52 6t64 10t74 12q2 -29 -3 -48.5t-10 -38.5q-4 -14 -13.5 -37.5t-26 -52t-40 -60t-54.5 -60.5q-27 -25 -60.5 -48t-69.5 -41t-74 -30t-75 -15q-32 -3 -61.5 4.5t-52.5 23t-38 38t-18 51.5q-3 28 3 57t17 56.5t26 53.5t29 49q18 29 44.5 58t58 55.5
t67 48t71.5 36.5q3 1 3 4v1q-1 2 -3 2h-2q-36 -15 -72 -37t-69.5 -47.5t-62.5 -52.5t-51 -52q-17 -19 -37.5 -45.5t-38.5 -58t-28.5 -66.5t-7.5 -71q3 -31 19.5 -55.5t43 -41.5t61.5 -25.5t74 -5.5q42 3 85 15.5t83.5 31.5t77.5 44t68 54q72 66 114 124.5t59 115.5
q6 20 7 39.5t1 33.5q11 2 21 3.5t21 2.5q20 2 39.5 0t34.5 -4q8 -2 16 -6t10 -9q1 -4 4 -4q4 0 4 4q1 5 2.5 9.5t8.5 6.5q5 2 5 8zM714 430q-14 -2 -29 -5t-29 -5q-24 -3 -44 -5t-38 -4q-21 -2 -39.5 -0.5t-38.5 8.5q-34 13 -36 41q-1 15 7 30t22 29q15 14 38.5 22t48.5 10
q21 2 40 -1.5t35 -12.5q29 -18 44.5 -43.5t18.5 -63.5z" />
    <glyph glyph-name="Odieresis" unicode="&#xd6;" horiz-adv-x="706" 
d="M666 662q0 12 -13 12q-14 0 -23.5 -11.5t-9.5 -24.5q0 -12 12 -12q13 0 23.5 12t10.5 24zM564 666q0 12 -13 12q-14 0 -23.5 -11.5t-9.5 -24.5q0 -12 12 -12q13 0 23.5 12t10.5 24zM924 440q0 8 -8 13q-6 4 -16 4.5t-21 -0.5q-8 0 -12 -1q-23 -2 -50 -7.5t-59 -10.5v1
q-1 31 -13 52q-21 42 -55.5 58t-80.5 16h-18q-47 -3 -85.5 -24t-71.5 -57q-11 -11 -16 -23.5t-4 -23.5q2 -29 33 -38q15 -5 34 -6t43 1q26 2 52 6t64 10t74 12q2 -29 -3 -48.5t-10 -38.5q-4 -14 -13.5 -37.5t-26 -52t-40 -60t-54.5 -60.5q-27 -25 -60.5 -48t-69.5 -41
t-74 -30t-75 -15q-32 -3 -61.5 4.5t-52.5 23t-38 38t-18 51.5q-3 28 3 57t17 56.5t26 53.5t29 49q18 29 44.5 58t58 55.5t67 48t71.5 36.5q3 1 3 4v1q-1 2 -3 2h-2q-36 -15 -72 -37t-69.5 -47.5t-62.5 -52.5t-51 -52q-17 -19 -37.5 -45.5t-38.5 -58t-28.5 -66.5t-7.5 -71
q3 -31 19.5 -55.5t43 -41.5t61.5 -25.5t74 -5.5q42 3 85 15.5t83.5 31.5t77.5 44t68 54q72 66 114 124.5t59 115.5q6 20 7 39.5t1 33.5q11 2 21 3.5t21 2.5q20 2 39.5 0t34.5 -4q8 -2 16 -6t10 -9q1 -4 4 -4q4 0 4 4q1 5 2.5 9.5t8.5 6.5q5 2 5 8zM714 430q-14 -2 -29 -5
t-29 -5q-24 -3 -44 -5t-38 -4q-21 -2 -39.5 -0.5t-38.5 8.5q-34 13 -36 41q-1 15 7 30t22 29q15 14 38.5 22t48.5 10q21 2 40 -1.5t35 -12.5q29 -18 44.5 -43.5t18.5 -63.5z" />
    <glyph glyph-name="multiply" unicode="&#xd7;" horiz-adv-x="400" 
d="M222 139l-116 -117l22 -22l117 118l117 -118l22 22l-117 117l117 117l-22 22l-117 -118l-117 118l-22 -22z" />
    <glyph glyph-name="Oslash" unicode="&#xd8;" horiz-adv-x="706" 
d="M921 449q0 7 -9 12q-6 4 -16 4.5t-21 -0.5q-8 0 -12 -1q-22 -3 -49.5 -8.5t-58.5 -12.5v1q-3 32 -14 52q-22 41 -57 58l3 2l54 58q4 4 5 7t1 5q0 5 -6 5q-5 0 -14 -9q-15 -17 -23.5 -26.5t-14 -15t-9 -9.5t-8.5 -10l-1 -1q-15 5 -32 7t-36 2q-51 -1 -96 -23t-77 -62
q-21 -25 -19 -47q3 -29 33 -38q10 -2 29 -3t32.5 -0.5t15.5 0.5q-85 -92 -174 -189t-174 -190q-28 20 -41 48t-12 61q0 25 6.5 51t16.5 51t23 48t25 44q18 30 44 59.5t57.5 56t66.5 49t71 37.5q2 1 2 5v1q0 2 -3 1h-2q-36 -15 -71.5 -38t-68 -49t-61 -53.5t-50.5 -52.5
q-15 -18 -33.5 -42t-35 -53t-28 -60.5t-12.5 -64.5q-2 -44 19 -76.5t60 -51.5l-87 -97q-5 -6 -7 -11t-2 -8q0 -6 5 -6q8 2 16 11q4 5 14.5 18t23.5 28.5t25.5 30t20.5 22.5l6 6q36 -13 80 -15q45 0 91.5 12t91 33t84 49t71.5 58q70 66 111.5 125.5t57.5 117.5q5 20 6.5 39.5
t0.5 32.5q11 2 21 4t21 3q20 2 39.5 1t34.5 -3q8 -2 16 -6t10 -9q2 -4 4 -4q4 0 4 4q0 12 11 16q5 2 5 9zM710 435q-14 -3 -28.5 -5.5t-28.5 -4.5q-23 -4 -43 -7t-38 -5q-5 0 -9 -0.5t-9 -0.5v1l108 117q22 -17 34 -40t14 -55zM651 538q-25 -28 -56.5 -61.5t-56.5 -63.5
l-1 -1q-21 1 -44 9q-18 6 -26.5 16.5t-10.5 23.5q-2 14 6 29.5t22 29.5t37.5 23t48.5 11q23 2 42 -1t39 -15zM711 427q2 -29 -2 -48.5t-9 -39.5q-3 -14 -12.5 -37.5t-25 -52.5t-38.5 -60.5t-54 -61.5q-27 -26 -60 -49.5t-69 -42t-74 -31t-75 -16.5q-60 -5 -107 22
q85 97 176.5 195.5t178.5 192.5q8 1 16.5 2t17.5 3q26 4 63.5 10.5t73.5 13.5z" />
    <glyph glyph-name="Ugrave" unicode="&#xd9;" horiz-adv-x="997" 
d="M879 581v2q-4 15 -9 29t-10 27q-10 23 -23 57q-1 4 -4 4q-2 0 -5 -3q-5 -6 -5 -12q0 -5 3 -11q10 -20 23 -45t26 -48q1 -2 3 -2q1 0 1 2zM1022 84q0 3 -3 3t-5 -3q-27 -42 -59 -78.5t-70 -60.5q-28 -18 -48 -18q-21 0 -30.5 17t-9.5 43v8q2 47 14.5 101t29.5 108
q21 22 41.5 45.5t39 46t34.5 42.5t27 37t18 37.5t7 43.5q0 31 -14 62q-4 10 -13 10q-7 0 -11 -7q-9 -16 -19.5 -34.5t-18.5 -35.5q-8 -18 -19 -37t-21 -36q-12 -20 -24 -43.5t-23.5 -47.5t-22 -48t-18.5 -44q-3 -7 -5.5 -13.5t-5.5 -13.5l-6 -6q-17 -17 -40.5 -39.5t-53 -45
t-64.5 -42t-75 -30.5q-21 -6 -40 -6q-33 0 -57.5 16t-32.5 47q-5 20 -5 35q0 20 6.5 42t18.5 49q33 73 83.5 131.5t112.5 114.5q10 9 19 18t19 17q19 16 37 28q4 4 4 6q0 6 -5 6q-3 0 -5 -1q-4 -3 -8 -6.5t-9 -8.5t-13 -5h-5q-10 2 -30.5 3t-47.5 1h-27q-13 0 -28 -1
q-36 -2 -73 -7.5t-72 -15t-66.5 -22.5t-56.5 -29q-34 -22 -63 -50.5t-49 -65.5q-13 -23 -13 -46q0 -30 19 -49q4 -4 11 -4q4 0 6 1q6 2 12.5 4t12.5 2q7 0 7 4t-6 10q-7 5 -13.5 19.5t-6.5 34.5q0 9 1.5 19t6.5 21q13 30 31 50.5t40 34t47 21t52 12.5q17 3 42 5.5t53 5t55 4
t49 1.5h6q16 0 32 -1t27 -3q4 -1 4 -2t-3 -4q-65 -60 -121 -123t-103 -143q-20 -33 -28.5 -62t-8.5 -52q0 -43 26.5 -66.5t73.5 -23.5q53 0 124 33q49 23 94.5 58.5t78.5 67.5l17 17q-11 -32 -20.5 -68.5t-14.5 -74.5q-1 -6 -1.5 -11.5t-0.5 -10.5q0 -35 16.5 -54.5
t45.5 -19.5q35 0 79 29q34 23 68.5 60t62.5 82q1 2 1 5zM972 414q0 -17 -5.5 -34t-19.5 -35q-20 -28 -46.5 -59.5t-53.5 -60.5q4 11 7.5 21.5t7.5 20.5q23 64 46 113.5t43 82.5q1 3 4 3q2 0 4 -3q13 -24 13 -49z" />
    <glyph glyph-name="Uacute" unicode="&#xda;" horiz-adv-x="997" 
d="M997 696q0 4 -3 7t-5 3q-1 0 -5 -2q-38 -30 -78 -63t-76 -61q-3 -3 -3 -4q0 -2 2 -2q1 0 5 2q42 29 83.5 58.5t76.5 56.5q3 3 3 5zM1022 84q0 3 -3 3t-5 -3q-27 -42 -59 -78.5t-70 -60.5q-28 -18 -48 -18q-21 0 -30.5 17t-9.5 43v8q2 47 14.5 101t29.5 108
q21 22 41.5 45.5t39 46t34.5 42.5t27 37t18 37.5t7 43.5q0 31 -14 62q-4 10 -13 10q-7 0 -11 -7q-9 -16 -19.5 -34.5t-18.5 -35.5q-8 -18 -19 -37t-21 -36q-12 -20 -24 -43.5t-23.5 -47.5t-22 -48t-18.5 -44q-3 -7 -5.5 -13.5t-5.5 -13.5l-6 -6q-17 -17 -40.5 -39.5t-53 -45
t-64.5 -42t-75 -30.5q-21 -6 -40 -6q-33 0 -57.5 16t-32.5 47q-5 20 -5 35q0 20 6.5 42t18.5 49q33 73 83.5 131.5t112.5 114.5q10 9 19 18t19 17q19 16 37 28q4 4 4 6q0 6 -5 6q-3 0 -5 -1q-4 -3 -8 -6.5t-9 -8.5t-13 -5h-5q-10 2 -30.5 3t-47.5 1h-27q-13 0 -28 -1
q-36 -2 -73 -7.5t-72 -15t-66.5 -22.5t-56.5 -29q-34 -22 -63 -50.5t-49 -65.5q-13 -23 -13 -46q0 -30 19 -49q4 -4 11 -4q4 0 6 1q6 2 12.5 4t12.5 2q7 0 7 4t-6 10q-7 5 -13.5 19.5t-6.5 34.5q0 9 1.5 19t6.5 21q13 30 31 50.5t40 34t47 21t52 12.5q17 3 42 5.5t53 5t55 4
t49 1.5h6q16 0 32 -1t27 -3q4 -1 4 -2t-3 -4q-65 -60 -121 -123t-103 -143q-20 -33 -28.5 -62t-8.5 -52q0 -43 26.5 -66.5t73.5 -23.5q53 0 124 33q49 23 94.5 58.5t78.5 67.5l17 17q-11 -32 -20.5 -68.5t-14.5 -74.5q-1 -6 -1.5 -11.5t-0.5 -10.5q0 -35 16.5 -54.5
t45.5 -19.5q35 0 79 29q34 23 68.5 60t62.5 82q1 2 1 5zM972 414q0 -17 -5.5 -34t-19.5 -35q-20 -28 -46.5 -59.5t-53.5 -60.5q4 11 7.5 21.5t7.5 20.5q23 64 46 113.5t43 82.5q1 3 4 3q2 0 4 -3q13 -24 13 -49z" />
    <glyph glyph-name="Ucircumflex" unicode="&#xdb;" horiz-adv-x="997" 
d="M936 607q0 17 -2 43t-3 54q0 4 -4 4q-3 0 -5 -1q-8 -5 -16 -12.5t-16 -15.5q-17 -17 -37 -36t-37 -34q-8 -7 -8 -13q0 -3 1 -4q2 -2 3 -2q2 0 12 12q17 19 37.5 40t39.5 38q2 2 6 2q3 0 3 -5q1 -20 2 -45t1 -45q0 -8 3 -8q2 0 6 4q6 6 10 9t4 15zM1022 84q0 3 -3 3t-5 -3
q-27 -42 -59 -78.5t-70 -60.5q-28 -18 -48 -18q-21 0 -30.5 17t-9.5 43v8q2 47 14.5 101t29.5 108q21 22 41.5 45.5t39 46t34.5 42.5t27 37t18 37.5t7 43.5q0 31 -14 62q-4 10 -13 10q-7 0 -11 -7q-9 -16 -19.5 -34.5t-18.5 -35.5q-8 -18 -19 -37t-21 -36q-12 -20 -24 -43.5
t-23.5 -47.5t-22 -48t-18.5 -44q-3 -7 -5.5 -13.5t-5.5 -13.5l-6 -6q-17 -17 -40.5 -39.5t-53 -45t-64.5 -42t-75 -30.5q-21 -6 -40 -6q-33 0 -57.5 16t-32.5 47q-5 20 -5 35q0 20 6.5 42t18.5 49q33 73 83.5 131.5t112.5 114.5q10 9 19 18t19 17q19 16 37 28q4 4 4 6
q0 6 -5 6q-3 0 -5 -1q-4 -3 -8 -6.5t-9 -8.5t-13 -5h-5q-10 2 -30.5 3t-47.5 1h-27q-13 0 -28 -1q-36 -2 -73 -7.5t-72 -15t-66.5 -22.5t-56.5 -29q-34 -22 -63 -50.5t-49 -65.5q-13 -23 -13 -46q0 -30 19 -49q4 -4 11 -4q4 0 6 1q6 2 12.5 4t12.5 2q7 0 7 4t-6 10
q-7 5 -13.5 19.5t-6.5 34.5q0 9 1.5 19t6.5 21q13 30 31 50.5t40 34t47 21t52 12.5q17 3 42 5.5t53 5t55 4t49 1.5h6q16 0 32 -1t27 -3q4 -1 4 -2t-3 -4q-65 -60 -121 -123t-103 -143q-20 -33 -28.5 -62t-8.5 -52q0 -43 26.5 -66.5t73.5 -23.5q53 0 124 33q49 23 94.5 58.5
t78.5 67.5l17 17q-11 -32 -20.5 -68.5t-14.5 -74.5q-1 -6 -1.5 -11.5t-0.5 -10.5q0 -35 16.5 -54.5t45.5 -19.5q35 0 79 29q34 23 68.5 60t62.5 82q1 2 1 5zM972 414q0 -17 -5.5 -34t-19.5 -35q-20 -28 -46.5 -59.5t-53.5 -60.5q4 11 7.5 21.5t7.5 20.5q23 64 46 113.5
t43 82.5q1 3 4 3q2 0 4 -3q13 -24 13 -49z" />
    <glyph glyph-name="Udieresis" unicode="&#xdc;" horiz-adv-x="997" 
d="M956 632q0 12 -13 12q-14 0 -23.5 -11.5t-9.5 -24.5q0 -12 12 -12q13 0 23.5 12t10.5 24zM854 636q0 12 -13 12q-14 0 -23.5 -11.5t-9.5 -24.5q0 -12 12 -12q13 0 23.5 12t10.5 24zM1022 84q0 3 -3 3t-5 -3q-27 -42 -59 -78.5t-70 -60.5q-28 -18 -48 -18q-21 0 -30.5 17
t-9.5 43v8q2 47 14.5 101t29.5 108q21 22 41.5 45.5t39 46t34.5 42.5t27 37t18 37.5t7 43.5q0 31 -14 62q-4 10 -13 10q-7 0 -11 -7q-9 -16 -19.5 -34.5t-18.5 -35.5q-8 -18 -19 -37t-21 -36q-12 -20 -24 -43.5t-23.5 -47.5t-22 -48t-18.5 -44q-3 -7 -5.5 -13.5t-5.5 -13.5
l-6 -6q-17 -17 -40.5 -39.5t-53 -45t-64.5 -42t-75 -30.5q-21 -6 -40 -6q-33 0 -57.5 16t-32.5 47q-5 20 -5 35q0 20 6.5 42t18.5 49q33 73 83.5 131.5t112.5 114.5q10 9 19 18t19 17q19 16 37 28q4 4 4 6q0 6 -5 6q-3 0 -5 -1q-4 -3 -8 -6.5t-9 -8.5t-13 -5h-5
q-10 2 -30.5 3t-47.5 1h-27q-13 0 -28 -1q-36 -2 -73 -7.5t-72 -15t-66.5 -22.5t-56.5 -29q-34 -22 -63 -50.5t-49 -65.5q-13 -23 -13 -46q0 -30 19 -49q4 -4 11 -4q4 0 6 1q6 2 12.5 4t12.5 2q7 0 7 4t-6 10q-7 5 -13.5 19.5t-6.5 34.5q0 9 1.5 19t6.5 21q13 30 31 50.5
t40 34t47 21t52 12.5q17 3 42 5.5t53 5t55 4t49 1.5h6q16 0 32 -1t27 -3q4 -1 4 -2t-3 -4q-65 -60 -121 -123t-103 -143q-20 -33 -28.5 -62t-8.5 -52q0 -43 26.5 -66.5t73.5 -23.5q53 0 124 33q49 23 94.5 58.5t78.5 67.5l17 17q-11 -32 -20.5 -68.5t-14.5 -74.5
q-1 -6 -1.5 -11.5t-0.5 -10.5q0 -35 16.5 -54.5t45.5 -19.5q35 0 79 29q34 23 68.5 60t62.5 82q1 2 1 5zM972 414q0 -17 -5.5 -34t-19.5 -35q-20 -28 -46.5 -59.5t-53.5 -60.5q4 11 7.5 21.5t7.5 20.5q23 64 46 113.5t43 82.5q1 3 4 3q2 0 4 -3q13 -24 13 -49z" />
    <glyph glyph-name="Yacute" unicode="&#xdd;" horiz-adv-x="635" 
d="M691 676q0 4 -3 7t-5 3q-1 0 -5 -2q-38 -30 -78 -63t-76 -61q-3 -3 -3 -4q0 -2 2 -2q1 0 5 2q42 29 83.5 58.5t76.5 56.5q3 3 3 5zM831 547q0 16 -15 16q-12 0 -27 -12q-19 -14 -40.5 -34.5t-42.5 -43.5q-14 -15 -31.5 -35.5t-36 -44t-37.5 -48.5t-35 -48
q-23 -32 -47.5 -68t-51.5 -79q-36 -22 -58 -22q-49 0 -49 106q0 42 2.5 87.5t4.5 84.5v17q0 47 -16 72.5t-49 25.5q-19 0 -43 -9q-26 -10 -48 -24t-40 -28q-20 -17 -45 -39t-42 -42q-2 -2 -2 -5t3 -3t6 3q18 19 43.5 42.5t51.5 42.5q38 28 69 28q52 0 66 -78
q5 -25 6.5 -55.5t1.5 -62.5q0 -23 -0.5 -44.5t-2.5 -39.5q-1 -6 -1 -12v-11q0 -82 50 -82q31 0 81 30q-7 -11 -13.5 -22t-13.5 -22q-10 -15 -23 -36.5t-27 -46.5t-27.5 -50.5t-22.5 -49.5q-13 -35 -13 -67q0 -39 20.5 -66t59.5 -35q11 -2 22.5 -2.5t22.5 -0.5q35 0 68 5.5
t62 13.5q30 8 55 12.5t44 4.5q6 0 11 -0.5t10 -1.5q27 -6 27 -21q0 -13 -17 -28q-16 -15 -26 -17q-9 -2 -9 -5v-1q1 0 1 -1q3 -5 8 -5q4 0 6 1q6 3 12 9t18 15q10 8 21.5 19.5t19.5 25.5q5 7 5 18q0 17 -20 22q-10 2 -17 2q-17 0 -35 -4.5t-38 -10.5q-13 -4 -30 -9.5
t-37 -10.5t-41.5 -9.5t-44.5 -5.5h-8q-52 0 -88.5 30t-39.5 82q0 4 -0.5 8t-0.5 8q0 32 9.5 62.5t31.5 70.5q14 26 34.5 61t43.5 70q40 26 79 59.5t72 68.5q28 29 59.5 65.5t56.5 68.5t45.5 60.5t33.5 51.5q9 18 9 29zM779 512q0 -8 -6.5 -22t-13.5 -25
q-55 -92 -118.5 -162.5t-132.5 -124.5q-5 -4 -10 -7.5t-10 -7.5l22 34t21 31q39 57 81 112.5t77 97.5q23 28 41 46t38 35q4 3 6 3q5 0 5 -10z" />
    <glyph glyph-name="Thorn" unicode="&#xde;" horiz-adv-x="767" 
d="M700 381q0 45 -32 65t-109 14l-9 -0.5t-22 -1.5t-27.5 -2.5t-24.5 -2.5l26 46q6 13 17.5 32t25.5 36.5t28.5 31t25.5 17.5l-1.5 8.5t-8.5 9.5q-5 1 -10 -2.5l-5 -3.5q-11 -8 -24.5 -26.5t-25.5 -39t-21.5 -39t-12.5 -25.5q-5 -8 -12 -20t-15 -26q-30 -4 -59 -7t-54.5 -5
t-45.5 -3.5t-32 -1.5q-21 -1 -39.5 2t-33 9.5t-23 16t-8.5 21.5v12t7 21v1q0 2 -3 2t-4 -2l-1 -2q-14 -25 -21 -39t-6 -29q1 -24 24.5 -36t67.5 -10q23 1 52 5t59 9.5t59.5 11.5t53.5 11q-18 -33 -40.5 -74t-46.5 -84.5t-49 -86t-47 -77t-40.5 -58.5t-30.5 -30q-2 -1 -13 -1
h-23q-12 0 -23 -0.5t-15 -2.5q-5 -3 -9 -8t-6.5 -10.5t-2.5 -9.5q0 -5 3 -6q4 -1 22 0t42.5 2.5t53 4t54.5 5t45.5 5t25.5 3.5q22 5 43 15.5t40 23.5l2 1t2 5q0 3 -2 3h-2q-18 -9 -38.5 -14.5t-37.5 -8.5t-29.5 -3.5t-14.5 -0.5q-18 -1 -47 -1.5t-55 -1.5q12 9 25.5 19
t23.5 21q6 8 16 25t21.5 38t22.5 43l20 40q7 -17 34 -29t60 -11q39 1 84.5 14t84.5 39t65 64t26 89zM640 366q2 -32 -9.5 -62.5t-33.5 -54.5t-53.5 -38.5t-68.5 -14.5q-32 0 -48 7.5t-24.5 16.5t-11.5 16.5t-7 7.5t-13 -6.5t-16 -12t-8 -6.5q8 14 13 23l10 18t11.5 20.5
t17.5 31t28 50.5t43 79q4 0 12 0.5t15.5 1t14 1t9.5 0.5q51 0 84 -19.5t35 -58.5z" />
    <glyph glyph-name="germandbls" unicode="&#xdf;" horiz-adv-x="364" 
d="M516 553q0 13 -9 19q-7 6 -19 6q-18 0 -34 -11t-35 -27t-33 -31q-41 -42 -74.5 -84.5t-61.5 -87.5q-14 -22 -31.5 -52t-35.5 -62.5t-35.5 -65.5t-30.5 -61l-15 -31q-2 5 -3.5 10t-3.5 10q-1 5 -1.5 9t-0.5 9q0 9 2 17.5t5 16.5q5 11 12.5 22.5t18.5 22.5q4 4 4 8
q0 3 -3 3q-5 0 -9 -6q-27 -37 -45 -79q-2 -5 -3 -9t-1 -9q0 -2 0.5 -4t0.5 -4q3 -22 16 -39q-14 -29 -29.5 -61t-31 -62.5t-30 -58t-26.5 -47.5q-29 -51 -58.5 -95t-69.5 -87q-19 -20 -45.5 -37.5t-50.5 -25.5q-16 -5 -34 -7t-35 -5l-6 -1q-11 -2 -21 0.5l-18 4.5
q-11 3 -20 9t-14 13q-3 4 -7 4q-2 0 -2 -2q0 -4 3 -7q17 -19 39 -27.5t46 -8.5h1q26 0 53 8.5t52 24.5q36 23 72 59t68 81q31 42 59 85.5t60 97.5q16 27 34 58t36 64q5 -3 9.5 -6t9.5 -5q16 -8 34.5 -11t38.5 -3q24 0 47 5t41 15q32 17 54 47t22 63q0 23 -9.5 36t-29.5 24
q-23 12 -36 24t-13 28q0 18 19 41q19 24 42 50t46 52.5t45.5 52t40.5 48.5q11 14 21 29.5t15 28.5q3 7 3 14zM472 522q0 -9 -3.5 -19.5t-8.5 -18.5q-11 -18 -32 -44.5t-47.5 -57.5t-55.5 -63.5t-56 -60.5q-23 -25 -23 -44q0 -28 44 -46q22 -9 35 -25t13 -36v-4
q0 -28 -15.5 -49.5t-38.5 -34.5q-29 -15 -66 -15q-22 0 -42.5 5t-34.5 14q-5 3 -9 6t-8 7q21 38 42 76.5t38 73.5q28 56 64 120t70 122q15 26 34 51.5t35 39.5q8 8 17.5 15.5t20.5 9.5q3 1 7 1q14 0 19 -15q1 -2 1 -8z" />
    <glyph glyph-name="agrave" unicode="&#xe0;" horiz-adv-x="269" 
d="M217 258v2q-4 15 -9 29t-10 27q-5 12 -11 26.5t-12 30.5q-1 4 -4 4q-2 0 -5 -3q-6 -8 -6 -12q0 -3 4 -11q10 -20 23 -45t26 -48q1 -2 3 -2q1 0 1 2zM367 122q3 4 -0.5 6.5t-6.5 -2.5q-12 -18 -28 -36.5t-33 -35t-35 -30t-34 -20.5q-31 -14 -44 -2t-6 46q9 45 27 87t50 92
q4 5 0 10l-2 4q-3 4 -3 11q0 6 -5 6q-4 0 -7 -4q-17 -23 -31 -53q-17 0 -34 -8t-32 -19q-29 -20 -59 -50.5t-50 -66.5q-16 -30 -4.5 -43.5t40.5 4.5q29 17 56.5 48.5t53.5 66.5q-19 -40 -29 -71q-20 -64 -3.5 -83.5t76.5 11.5q38 20 77 57.5t66 74.5zM204 191
q-23 -45 -51.5 -80.5t-56.5 -61.5q-15 -14 -22 -9.5t0 24.5q4 13 12 27t17.5 27t19 24t17.5 18q16 14 33 22.5t31 8.5z" />
    <glyph glyph-name="aacute" unicode="&#xe1;" horiz-adv-x="269" 
d="M357 393q0 4 -3 7q-2 3 -5 3q-1 0 -5 -2q-38 -30 -78 -63t-76 -61q-3 -3 -3 -4q0 -2 2 -2q1 0 5 2q42 29 83.5 58.5t76.5 56.5q3 3 3 5zM367 122q3 4 -0.5 6.5t-6.5 -2.5q-12 -18 -28 -36.5t-33 -35t-35 -30t-34 -20.5q-31 -14 -44 -2t-6 46q9 45 27 87t50 92q4 5 0 10
l-2 4q-3 4 -3 11q0 6 -5 6q-4 0 -7 -4q-17 -23 -31 -53q-17 0 -34 -8t-32 -19q-29 -20 -59 -50.5t-50 -66.5q-16 -30 -4.5 -43.5t40.5 4.5q29 17 56.5 48.5t53.5 66.5q-19 -40 -29 -71q-20 -64 -3.5 -83.5t76.5 11.5q38 20 77 57.5t66 74.5zM204 191q-23 -45 -51.5 -80.5
t-56.5 -61.5q-15 -14 -22 -9.5t0 24.5q4 13 12 27t17.5 27t19 24t17.5 18q16 14 33 22.5t31 8.5z" />
    <glyph glyph-name="acircumflex" unicode="&#xe2;" horiz-adv-x="269" 
d="M310 295q0 17 -2 43t-3 54q0 5 -4 5q-1 0 -5 -2q-8 -5 -16 -12.5t-16 -15.5q-17 -17 -37 -36t-37 -34q-9 -9 -9 -13q0 -2 2 -4q1 -1 2 -1q4 0 13 11q17 19 37.5 40t39.5 38q3 3 5 3q4 0 4 -6q1 -20 2 -45t1 -45q0 -7 3 -7t6 3q6 6 10 9t4 15zM367 122q3 4 -0.5 6.5
t-6.5 -2.5q-12 -18 -28 -36.5t-33 -35t-35 -30t-34 -20.5q-31 -14 -44 -2t-6 46q9 45 27 87t50 92q4 5 0 10l-2 4q-3 4 -3 11q0 6 -5 6q-4 0 -7 -4q-17 -23 -31 -53q-17 0 -34 -8t-32 -19q-29 -20 -59 -50.5t-50 -66.5q-16 -30 -4.5 -43.5t40.5 4.5q29 17 56.5 48.5
t53.5 66.5q-19 -40 -29 -71q-20 -64 -3.5 -83.5t76.5 11.5q38 20 77 57.5t66 74.5zM204 191q-23 -45 -51.5 -80.5t-56.5 -61.5q-15 -14 -22 -9.5t0 24.5q4 13 12 27t17.5 27t19 24t17.5 18q16 14 33 22.5t31 8.5z" />
    <glyph glyph-name="atilde" unicode="&#xe3;" horiz-adv-x="269" 
d="M355 357v2q0 5 -4 5q-5 0 -5 -7q0 -15 -9 -27q-12 -17 -29 -17q-12 0 -25 9q-8 5 -19.5 16.5l-19.5 19.5q-12 12 -25 12t-26 -10q-14 -11 -29.5 -25t-23.5 -25q-3 -5 -3 -8t3 -3q4 0 7 5q6 8 15 18t19 18q13 10 24 10q7 0 12.5 -3t10.5 -7q8 -7 14.5 -13.5t20.5 -18.5
q16 -13 32 -13q26 0 48 30q6 8 8 16zM367 122q3 4 -0.5 6.5t-6.5 -2.5q-12 -18 -28 -36.5t-33 -35t-35 -30t-34 -20.5q-31 -14 -44 -2t-6 46q9 45 27 87t50 92q4 5 0 10l-2 4q-3 4 -3 11q0 6 -5 6q-4 0 -7 -4q-17 -23 -31 -53q-17 0 -34 -8t-32 -19q-29 -20 -59 -50.5
t-50 -66.5q-16 -30 -4.5 -43.5t40.5 4.5q29 17 56.5 48.5t53.5 66.5q-19 -40 -29 -71q-20 -64 -3.5 -83.5t76.5 11.5q38 20 77 57.5t66 74.5zM204 191q-23 -45 -51.5 -80.5t-56.5 -61.5q-15 -14 -22 -9.5t0 24.5q4 13 12 27t17.5 27t19 24t17.5 18q16 14 33 22.5t31 8.5z
" />
    <glyph glyph-name="adieresis" unicode="&#xe4;" horiz-adv-x="269" 
d="M305 328q0 13 -14 13t-23 -12t-9 -25q0 -12 12 -12q13 0 23.5 12t10.5 24zM233 334q0 13 -14 13t-23 -12t-9 -25q0 -12 12 -12q13 0 23.5 12t10.5 24zM367 122q3 4 -0.5 6.5t-6.5 -2.5q-12 -18 -28 -36.5t-33 -35t-35 -30t-34 -20.5q-31 -14 -44 -2t-6 46q9 45 27 87
t50 92q3 4 0 10l-2 4q-1 2 -2 4.5t-1 6.5q0 6 -5 6q-4 0 -7 -4q-17 -23 -31 -53q-17 0 -34 -8t-32 -19q-29 -20 -59 -50.5t-50 -66.5q-16 -30 -4.5 -43.5t40.5 4.5q29 17 56.5 48.5t53.5 66.5q-19 -40 -29 -71q-20 -64 -3.5 -83.5t76.5 11.5q38 20 77 57.5t66 74.5zM204 191
q-23 -45 -51.5 -80.5t-56.5 -61.5q-15 -14 -22 -9.5t0 24.5q4 13 12 27t17.5 27t19 24t17.5 18q16 14 33 22.5t31 8.5z" />
    <glyph glyph-name="aring" unicode="&#xe5;" horiz-adv-x="269" 
d="M270 347q0 14 -9 23.5t-26 9.5t-32.5 -12t-20.5 -31q-1 -3 -1 -10q0 -14 9.5 -23.5t25.5 -9.5q18 0 33.5 12t19.5 31q1 3 1 10zM367 122q3 4 -0.5 6.5t-6.5 -2.5q-12 -18 -28 -36.5t-33 -35t-35 -30t-34 -20.5q-31 -14 -44 -2t-6 46q9 45 27 87t50 92q4 5 0 10l-2 4
q-3 4 -3 11q0 6 -5 6q-4 0 -7 -4q-17 -23 -31 -53q-17 0 -34 -8t-32 -19q-29 -20 -59 -50.5t-50 -66.5q-16 -30 -4.5 -43.5t40.5 4.5q29 17 56.5 48.5t53.5 66.5q-19 -40 -29 -71q-20 -64 -3.5 -83.5t76.5 11.5q38 20 77 57.5t66 74.5zM256 337q-2 -13 -12.5 -22t-24.5 -9
q-25 0 -25 23q0 2 0.5 4t0.5 4q3 13 13.5 22t23.5 9q11 0 17.5 -6.5t6.5 -17.5q0 -2 0.5 -3.5t-0.5 -3.5zM204 191q-23 -45 -51.5 -80.5t-56.5 -61.5q-15 -14 -22 -9.5t0 24.5q4 13 12 27t17.5 27t19 24t17.5 18q16 14 33 22.5t31 8.5z" />
    <glyph glyph-name="ae" unicode="&#xe6;" horiz-adv-x="337" 
d="M417 97q0 4 -3 4q-1 0 -3 -2q-15 -16 -34.5 -30.5t-40.5 -27t-42 -21.5t-39 -14q-15 -4 -32 -4q-18 0 -32 8t-14 28q0 9 4 20l9 24q23 9 49.5 20.5t49.5 25t39.5 28.5t20.5 29q1 4 1.5 7t0.5 6q0 2 -0.5 2.5t-0.5 2.5q-2 8 -8 10.5t-13 2.5h-1q-19 0 -50 -14
q-28 -12 -55 -35q6 11 12.5 21t13.5 21q3 4 3 7t-3 3q-2 0 -8 -4q-3 -2 -7 -5t-6 -6q-11 10 -30 10q-15 0 -32 -10q-43 -26 -79.5 -73.5t-55.5 -99.5q-3 -9 -3 -16q0 -21 20 -21q14 0 28 10q20 14 39.5 34.5t40.5 47.5q-18 -35 -18 -58q0 -21 14 -32t38 -11q28 0 52 7
q44 12 91 40t82 61q2 2 2 4zM313 177q-2 -16 -14 -28.5t-32 -24.5q-16 -10 -35 -18t-37 -14q14 29 35 55t47 44q11 8 21 8q15 0 15 -18v-4zM202 181q-10 -22 -20.5 -39.5t-24.5 -37.5q-22 -30 -39 -49.5t-35 -33.5q-5 -4 -9 -4q-2 0 -4 2q-1 1 -1 6q0 6 3 17q12 37 31.5 72
t42.5 62q15 18 32 18q13 0 24 -13z" />
    <glyph glyph-name="ccedilla" unicode="&#xe7;" horiz-adv-x="239" 
d="M265 82q0 2 -2 2q-3 0 -5 -2q-15 -14 -39.5 -32t-44.5 -30q-36 -21 -61 -21q-30 0 -30 32q0 18 12 48q15 36 32.5 62t37.5 40q14 10 26 10q10 0 16 -6.5t11 -16.5q4 -8 8 -8q5 0 9.5 7t6.5 12q3 6 3 10q0 6 -6 14t-16 8q-3 0 -7 -2q-27 -9 -49 -17.5t-40.5 -22.5
t-34.5 -34.5t-31 -53.5q-7 -14 -9.5 -26t-2.5 -23q0 -23 12.5 -35t34.5 -13q-10 -6 -19.5 -13t-15.5 -13t-6 -13t7 -12l10 -6t9 -6q6 -5 6 -11t-7 -13q-6 -5 -15.5 -11t-16.5 -9t-15 -6t-13 -5t-5 -4q0 -1 2 -3q3 -3 6 -3t7 2q17 8 38 22.5t36 27.5q13 10 13 21q0 12 -19 21
q-13 6 -13 12q0 5 9 13q2 2 6 4.5t9 4.5q24 3 54 21q32 18 58 37.5t41 33.5q3 3 3 6z" />
    <glyph glyph-name="egrave" unicode="&#xe8;" horiz-adv-x="228" 
d="M197 258v2q-4 15 -9 29t-10 27q-10 23 -23 57q-1 4 -4 4q-2 0 -5 -3q-5 -6 -5 -12q0 -5 3 -11q10 -20 23 -45t26 -48q1 -2 3 -2q1 0 1 2zM314 105q2 4 1 7.5t-5 -1.5q-25 -37 -56.5 -61.5t-62 -36.5t-56.5 -12.5t-41 10.5q-23 15 -15 48q38 23 75.5 50.5t59.5 60.5
q9 14 9 24t-7.5 14.5t-20.5 3t-29 -9.5q-29 -15 -58 -44.5t-47 -58.5t-22 -53t5 -40t30.5 -22t54.5 1q21 4 46 13t50.5 23.5t48.5 35t40 48.5zM195 176q-19 -32 -48 -58.5t-67 -47.5q5 18 14.5 37t22 36t26.5 30.5t28 22.5q18 11 26.5 4.5t-2.5 -24.5z" />
    <glyph glyph-name="eacute" unicode="&#xe9;" horiz-adv-x="228" 
d="M297 393q0 4 -3 7t-5 3q-1 0 -5 -2q-38 -30 -78 -63t-76 -61q-3 -3 -3 -4q0 -2 2 -2q1 0 5 2q42 29 83.5 58.5t76.5 56.5q3 3 3 5zM314 105q2 4 1 7.5t-5 -1.5q-25 -37 -56.5 -61.5t-62 -36.5t-56.5 -12.5t-41 10.5q-23 15 -15 48q38 23 75.5 50.5t59.5 60.5q9 14 9 24
t-7.5 14.5t-20.5 3t-29 -9.5q-29 -15 -58 -44.5t-47 -58.5t-22 -53t5 -40t30.5 -22t54.5 1q21 4 46 13t50.5 23.5t48.5 35t40 48.5zM195 176q-19 -32 -48 -58.5t-67 -47.5q5 18 14.5 37t22 36t26.5 30.5t28 22.5q18 11 26.5 4.5t-2.5 -24.5z" />
    <glyph glyph-name="ecircumflex" unicode="&#xea;" horiz-adv-x="228" 
d="M250 295q0 17 -2 43t-3 54q0 5 -4 5q-1 0 -5 -2q-8 -5 -16 -12.5t-16 -15.5q-17 -17 -37 -36t-37 -34q-9 -8 -9 -13q0 -2 2 -4q1 -1 2 -1q4 0 13 11q17 19 37.5 40t39.5 38q3 3 5 3q4 0 4 -6q1 -20 2 -45t1 -45q0 -7 3 -7t6 3q6 6 10 9t4 15zM314 105q2 4 1 7.5t-5 -1.5
q-25 -37 -56.5 -61.5t-62 -36.5t-56.5 -12.5t-41 10.5q-23 15 -15 48q38 23 75.5 50.5t59.5 60.5q9 14 9 24t-7.5 14.5t-20.5 3t-29 -9.5q-29 -15 -58 -44.5t-47 -58.5t-22 -53t5 -40t30.5 -22t54.5 1q21 4 46 13t50.5 23.5t48.5 35t40 48.5zM195 176q-19 -32 -48 -58.5
t-67 -47.5q5 18 14.5 37t22 36t26.5 30.5t28 22.5q18 11 26.5 4.5t-2.5 -24.5z" />
    <glyph glyph-name="edieresis" unicode="&#xeb;" horiz-adv-x="228" 
d="M275 328q0 13 -13 13q-14 0 -23.5 -12t-9.5 -25q0 -12 12 -12q13 0 23.5 12t10.5 24zM203 334q0 13 -13 13q-14 0 -23.5 -12t-9.5 -25q0 -12 12 -12q13 0 23.5 12t10.5 24zM314 105q2 4 1 7.5t-5 -1.5q-25 -37 -56.5 -61.5t-62 -36.5t-56.5 -12.5t-41 10.5q-23 15 -15 48
q38 23 75.5 50.5t59.5 60.5q9 14 9 24t-7.5 14.5t-20.5 3t-29 -9.5q-29 -15 -58 -44.5t-47 -58.5t-22 -53t5 -40t30.5 -22t54.5 1q21 4 46 13t50.5 23.5t48.5 35t40 48.5zM195 176q-19 -32 -48 -58.5t-67 -47.5q5 18 14.5 37t22 36t26.5 30.5t28 22.5q18 11 26.5 4.5
t-2.5 -24.5z" />
    <glyph glyph-name="igrave" unicode="&#xec;" horiz-adv-x="181" 
d="M318 165q6 6 3 9t-8 -3q-18 -19 -40.5 -39.5t-46.5 -40t-49 -37t-47 -29.5q-26 -14 -35 -4t3 38q11 25 32.5 60t45.5 68q15 20 6 25.5t-27 -0.5q-20 -7 -45.5 -15t-46.5 -13q-8 -2 -6.5 -6.5t6.5 -2.5q16 5 29 9.5t27 8.5q13 4 17 -2.5t-4 -23.5q-9 -20 -25 -46.5
t-31 -50.5q-21 -34 -24.5 -52.5t6 -23.5t30 1t46.5 22q47 28 96 68.5t88 79.5zM177 258v2q-4 15 -9 29t-10 27q-10 23 -23 57q-1 4 -4 4q-2 0 -5 -3q-5 -6 -5 -12q0 -5 3 -11q10 -20 23 -45t26 -48q1 -2 3 -2q1 0 1 2z" />
    <glyph glyph-name="iacute" unicode="&#xed;" horiz-adv-x="181" 
d="M318 165q6 6 3 9t-8 -3q-18 -19 -40.5 -39.5t-46.5 -40t-49 -37t-47 -29.5q-26 -14 -35 -4t3 38q11 25 32.5 60t45.5 68q15 20 6 25.5t-27 -0.5q-20 -7 -45.5 -15t-46.5 -13q-8 -2 -6.5 -6.5t6.5 -2.5q16 5 29 9.5t27 8.5q13 4 17 -2.5t-4 -23.5q-9 -20 -25 -46.5
t-31 -50.5q-21 -34 -24.5 -52.5t6 -23.5t30 1t46.5 22q47 28 96 68.5t88 79.5zM287 393q0 4 -3 7t-5 3q-1 0 -5 -2q-38 -30 -78 -63t-76 -61q-3 -3 -3 -4q0 -2 2 -2q1 0 5 2q42 29 83.5 58.5t76.5 56.5q3 3 3 5z" />
    <glyph glyph-name="icircumflex" unicode="&#xee;" horiz-adv-x="181" 
d="M318 165q6 6 3 9t-8 -3q-18 -19 -40.5 -39.5t-46.5 -40t-49 -37t-47 -29.5q-26 -14 -35 -4t3 38q11 25 32.5 60t45.5 68q15 20 6 25.5t-27 -0.5q-20 -7 -45.5 -15t-46.5 -13q-8 -2 -6.5 -6.5t6.5 -2.5q16 5 29 9.5t27 8.5q13 4 17 -2.5t-4 -23.5q-9 -20 -25 -46.5
t-31 -50.5q-21 -34 -24.5 -52.5t6 -23.5t30 1t46.5 22q47 28 96 68.5t88 79.5zM230 295q0 17 -2 43t-3 54q0 5 -4 5q-1 0 -5 -2q-8 -5 -16 -12.5t-16 -15.5q-17 -17 -37 -36t-37 -34q-9 -8 -9 -13q0 -2 2 -4q1 -1 2 -1q4 0 13 11q17 19 37.5 40t39.5 38q3 3 5 3q4 0 4 -6
q1 -20 2 -45t1 -45q0 -7 3 -7q1 0 6 3q6 6 10 9t4 15z" />
    <glyph glyph-name="idieresis" unicode="&#xef;" horiz-adv-x="181" 
d="M318 165q6 6 3 9t-8 -3q-18 -19 -40.5 -39.5t-46.5 -40t-49 -37t-47 -29.5q-26 -14 -35 -4t3 38q11 25 32.5 60t45.5 68q15 20 6 25.5t-27 -0.5q-20 -7 -45.5 -15t-46.5 -13q-8 -2 -6.5 -6.5t6.5 -2.5q16 5 29 9.5t27 8.5q13 4 17 -2.5t-4 -23.5q-9 -20 -25 -46.5
t-31 -50.5q-21 -34 -24.5 -52.5t6 -23.5t30 1t46.5 22q47 28 96 68.5t88 79.5zM247 328q0 13 -13 13q-14 0 -23.5 -12t-9.5 -25q0 -12 12 -12t23 12t11 24zM175 334q0 13 -13 13q-14 0 -23.5 -12t-9.5 -25q0 -12 12 -12t23 12t11 24z" />
    <glyph glyph-name="eth" unicode="&#xf0;" horiz-adv-x="245" 
d="M284 431v3q-1 8 -9 8h-3q-21 -4 -41.5 -10t-40.5 -13l-15 33q-12 26 -27.5 56.5t-33 60.5t-35 58t-33.5 48q-2 2 -3 2q-3 0 -5 -6q-1 -4 -1.5 -9.5l-0.5 -5.5l2 -10t7 -18q21 -36 45.5 -80.5t51.5 -95.5q5 -11 11 -21t11 -21q-16 -5 -32 -9.5t-32 -8.5q-5 -2 -9 -2.5
t-9 -0.5q-2 0 -2 -2q0 -3 1 -4l3 -4q4 -6 11 -6q2 0 8 2q17 6 33 12t33 11q20 -42 38 -84.5t30 -84.5q1 -2 1 -4q0 -6 -4 -7q-64 -34 -105 -92q-17 -23 -29.5 -52t-12.5 -57q0 -45 34 -45h2q23 0 50 17t44 41q18 26 28 60.5t10 77.5t-10 86q-9 38 -21 75.5t-29 76.5
q15 5 30 9l30 8q6 2 12 3t9 1h2q1 0 1.5 -0.5t1.5 -0.5q3 0 3 5zM243 184q0 -21 -4.5 -46t-12 -48.5t-19 -44.5t-24.5 -34q-24 -24 -42 -24q-20 0 -20 30q0 14 8 40q9 26 21 49.5t23 41.5q9 15 25 33t33 27q2 1 6 1q5 0 5 -6q1 -5 1 -10v-9z" />
    <glyph glyph-name="ntilde" unicode="&#xf1;" horiz-adv-x="264" 
d="M336 359q0 5 -4 5q-6 0 -6 -7q0 -16 -8 -27q-12 -17 -30 -17q-12 0 -25 9q-8 5 -19.5 16.5l-19.5 19.5q-12 12 -25 12t-26 -10q-14 -11 -29 -25t-23 -25q-4 -6 -4 -8q0 -3 3 -3t7 5q6 8 15 18t19 18q13 10 24 10q7 0 12.5 -3t10.5 -7q8 -7 14.5 -13.5t20.5 -18.5
q16 -13 32 -13q26 0 48 30q5 8 7.5 16t4.5 16v1q1 0 1 1zM347 99q5 5 2 7.5t-7 -1.5q-24 -26 -58 -51.5t-66 -42.5q-32 -16 -44.5 -4.5t-2.5 38.5q11 31 34 72.5t49 80.5q8 11 3 18q-7 8 -16 3q-34 -21 -64.5 -45t-60.5 -51q9 20 18 39t17 33q3 5 3 9t-6 9q-11 9 -18 -1
q-17 -25 -27.5 -52t-25.5 -53q-13 -21 -27.5 -40.5t-25.5 -39.5q-5 -8 -4 -17t5 -17q5 -12 13 -2q19 25 34 52t31 53q19 22 44.5 44t47.5 36q3 2 5 1t0 -6q-7 -21 -22.5 -51t-29.5 -53q-19 -32 -22 -52t7.5 -27.5t33.5 -3t56 21.5q31 16 64.5 41.5t59.5 51.5z" />
    <glyph glyph-name="ograve" unicode="&#xf2;" horiz-adv-x="227" 
d="M211 258v2q-4 15 -9 29t-10 27q-5 12 -11 26.5t-12 30.5q-1 4 -4 4q-2 0 -5 -3q-6 -8 -6 -12q0 -3 4 -11q10 -20 23 -45t26 -48q1 -2 3 -2q1 0 1 2zM339 143q4 3 2.5 7t-6.5 -1q-18 -17 -47 -33t-52 -23t-33 4t-5 34q4 14 10 30.5t12 32.5q3 8 2 11q0 4 -5 4
q-13 -2 -23 -5q-2 -1 -6 -5q-11 0 -26 -6q-18 -7 -36 -21.5t-34 -32.5t-29 -37.5t-19 -37.5q-11 -33 -5 -52.5t23 -24.5q17 -4 40 8.5t46 41.5q8 9 14 20l12 22q20 -10 54 2q13 4 28 11t30 15.5t29 18t24 17.5zM184 186q-3 -14 -7.5 -29t-9.5 -26q-13 -29 -2 -45
q-8 -16 -17.5 -31.5t-21.5 -29.5q-26 -31 -42.5 -25.5t-8.5 40.5q4 15 13 36.5t21.5 43t27 40t28.5 26.5q13 7 19 0z" />
    <glyph glyph-name="oacute" unicode="&#xf3;" horiz-adv-x="227" 
d="M307 393q0 4 -3 7q-2 3 -6 3l-4 -2q-38 -30 -78 -63t-76 -61q-3 -3 -3 -4q0 -2 2 -2q1 0 5 2q42 29 83.5 58.5t76.5 56.5q3 3 3 5zM339 143q4 3 2.5 7t-6.5 -1q-18 -17 -47 -33t-52 -23t-33 4t-5 34q4 14 10 30.5t12 32.5q3 8 2 11q0 4 -5 4q-13 -2 -23 -5q-2 -1 -6 -5
q-11 0 -26 -6q-18 -7 -36 -21.5t-34 -32.5t-29 -37.5t-19 -37.5q-11 -33 -5 -52.5t23 -24.5q17 -4 40 8.5t46 41.5q8 9 14 20l12 22q20 -10 54 2q13 4 28 11t30 15.5t29 18t24 17.5zM184 186q-3 -14 -7.5 -29t-9.5 -26q-13 -29 -2 -45q-8 -16 -17.5 -31.5t-21.5 -29.5
q-26 -31 -42.5 -25.5t-8.5 40.5q4 15 13 36.5t21.5 43t27 40t28.5 26.5q13 7 19 0z" />
    <glyph glyph-name="ocircumflex" unicode="&#xf4;" horiz-adv-x="227" 
d="M260 295q0 17 -2 43t-3 54q0 5 -4 5q-1 0 -5 -2q-8 -5 -16 -12.5t-16 -15.5q-17 -17 -37 -36t-37 -34q-9 -9 -9 -13q0 -2 2 -4q1 -1 2 -1q4 0 13 11q17 19 37.5 40t39.5 38q3 3 5 3q4 0 4 -6q1 -20 2 -45t1 -45q0 -7 3 -7t6 3q6 6 10 9t4 15zM339 143q4 3 2.5 7t-6.5 -1
q-18 -17 -47 -33t-52 -23t-33 4t-5 34q4 14 10 30.5t12 32.5q3 8 2 11q0 4 -5 4q-13 -2 -23 -5q-2 -1 -6 -5q-11 0 -26 -6q-18 -7 -36 -21.5t-34 -32.5t-29 -37.5t-19 -37.5q-11 -33 -5 -52.5t23 -24.5q17 -4 40 8.5t46 41.5q8 9 14 20l12 22q20 -10 54 2q13 4 28 11
t30 15.5t29 18t24 17.5zM184 186q-3 -14 -7.5 -29t-9.5 -26q-13 -29 -2 -45q-8 -16 -17.5 -31.5t-21.5 -29.5q-26 -31 -42.5 -25.5t-8.5 40.5q4 15 13 36.5t21.5 43t27 40t28.5 26.5q13 7 19 0z" />
    <glyph glyph-name="otilde" unicode="&#xf5;" horiz-adv-x="227" 
d="M315 357v2q0 5 -4 5q-5 0 -5 -7q0 -15 -9 -27q-12 -17 -29 -17q-12 0 -25 9q-8 5 -19.5 16.5l-19.5 19.5q-12 12 -26 12q-12 0 -25 -10q-14 -11 -29.5 -25t-23.5 -25q-3 -5 -3 -8t3 -3q4 0 7 5q6 8 15 18t19 18q13 10 24 10q7 0 12.5 -3t10.5 -7q8 -7 14.5 -13.5
t20.5 -18.5q16 -13 32 -13q26 0 48 30q6 8 8 16zM339 143q4 3 2.5 7t-6.5 -1q-18 -17 -47 -33t-52 -23t-33 4t-5 34q4 14 10 30.5t12 32.5q3 8 2 11q0 4 -5 4q-13 -2 -23 -5q-2 -1 -6 -5q-11 0 -26 -6q-18 -7 -36 -21.5t-34 -32.5t-29 -37.5t-19 -37.5q-11 -33 -5 -52.5
t23 -24.5q17 -4 40 8.5t46 41.5q8 9 14 20l12 22q20 -10 54 2q13 4 28 11t30 15.5t29 18t24 17.5zM184 186q-3 -14 -7.5 -29t-9.5 -26q-13 -29 -2 -45q-8 -16 -17.5 -31.5t-21.5 -29.5q-26 -31 -42.5 -25.5t-8.5 40.5q4 15 13 36.5t21.5 43t27 40t28.5 26.5q13 7 19 0z" />
    <glyph glyph-name="odieresis" unicode="&#xf6;" horiz-adv-x="227" 
d="M275 328q0 13 -14 13t-23 -12t-9 -25q0 -12 12 -12q13 0 23.5 12t10.5 24zM203 334q0 13 -14 13t-23 -12t-9 -25q0 -12 12 -12q13 0 23.5 12t10.5 24zM339 143q4 3 2.5 7t-6.5 -1q-18 -17 -47 -33t-52 -23t-33 4t-5 34q4 14 10 30.5t12 32.5q3 8 2 11q0 4 -5 4
q-13 -2 -23 -5q-2 -1 -6 -5q-11 0 -26 -6q-18 -7 -36 -21.5t-34 -32.5t-29 -37.5t-19 -37.5q-11 -33 -5 -52.5t23 -24.5q17 -4 40 8.5t46 41.5q8 9 14 20l12 22q20 -10 54 2q13 4 28 11t30 15.5t29 18t24 17.5zM184 186q-3 -14 -7.5 -29t-9.5 -26q-13 -29 -2 -45
q-8 -16 -17.5 -31.5t-21.5 -29.5q-26 -31 -42.5 -25.5t-8.5 40.5q4 15 13 36.5t21.5 43t27 40t28.5 26.5q13 7 19 0z" />
    <glyph glyph-name="divide" unicode="&#xf7;" horiz-adv-x="400" 
d="M384 124v30h-278v-30h278zM214 255q0 -13 9 -22t22 -9t22 9t9 22t-9 22t-22 9t-22 -9t-9 -22zM214 23q0 -13 9 -22t22 -9t22 9t9 22t-9 22t-22 9t-22 -9t-9 -22z" />
    <glyph glyph-name="oslash" unicode="&#xf8;" horiz-adv-x="227" 
d="M309 233q0 4 -5 4q-4 0 -7 -3q-7 -7 -14 -14.5t-15 -15.5q-8 9 -26 9q-9 0 -19 -2.5t-19 -6.5q-20 -8 -37.5 -19.5t-32.5 -29.5q-17 -21 -32 -45.5t-22 -50.5q-5 -20 -5 -32q0 -2 0.5 -4.5t0.5 -4.5l-36 -34q-3 -3 -3 -7q0 -5 5 -5q3 0 6 4q7 7 14.5 15t15.5 16
q8 -19 27 -19q20 0 52 23q10 8 19 16t17 19q21 26 40.5 59.5t32.5 63.5q6 12 6 22q0 2 -0.5 2.5t-0.5 1.5q9 8 17.5 16t16.5 16q4 4 4 6zM250 186q-32 -32 -67.5 -66.5t-68.5 -66.5q5 17 12.5 34t15.5 32q14 24 31.5 45.5t37.5 32.5q12 7 23 7h1q15 0 15 -17v-1zM248 173
q0 -1 -2 -5q-9 -26 -23 -52.5t-28 -48.5q-20 -29 -40 -45q-23 -18 -34 -18q-12 0 -12 20v6q0 4 1 9q32 32 68 67t70 67z" />
    <glyph glyph-name="ugrave" unicode="&#xf9;" horiz-adv-x="277" 
d="M334 68q0 3 -4 3q-3 0 -5 -2q-33 -30 -62 -51t-65 -31q-8 -2 -12 -2q-17 0 -17 17q0 4 2 14q6 20 13 38t16 37q12 23 31.5 52t39.5 59q5 5 5 9q-2 5 -9 5h-8q-5 0 -7.5 -3t-5.5 -6q-7 -7 -14 -17.5t-14 -20.5q-11 -15 -20 -28.5t-20 -26.5q-17 -18 -33.5 -35t-36.5 -31
q-11 -8 -17 -8t-6 8q0 7 4 18q6 13 14 26.5t16 27.5q9 14 17.5 28.5t15.5 28.5q5 10 5 16q0 11 -12 19q-10 4 -17 4q-10 0 -20 -3q-11 -3 -24.5 -9t-25.5 -13q-5 -3 -5 -6q0 -4 4 -4q1 0 5 2q9 6 22 12.5t24 8.5q2 0 2.5 0.5t2.5 0.5q11 0 11 -12q0 -3 -2 -11
q-4 -17 -20.5 -43.5t-33.5 -51.5q-12 -18 -14 -34v-1q0 -11 6.5 -16.5t16.5 -6.5h2q8 0 17 3t19 11q26 19 53 48q1 2 4 2q2 0 2 -2q0 -1 -0.5 -1.5t-0.5 -2.5l-10.5 -21t-14.5 -27q-5 -9 -10 -20.5t-5 -22.5q0 -26 31 -26q18 0 45 9q29 10 58 31t64 52q3 3 3 6zM217 258v2
q-4 15 -9 29t-10 27q-10 23 -23 57q-1 4 -4 4q-2 0 -5 -3q-5 -6 -5 -12q0 -5 3 -11q10 -20 23 -45t26 -48q1 -2 3 -2q1 0 1 2z" />
    <glyph glyph-name="uacute" unicode="&#xfa;" horiz-adv-x="277" 
d="M334 68q0 3 -4 3q-3 0 -5 -2q-33 -30 -62 -51t-65 -31q-8 -2 -12 -2q-17 0 -17 17q0 4 2 14q6 20 13 38t16 37q12 23 31.5 52t39.5 59q5 5 5 9q-2 5 -9 5h-8q-5 0 -7.5 -3t-5.5 -6q-7 -7 -14 -17.5t-14 -20.5q-11 -15 -20 -28.5t-20 -26.5q-17 -18 -33.5 -35t-36.5 -31
q-11 -8 -17 -8t-6 8q0 7 4 18q6 13 14 26.5t16 27.5q9 14 17.5 28.5t15.5 28.5q5 10 5 16q0 11 -12 19q-10 4 -17 4q-10 0 -20 -3q-11 -3 -24.5 -9t-25.5 -13q-5 -3 -5 -6q0 -4 4 -4q1 0 5 2q9 6 22 12.5t24 8.5q2 0 2.5 0.5t2.5 0.5q11 0 11 -12q0 -3 -2 -11
q-4 -17 -20.5 -43.5t-33.5 -51.5q-12 -18 -14 -34v-1q0 -11 6.5 -16.5t16.5 -6.5h2q8 0 17 3t19 11q26 19 53 48q1 2 4 2q2 0 2 -2q0 -1 -0.5 -1.5t-0.5 -2.5l-10.5 -21t-14.5 -27q-5 -9 -10 -20.5t-5 -22.5q0 -26 31 -26q18 0 45 9q29 10 58 31t64 52q3 3 3 6zM337 393
q0 4 -3 7t-5 3q-1 0 -5 -2q-38 -30 -78 -63t-76 -61q-3 -3 -3 -4q0 -2 2 -2q1 0 5 2q42 29 83.5 58.5t76.5 56.5q3 3 3 5z" />
    <glyph glyph-name="ucircumflex" unicode="&#xfb;" horiz-adv-x="277" 
d="M334 68q0 3 -4 3q-3 0 -5 -2q-33 -30 -62 -51t-65 -31q-8 -2 -12 -2q-17 0 -17 17q0 4 2 14q6 20 13 38t16 37q12 23 31.5 52t39.5 59q5 5 5 9q-2 5 -9 5h-8q-5 0 -7.5 -3t-5.5 -6q-7 -7 -14 -17.5t-14 -20.5q-11 -15 -20 -28.5t-20 -26.5q-17 -18 -33.5 -35t-36.5 -31
q-11 -8 -17 -8t-6 8q0 7 4 18q6 13 14 26.5t16 27.5q9 14 17.5 28.5t15.5 28.5q5 10 5 16q0 11 -12 19q-10 4 -17 4q-10 0 -20 -3q-11 -3 -24.5 -9t-25.5 -13q-5 -3 -5 -6q0 -4 4 -4q1 0 5 2q9 6 22 12.5t24 8.5q2 0 2.5 0.5t2.5 0.5q11 0 11 -12q0 -3 -2 -11
q-4 -17 -20.5 -43.5t-33.5 -51.5q-12 -18 -14 -34v-1q0 -11 6.5 -16.5t16.5 -6.5h2q8 0 17 3t19 11q26 19 53 48q1 2 4 2q2 0 2 -2q0 -1 -0.5 -1.5t-0.5 -2.5l-10.5 -21t-14.5 -27q-5 -9 -10 -20.5t-5 -22.5q0 -26 31 -26q18 0 45 9q29 10 58 31t64 52q3 3 3 6zM280 295
q0 17 -2 43t-3 54q0 5 -4 5q-1 0 -5 -2q-8 -5 -16 -12.5t-16 -15.5q-17 -17 -37 -36t-37 -34q-9 -8 -9 -13q0 -2 2 -4q1 -1 2 -1q4 0 13 11q17 19 37.5 40t39.5 38q3 3 5 3q4 0 4 -6q1 -20 2 -45t1 -45q0 -7 3 -7t6 3q6 6 10 9t4 15z" />
    <glyph glyph-name="udieresis" unicode="&#xfc;" horiz-adv-x="277" 
d="M334 68q0 3 -4 3q-3 0 -5 -2q-33 -30 -62 -51t-65 -31q-8 -2 -12 -2q-17 0 -17 17q0 4 2 14q6 20 13 38t16 37q12 23 31.5 52t39.5 59q5 5 5 9q-2 5 -9 5h-8q-5 0 -7.5 -3t-5.5 -6q-7 -7 -14 -17.5t-14 -20.5q-11 -15 -20 -28.5t-20 -26.5q-17 -18 -33.5 -35t-36.5 -31
q-11 -8 -17 -8t-6 8q0 7 4 18q6 13 14 26.5t16 27.5q9 14 17.5 28.5t15.5 28.5q5 10 5 16q0 11 -12 19q-10 4 -17 4q-10 0 -20 -3q-11 -3 -24.5 -9t-25.5 -13q-5 -3 -5 -6q0 -4 4 -4q1 0 5 2q9 6 22 12.5t24 8.5q2 0 2.5 0.5t2.5 0.5q11 0 11 -12q0 -3 -2 -11
q-4 -17 -20.5 -43.5t-33.5 -51.5q-12 -18 -14 -34v-1q0 -11 6.5 -16.5t16.5 -6.5h2q8 0 17 3t19 11q26 19 53 48q1 2 4 2q2 0 2 -2q0 -1 -0.5 -1.5t-0.5 -2.5l-10.5 -21t-14.5 -27q-5 -9 -10 -20.5t-5 -22.5q0 -26 31 -26q18 0 45 9q29 10 58 31t64 52q3 3 3 6zM295 328
q0 13 -13 13q-14 0 -23.5 -12t-9.5 -25q0 -12 12 -12q13 0 23.5 12t10.5 24zM223 334q0 13 -13 13q-14 0 -23.5 -12t-9.5 -25q0 -12 12 -12q13 0 23.5 12t10.5 24z" />
    <glyph glyph-name="yacute" unicode="&#xfd;" horiz-adv-x="247" 
d="M279 393q0 4 -3 7t-5 3q-3 0 -5 -2q-38 -30 -78 -63t-76 -61q-3 -3 -3 -4q0 -2 2 -2q1 0 5 2q42 29 83.5 58.5t76.5 56.5q3 3 3 5zM313 281q-6 15 -16.5 32.5t-22.5 31.5q-5 5 -7.5 2t1.5 -7q20 -21 17 -52q-5 -47 -45.5 -112t-104.5 -146q-2 0 -3 -1q-8 -6 -16 -4.5
t-8 11.5q-1 11 3.5 27t9.5 32q6 20 16.5 46t19.5 48q6 15 3 23.5t-17 5.5q-24 -5 -54 -16t-51 -22q-6 -3 -3.5 -6.5t7.5 -1.5q23 15 46 21q29 8 26 -14q-3 -20 -11.5 -49t-18.5 -56q-5 -11 -9.5 -27t-6.5 -27q-3 -13 4.5 -19t20.5 -2q7 2 13.5 4.5t12.5 6.5l-10 -12l-10 -12
q-32 -39 -69.5 -87t-73 -99t-65.5 -100.5t-48 -91.5q-15 -35 -12 -66t29 -49q50 -36 136 -25q21 3 45 8t47 11t44 11t38 8q20 3 35.5 4.5t26.5 -2.5q6 -2 6.5 -10t-1.5 -15t1 -7.5t6 6.5q2 5 5 15t0 16q-9 18 -29 20t-52 -6q-22 -5 -50 -14.5t-57 -18t-56.5 -14.5t-47.5 -5
q-41 2 -62.5 21t-20.5 61q0 28 8.5 58.5t22 62t31.5 63t37 60.5q39 60 90.5 125.5t111.5 136.5q36 44 72.5 92t62.5 93q8 15 3 33z" />
    <glyph glyph-name="thorn" unicode="&#xfe;" horiz-adv-x="291" 
d="M401 127q5 6 2 8.5t-8 -3.5q-29 -45 -66 -83t-82 -50q-36 -10 -51.5 3.5t-6.5 48.5q7 24 20 51.5t26 50.5q16 26 27 42.5t19 26.5q9 9 5 13q-2 4 -12 -2q-5 -3 -13 -8.5t-14 -10.5q-31 -28 -65 -61.5t-61 -64.5q-3 -4 -1 1q2 3 15 28t33 63.5t44.5 86.5t50.5 98
t50.5 98.5t43.5 86.5t31 62.5t13 27.5q6 22 -7.5 32.5t-34.5 5.5q-16 -4 -30.5 -11.5t-23.5 -14.5q-5 -4 -2 -7.5t7 0.5q6 5 14.5 11t16.5 9q39 14 28 -30q-5 -23 -32 -80.5t-65.5 -132.5t-83 -157.5t-84 -155.5t-69.5 -126t-39 -69q-29 -51 -66.5 -115t-79.5 -134
q-8 -14 -18 -32t-20 -36.5t-19 -36.5t-14 -30q-8 -20 2 -28q4 -3 8 -6.5t6 -7.5q6 -6 9 -13q5 -8 9 -6t1 7q-4 8 -4.5 20.5t3.5 26.5t11 33t16 39.5t19 42t20 40.5q21 40 41.5 78t41.5 74t42.5 71.5t44.5 72.5q11 17 19.5 30t16.5 24t17 22.5t21 25.5q10 12 22.5 26t26 27.5
t26.5 26t25 22.5q3 3 4 3q2 0 -2 -6q-2 -3 -11.5 -19.5t-21.5 -36.5t-23.5 -40.5t-17.5 -32.5q-11 -24 -6 -39.5t27 -19.5q39 -6 77 5q25 7 46.5 21.5t40.5 33t35 39.5t30 41z" />
    <glyph glyph-name="ydieresis" unicode="&#xff;" horiz-adv-x="247" 
d="M245 348q0 13 -13 13q-14 0 -23.5 -12t-9.5 -25q0 -12 12 -12t23 12t11 24zM173 354q0 13 -13 13q-14 0 -23.5 -12t-9.5 -25q0 -12 12 -12t23 12t11 24zM313 281q-6 15 -16.5 32.5t-22.5 31.5q-5 5 -7.5 2t1.5 -7q20 -21 17 -52q-5 -47 -45.5 -112t-104.5 -146
q-2 0 -3 -1q-8 -6 -16 -4.5t-8 11.5q-1 11 3.5 27t9.5 32q6 20 16.5 46t19.5 48q6 15 3 23.5t-17 5.5q-24 -5 -54 -16t-51 -22q-6 -3 -3.5 -6.5t7.5 -1.5q23 15 46 21q29 8 26 -14q-3 -20 -11.5 -49t-18.5 -56q-5 -11 -9.5 -27t-6.5 -27q-3 -13 4.5 -19t20.5 -2
q7 2 13.5 4.5t12.5 6.5l-10 -12l-10 -12q-32 -39 -69.5 -87t-73 -99t-65.5 -100.5t-48 -91.5q-15 -35 -12 -66t29 -49q50 -36 136 -25q21 3 45 8t47 11t44 11t38 8q20 3 35.5 4.5t26.5 -2.5q6 -2 6.5 -10t-1.5 -15t1 -7.5t6 6.5q2 5 5 15t0 16q-9 18 -29 20t-52 -6
q-22 -5 -50 -14.5t-57 -18t-56.5 -14.5t-47.5 -5q-41 2 -62.5 21t-20.5 61q0 28 8.5 58.5t22 62t31.5 63t37 60.5q39 60 90.5 125.5t111.5 136.5q36 44 72.5 92t62.5 93q8 15 3 33z" />
    <glyph glyph-name="exclam" unicode="!" horiz-adv-x="220" 
d="M323 397q0 2 -3 4q-4 2 -9 2.5t-12 2.5q-5 1 -9 1h-7q-33 0 -48 -31q-27 -52 -55.5 -121t-58.5 -155v-1q0 -4 4 -4q2 0 4 3q19 43 39 86.5t41 82t42.5 69.5t44.5 49q10 8 21 8h2q4 0 4 4zM132 29q0 8 -5 16t-17 8q-5 0 -8 -1q-12 -4 -17 -15.5t-5 -23.5q0 -19 19 -19
q13 0 23 10t10 25z" />
    <glyph glyph-name="nonbreakingspace" unicode="&#xa0;" horiz-adv-x="201" 
 />
    <glyph glyph-name="minus" unicode="&#x2212;" horiz-adv-x="232" 
d="M256 136q0 7 -11 7q-23 0 -37.5 -0.5t-26.5 -0.5q-11 0 -20.5 -0.5t-22.5 -0.5q-9 0 -20 0.5t-25 0.5h-1q-6 0 -9 -3t-3 -6q0 -6 10 -6h38q15 0 25 0.5t19 0.5h24h46h1q13 0 13 8z" />
    <glyph glyph-name="NUL" horiz-adv-x="0" 
 />
    <glyph glyph-name="Lslash" unicode="&#x141;" horiz-adv-x="937" 
d="M1001 147q0 4 -3 4t-5 -5q-20 -45 -46 -89.5t-51 -74.5q-16 -19 -33.5 -25t-40.5 -4q-27 2 -59 9.5t-65 18.5t-68 24t-71 27q-45 17 -94 33t-97 29q38 37 80 95q8 11 15.5 22.5t15.5 22.5q7 0 12.5 -0.5t9.5 -0.5q14 -1 26 -2t23 -2q3 0 12 -1.5t11 -3.5q1 -1 2 -1
q3 -1 4 1.5t1 4.5q2 9 -5 11q-4 2 -30 3t-51 3q11 6 22 11.5t22 11.5q45 25 86 52t72 53q33 29 62 62t39 59q3 9 5 16t2 14q0 20 -13 30t-33 10q-24 0 -48.5 -12.5t-44.5 -31.5q-25 -23 -51.5 -55.5t-50.5 -69.5q-20 -32 -45 -71.5t-50 -77.5h-11q-12 1 -32 2t-31 3
q-4 1 -9 1.5t-7 1.5h-1l-1 1q-3 1 -3 -1v-4l1 -5q1 -6 8 -9q4 -2 8 -2h27t40 -1q-35 -19 -70.5 -37t-61.5 -34q-33 -20 -61 -47q-23 4 -47.5 6t-47.5 2q-29 0 -62.5 -7t-54.5 -27q-13 -12 -19 -26t-6 -28t6 -26.5t17 -21.5q14 -11 32 -16t38 -5q16 0 31.5 2.5t30.5 7.5
q-4 -17 -6 -33.5t0 -33.5q3 -39 25 -65q1 -1 4.5 0.5t2.5 2.5q0 3 -2 4q-13 11 -18 31.5t-5 42.5q0 21 3 38l2 8l2 8q4 2 7.5 2.5t6.5 2.5q35 15 70.5 36.5t69.5 50.5q37 -13 78.5 -28.5t82 -31.5t77 -31.5t64.5 -28.5q37 -17 83 -31.5t87 -14.5q17 0 31 5t25 21
q43 59 73.5 110.5t54.5 101.5q1 1 1 3zM752 515q0 -23 -16.5 -57.5t-51.5 -70.5q-27 -28 -66.5 -58t-83.5 -54q-10 -5 -20.5 -11t-21.5 -12q18 28 34 53.5t30 49.5q28 47 52 83t41 56q6 7 15 16t19.5 16.5t22 13t21.5 5.5q21 0 24 -24q0 -2 0.5 -3t0.5 -3zM453 224
q-7 -11 -13.5 -20.5t-12.5 -18.5q-35 -52 -70 -89q-15 4 -30 7.5t-29 6.5l-15 3q20 17 43 33.5t45 30.5q18 12 38.5 23.5t43.5 23.5zM335 75l-6 -5q-24 -20 -48.5 -35t-45.5 -23q-17 -7 -38 -12q8 23 21 42t27 35q4 5 9.5 10t10.5 10q15 -5 30.5 -9.5t30.5 -9.5zM249 101
q-14 -14 -24.5 -31t-19.5 -34q-5 -10 -9.5 -18.5t-7.5 -18.5q-9 -2 -17.5 -3t-17.5 -1q-22 0 -41.5 6t-31.5 20q-16 17 -16 38q0 16 8 26.5t20.5 17t27 9t27.5 2.5q43 0 80 -8q5 -2 10.5 -2.5t11.5 -2.5z" />
    <glyph glyph-name="lslash" unicode="&#x142;" horiz-adv-x="225" 
d="M477 435q25 29 22 50.5t-33 28.5q-32 8 -69 3t-66 -27q-24 -18 -46 -45q-11 -13 -21.5 -26.5t-21.5 -29.5q-13 -18 -33 -48t-43 -68q-24 -8 -44.5 -14.5t-29.5 -8.5q-4 -1 -12 -1t-8 -4t5 -8.5t9 -4.5q2 0 7.5 1.5t7.5 2.5q4 1 5.5 2t6 3t14 6t30.5 10q-21 -35 -42 -72.5
t-40 -75.5q-23 -47 -20 -78t49 -38q22 -3 50 5t46 19q25 15 56.5 40.5t66.5 67.5q5 5 2.5 8t-7.5 -2q-30 -38 -64 -66.5t-69 -45.5q-25 -12 -45 -12t-31.5 10.5t-13.5 30.5t9 47q8 22 20 46t26 50q27 14 55.5 29t55.5 32q57 37 112.5 81.5t103.5 101.5zM453 425
q-17 -23 -44 -48t-55.5 -48.5t-55 -42.5t-41.5 -29q-24 -15 -50 -29.5t-52 -27.5l3 5q8 16 17 31t18 31q11 3 24.5 7t29.5 8q6 2 12 3t9 1q2 0 2.5 -0.5t2.5 -0.5q3 0 3 4q0 5 -2 8.5t-7 3.5q-6 0 -23.5 -5t-40.5 -12q36 61 70 114q17 27 33.5 49.5t35.5 37.5q23 19 51.5 20
t51.5 -17q36 -27 8 -63z" />
    <glyph glyph-name="notequal" unicode="&#x2260;" horiz-adv-x="412" 
d="M388 75v28h-137l39 69h98v28h-83l38 68l-24 14l-46 -82h-148v-28h133l-39 -69h-94v-28h79l-37 -66l24 -14l45 80h152z" />
    <glyph glyph-name="infinity" unicode="&#x221e;" horiz-adv-x="713" 
d="M357 297q-23 21 -39.5 35t-30.5 24.5t-27.5 18.5t-31.5 16q-36 16 -71 13t-63 -20t-46.5 -44.5t-21.5 -60.5q-3 -28 6.5 -56.5t29.5 -51.5t48 -36t63 -10q39 4 69 18t52.5 31t38 33t24.5 24q9 -8 24.5 -24t38 -33t52.5 -31t69 -18q34 -3 62.5 10t48.5 36t29.5 51.5
t6.5 56.5q-3 33 -21.5 60.5t-46.5 44.5t-63 20t-71 -13q-18 -8 -31.5 -16t-27.5 -18.5t-30.5 -24.5t-39.5 -35zM324 264q-22 -21 -37.5 -36t-29.5 -25t-29 -16.5t-36 -11.5t-41 -0.5t-36.5 15.5t-27 29t-11.5 40q0 16 8 36t24 35t40.5 20.5t56.5 -5.5q13 -5 25 -11t26 -16
t30.5 -23t37.5 -31zM390 264q21 18 37.5 31t30.5 23t26 16t25 11q32 11 56.5 5.5t40.5 -20.5t24 -35t8 -36q-1 -22 -11.5 -40t-27 -29t-36.5 -15.5t-41 0.5t-36 11.5t-29 16.5t-29.5 25t-37.5 36z" />
    <glyph glyph-name="lessequal" unicode="&#x2264;" horiz-adv-x="549" 
d="M29 0h497v55h-497v-55zM29 347l497 -230v62l-433 199l433 199v62l-497 -230v-62z" />
    <glyph glyph-name="greaterequal" unicode="&#x2265;" horiz-adv-x="549" 
d="M526 55h-497v-55h497v55zM526 409l-497 230v-62l433 -199l-433 -199v-62l497 230v62z" />
    <glyph glyph-name="partialdiff" unicode="&#x2202;" horiz-adv-x="494" 
d="M104 667q22 9 36 16t27.5 11t30 5t43.5 -1q23 -2 42 -12t33 -23.5t23 -28.5t14 -25q5 -12 10.5 -31.5t10.5 -41.5t8 -45t3 -41q-1 -29 -3 -56.5t-8 -59.5q-25 19 -43.5 32t-34.5 20.5t-33 11t-39 4.5q-48 2 -82 -18.5t-60 -52.5q-9 -11 -19.5 -28.5t-19.5 -40t-14 -49.5
t-2 -57q5 -57 30 -91t54 -54q19 -13 42 -21.5t48.5 -10t52 4t52.5 19.5q42 23 63 53.5t41 74.5q15 32 25 71.5t16 76.5t8.5 68t2.5 46q0 9 -1 32.5t-6 53.5t-14.5 63.5t-26.5 63.5q-36 63 -79 93t-89 41q-25 6 -51 5.5t-50 -4.5t-44.5 -11t-35.5 -13zM366 299
q-6 -49 -16 -96t-28 -92q-15 -35 -34 -58t-47 -35q-22 -10 -42 -9.5t-41 14.5q-17 11 -26 28t-13.5 35t-5.5 34.5t-1 27.5q0 38 10 78.5t40 82.5q39 52 96 54q23 0 39.5 -6.5t29.5 -16.5t22 -21t17 -20z" />
    <glyph glyph-name="summation" unicode="&#x2211;" horiz-adv-x="713" 
d="M617 745h-497q-26 0 -52 2.5t-52 4.5l347 -454l-349 -398q15 0 29 1.5t29 1.5h503q19 0 38 -4t39 -7q5 38 8.5 63.5t8 48.5t11 48.5t15.5 63.5h-23q-13 -33 -25 -55t-26.5 -35t-34.5 -18t-49 -5h-371l294 339l-273 358h263q48 0 75 -8.5t42 -24t21.5 -36.5t14.5 -45h20z
" />
    <glyph glyph-name="product" unicode="&#x220f;" horiz-adv-x="823" 
d="M706 629q0 35 10.5 55t25.5 29.5t31 12t27 2.5v23h-773v-23q10 0 26.5 -2.5t31.5 -12t26 -29.5t11 -55v-626q0 -26 -6.5 -42t-19.5 -24.5t-31 -11.5t-40 -3v-23h307v23q-22 0 -40 3t-30.5 11.5t-19.5 24.5t-7 42v693h358v-693q0 -26 -7 -42t-19.5 -24.5t-30 -11.5
t-39.5 -3v-23h306v23q-22 0 -40 3t-30.5 11.5t-19.5 24.5t-7 42v626z" />
    <glyph glyph-name="pi" unicode="&#x3c0;" horiz-adv-x="549" 
d="M335 401l-17 -161q-2 -20 -3 -43.5t-0.5 -47t3 -44.5t7.5 -36q9 -27 23 -46t26 -28q20 -14 44.5 -10.5t39.5 12.5q10 6 22.5 18t23 30.5t18 45t8.5 60.5h-21q-1 -6 -2 -13.5t-3 -16t-7 -17t-14 -15.5q-12 -9 -23 -11.5t-21 -0.5t-17.5 6.5t-12.5 9.5q-11 11 -18 31.5
t-7 41.5q0 29 1.5 88t10.5 147h126v86h-373q-35 0 -58 -17t-36 -35q-23 -32 -32 -59t-13 -38h17l21 31q8 12 26.5 22t39.5 10h47l-29 -229q-4 -32 -21 -51t-29 -35q-9 -12 -19 -26.5t-4 -39.5q4 -17 23 -30t39 -8q24 6 36.5 22.5t18.5 45.5q9 41 21.5 125.5t24.5 225.5h113z
" />
    <glyph glyph-name="integral" unicode="&#x222b;" horiz-adv-x="274" 
d="M190 488q0 51 -3 103.5t-7 98.5t-7 80t-2 48t12 21t28 -11q7 -8 17.5 -10.5t20.5 -0.5t19 7t14 11q7 9 8.5 19t-1.5 19.5t-8.5 17t-11.5 11.5t-15 7.5t-19.5 5.5t-22 0.5t-21.5 -8.5q-16 -10 -28 -30t-17 -35q-8 -27 -13 -56t-8 -66t-4 -82.5t-1 -105.5v-144
q0 -62 0.5 -108.5t1.5 -83t2 -65.5t2 -57q1 -23 -1 -46t-7 -39.5t-13 -22.5t-19 6q-14 14 -27 21.5t-30 -1.5q-18 -9 -24 -23.5t0 -31.5q3 -8 12 -20.5t21 -18.5t26.5 -5t27 5.5t22 10t12.5 9.5q6 8 13.5 20t15.5 41q10 35 21.5 105t12.5 188z" />
    <glyph glyph-name="Omega" unicode="&#x3a9;" horiz-adv-x="768" 
d="M313 152q-12 5 -26.5 11t-30 17.5t-31 31.5t-30.5 54q-12 28 -19 72t-4 92t19 94.5t49 79.5q31 31 69 41.5t76 10.5t76 -10.5t69 -41.5q33 -33 49 -79.5t19 -94.5t-4 -92t-19 -72q-15 -34 -30.5 -54t-31 -31.5t-30 -17.5t-26.5 -11l-16 -152h295v162h-15q-5 -18 -9.5 -30
t-12 -19t-18 -9.5t-26.5 -2.5h-158l2 28q58 17 97 40.5t70 68.5q26 39 38 79t12 79t-9 74t-25 63q-15 27 -31 45.5t-31 31t-28.5 20.5t-23.5 14q-35 20 -82 32t-101 12t-101 -12t-82 -32q-10 -6 -23.5 -14t-28.5 -20.5t-31 -31t-31 -45.5q-16 -28 -25 -63t-9 -74t12 -79
t38 -79q31 -45 70 -68.5t97 -40.5l2 -28h-158q-16 0 -26.5 2.5t-18 9.5t-12.5 19t-9 30h-15v-162h295z" />
    <glyph glyph-name="radical" unicode="&#x221a;" horiz-adv-x="549" 
d="M26 417l96 47l243 -502l150 950l-35 5l-127 -798l-197 403l-146 -72z" />
    <glyph glyph-name="approxequal" unicode="&#x2248;" horiz-adv-x="549" 
d="M490 394q-9 -14 -24 -25.5t-27 -16.5q-26 -11 -45 -12.5t-34 3.5l-151 42q-55 15 -105 -2t-90 -70l43 -27q5 6 14.5 19t26 24t41 15.5t60.5 -5.5l150 -43q22 -6 47 -4.5t49 10.5t45.5 26t36.5 42zM490 243q-9 -14 -24 -25.5t-27 -16.5q-26 -11 -45 -12.5t-34 3.5l-151 42
q-55 15 -105 -2t-90 -70l43 -27q5 6 14.5 19t26 24t41 15.5t60.5 -5.5l150 -43q22 -6 47 -4.5t49 10.5t45.5 26t36.5 42z" />
    <glyph glyph-name="Delta" unicode="&#x394;" horiz-adv-x="612" 
d="M326 688l-320 -688h602zM290 517l194 -468h-412z" />
    <glyph glyph-name="lozenge" unicode="&#x25ca;" horiz-adv-x="494" 
d="M272 0l194 377l-194 368h-60l-194 -368l194 -377h60zM406 377l-164 -323l-164 323l164 314z" />
    <glyph glyph-name="fraction" unicode="&#x2215;" horiz-adv-x="541" 
d="M691 546q0 6 -6 8h-2q-5 0 -10 -4t-10 -9q-51 -56 -107.5 -117t-114.5 -123.5t-115.5 -124.5t-110.5 -118.5t-99 -106t-81 -86.5q-4 -5 -7 -10.5t-3 -10.5q0 -4 1 -5q3 -4 7 -4q7 0 14 9q55 63 129.5 145.5t159 173.5t174 186t174.5 183q7 7 7 14z" />
    <glyph glyph-name="fi" unicode="&#xfb01;" horiz-adv-x="348" 
d="M435 348q0 13 -13 13q-14 0 -23.5 -12t-9.5 -25q0 -12 12 -12q13 0 23.5 12t10.5 24zM485 484q0 11 -10 18q-14 9 -32 9q-17 0 -35 -6.5t-35 -16.5q-54 -32 -98.5 -79.5t-85.5 -107.5q-14 -22 -28.5 -45.5t-29.5 -49.5q-16 0 -39.5 0.5t-39.5 0.5h-17q-6 -1 -5.5 -3t5 -4
t10.5 -3.5t10 -1.5h1l69 1q-35 -60 -70 -127t-72 -134q-18 -33 -35.5 -63.5t-34.5 -59.5q-34 -56 -76 -101q-42 -44 -79 -44q-46 0 -73 63q-20 46 -20 92v14q1 12 4.5 24t11.5 21q2 2 3.5 3t2.5 2q2 2 2 4q0 3 -3 3q-1 0 -3 -2q-8 -8 -13 -14t-9 -11t-7 -10.5t-7 -11.5
q-7 -11 -9.5 -17t-3.5 -16v-9q0 -16 4 -40t15 -49q15 -32 37 -47t48 -15q32 0 66.5 20t66.5 56q39 44 76 95t76 117q38 65 72.5 129t69.5 129q39 1 78 1h72q6 0 6 -4q0 -1 -1 -1v-1q-4 -8 -7 -12q-20 -30 -41 -63.5t-37 -63.5q-20 -36 -20 -59q0 -25 28 -25q22 0 60 18
q99 46 173 140q2 4 2 5q0 3 -3 3t-4 -3q-36 -48 -82 -85t-98 -55q-4 -2 -8 -2h-6q-20 0 -20 23q0 7 3 18q8 26 22 51.5t31 51.5q12 19 25.5 38t22.5 33q2 4 2 5q0 3 -4 3h-1h-9t-9 -1q-28 -5 -59 -5q-26 -1 -53 -1h-53h-5q37 68 77 133q24 39 48 69t54 52q31 22 62 22
q13 0 24.5 -4t19.5 -14q4 -6 4 -9q0 -8 -9 -19q-1 -1 -1 -3q0 -4 3 -4q2 0 4 3q2 4 6 8.5t6 7.5q8 8 12.5 18t4.5 18z" />
    <glyph glyph-name="fl" unicode="&#xfb02;" horiz-adv-x="664" 
d="M938 646q0 9 -5 13.5t-13 4.5q-7 0 -14 -3q-24 -10 -51.5 -28t-47.5 -35q-28 -23 -47.5 -46t-36.5 -49l-3 3q-4 4 -4 20q0 18 -16 24q-8 3 -18 3q-11 0 -22 -3t-22 -8q-39 -18 -75 -49t-78 -77q-15 -17 -32.5 -40.5t-34 -49t-31.5 -51t-27 -47.5l-11 -21h-37h-69
q-5 0 -5 -2t4 -3q6 -3 13 -5t16 -2h33t38 1q-15 -27 -31 -57.5t-32.5 -62t-31.5 -60.5t-27 -53q-12 -25 -27.5 -55t-32.5 -62t-35 -61.5t-37 -52.5q-37 -46 -71.5 -73.5t-79.5 -47.5q-57 -26 -118 -26q-11 0 -23 1t-23 3q-40 7 -70.5 23t-45.5 45q-13 25 -13 58q0 19 5 41
q0 2 0.5 3t0.5 2q0 3 -1 3h-1q-3 0 -4 -5q-5 -17 -7.5 -33.5t-2.5 -33.5q0 -40 16 -72.5t48 -52.5q18 -11 41.5 -17t49.5 -6q45 0 92 18q55 21 105 58t96 89q35 40 73 95t79 124q15 25 32 55.5t34 61.5t33 61t30 56q5 8 9.5 16.5t9.5 18.5q45 2 88 7t85 20
q-23 -37 -43.5 -70.5t-33.5 -57.5q-22 -41 -22 -69q0 -21 12 -32t32 -11q19 0 44.5 9.5t54.5 29.5q25 17 53 46.5t51 58.5q2 4 2 5q0 3 -2 3q-1 0 -5 -4q-10 -13 -23 -27.5t-26.5 -28.5t-27 -26t-25.5 -19q-44 -29 -70 -29q-28 0 -28 31q0 28 24 76q9 18 28.5 55.5
t41.5 75.5q14 7 26 14.5t25 15.5q149 98 251 271q17 28 27.5 52.5t15.5 42.5q1 4 1 10zM890 620q0 -6 -1 -9q-5 -23 -12 -41.5t-20 -43.5q-79 -154 -216 -247q-11 -8 -20.5 -14t-20.5 -12q5 8 9 14.5t8 13.5q21 34 52.5 80.5t60.5 94.5q17 27 32 50.5t29 43.5t32 38.5
t35 35.5q12 12 21 12q11 0 11 -16zM717 493q-35 -54 -67 -107.5t-64 -110.5q-6 -11 -12 -20t-12 -20q-42 -17 -86 -21t-89 -6q13 25 27 52.5t27.5 52.5t25.5 46.5t20 34.5q19 30 46 59t52 44q38 24 73 24q2 0 3 -0.5t3 -0.5q18 -1 30 -7t19 -16q1 -2 2 -2.5t2 -1.5z" />
    <glyph glyph-name="dotlessi" unicode="&#x131;" horiz-adv-x="181" 
d="M318 165q6 6 3 9t-8 -3q-18 -19 -40.5 -39.5t-46.5 -40t-49 -37t-47 -29.5q-26 -14 -35 -4t3 38q11 25 32 60t45 68q15 20 6.5 25.5t-26.5 -0.5q-20 -7 -46 -15t-47 -13q-8 -2 -6 -6.5t7 -2.5q16 5 29 9.5t27 8.5q28 8 13 -26q-9 -20 -25 -46.5t-31 -50.5
q-21 -34 -24.5 -52.5t6 -23.5t30 1t46.5 22q47 28 96 68.5t88 79.5z" />
    <glyph glyph-name="breve" unicode="&#x2d8;" 
d="M185 345q0 2 -2 4t-3 2q-2 0 -5 -3.5t-6 -8.5q-11 -17 -26 -26t-29 -9q-16 0 -27.5 10.5t-11.5 31.5v1v1q0 6 -4 6t-6 -1q-12 -4 -12 -13q0 -24 14 -37t35 -13q18 0 38 10t37 32q3 5 5.5 7.5t2.5 5.5z" />
    <glyph glyph-name="dotaccent" unicode="&#x2d9;" 
d="M136 334q0 12 -10 15q-3 1 -9 1q-13 0 -20.5 -8.5t-7.5 -19.5v-5q3 -13 16 -13q5 0 7 1q16 4 23 23q1 2 1 6z" />
    <glyph glyph-name="ring" unicode="&#x2da;" horiz-adv-x="276" 
d="M160 347q0 14 -9 23.5t-26 9.5t-32.5 -12t-20.5 -31q-1 -3 -1 -10q0 -14 9 -23.5t26 -9.5q18 0 33 12t20 31q1 3 1 10zM147 344q0 -5 -1 -7q-3 -13 -13 -22t-24 -9q-25 0 -25 23q0 5 1 8q3 13 13 22t24 9q11 0 18 -6.5t7 -17.5z" />
    <glyph glyph-name="hungarumlaut" unicode="&#x2dd;" 
d="M191 366q0 5 -2 9q-1 5 -7 5q-3 0 -6 -3q-8 -11 -17.5 -23t-17.5 -24q-8 -11 -16.5 -21t-16.5 -24q-1 -1 -1 -3t1 -2t3 2q20 17 39.5 37t34.5 36q6 7 6 11zM130 368q0 2 -2 10q-1 4 -5 4t-5 -3q-11 -14 -20.5 -26t-17.5 -22q-8 -11 -17 -22.5t-17 -25.5q-1 -1 -1 -3
q0 -1 1 -1q2 0 3 1l39 39t35 36q7 7 7 13z" />
    <glyph glyph-name="ogonek" unicode="&#x2db;" 
d="M172 10q0 2 -3 2h-2q-19 -7 -43.5 -21.5t-37.5 -26.5q-20 -19 -20 -35q0 -13 11.5 -21.5t31.5 -7.5h4q8 0 16 1.5t13 3.5q4 1 4 4q0 2 -2 2h-2q-6 -2 -10 -2q-14 0 -24 9t-10 21q0 18 19.5 37.5t50.5 30.5q4 1 4 3z" />
    <glyph glyph-name="caron" unicode="&#x2c7;" 
d="M193 386q0 1 -2 5q-2 2 -3 2q-4 0 -13 -12q-14 -17 -35.5 -39.5t-40.5 -38.5q-3 -3 -5 -3q-4 0 -4 6q-2 24 -2 47v43q0 7 -3 7t-6 -3q-2 -2 -5 -4t-7 -5q-5 -4 -5 -12v-3q1 -19 3.5 -43.5t3.5 -52.5q0 -5 5 -5q3 0 4 1q7 5 15.5 12.5t16.5 15.5q17 17 36.5 35.5
t38.5 34.5q8 6 8 12z" />
    </font>
</defs>
</svg>
